<?xml version="1.0" standalone="no"?>
<!DOCTYPE svg PUBLIC "-//W3C//DTD SVG 20010904//EN"
 "http://www.w3.org/TR/2001/REC-SVG-20010904/DTD/svg10.dtd">
<svg version="1.0" xmlns="http://www.w3.org/2000/svg"
 width="500.000000pt" height="500.000000pt" viewBox="0 0 500.000000 500.000000"
 preserveAspectRatio="xMidYMid meet">
<metadata>
Created by potrace 1.11, written by Peter Selinger 2001-2013
</metadata>
<g transform="translate(0.000000,500.000000) scale(0.100000,-0.100000)"
fill="#000000" stroke="none">
<path d="M1175 4724 c-51 -11 -136 -10 -155 1 -17 10 -523 -107 -572 -132 -36
-18 -39 -39 -13 -103 7 -19 16 -46 19 -60 3 -14 35 -73 72 -130 114 -179 111
-174 274 -485 125 -239 235 -440 252 -462 13 -16 7 -90 -10 -133 -8 -19 -46
-100 -84 -180 -39 -80 -82 -170 -96 -200 -13 -30 -45 -98 -69 -150 -24 -52
-63 -135 -86 -185 -23 -49 -85 -178 -138 -285 -90 -184 -132 -284 -143 -344
-2 -14 -7 -29 -9 -33 -3 -5 -8 -24 -11 -44 -5 -35 -5 -35 25 -31 27 4 29 3 21
-19 -5 -13 -12 -37 -16 -52 -7 -28 -6 -28 29 -23 19 3 52 9 73 12 20 3 53 13
72 21 57 25 152 53 205 60 98 14 589 6 695 -11 14 -2 48 -7 75 -11 28 -4 118
-19 200 -35 83 -16 170 -32 195 -36 25 -3 54 -8 65 -10 11 -2 40 -6 65 -9 25
-4 68 -10 95 -15 28 -5 68 -11 90 -14 22 -3 57 -7 78 -11 20 -3 54 -7 75 -10
20 -3 80 -12 132 -20 52 -8 111 -16 130 -19 71 -9 183 -26 204 -31 12 -2 41
-7 66 -10 55 -6 83 -11 180 -30 41 -9 86 -17 100 -20 28 -6 123 -21 185 -30
22 -4 51 -8 65 -11 127 -22 488 -22 590 1 40 9 128 13 139 6 22 -14 28 -182
20 -581 -2 -135 3 -293 15 -411 2 -20 10 -47 17 -60 7 -13 15 -35 16 -49 2
-14 12 -36 22 -50 15 -21 27 -25 72 -26 30 0 73 6 96 13 35 12 44 21 64 66 22
52 22 55 21 532 0 264 -2 577 -2 695 -1 118 2 247 8 285 5 39 7 126 5 195 -8
220 -14 1097 -8 1270 1 58 6 278 10 490 6 344 4 395 -11 482 -10 54 -21 98
-25 98 -4 0 -10 15 -14 33 -14 70 -8 66 -83 45 -311 -88 -403 -102 -647 -103
-179 0 -244 6 -455 40 -14 2 -50 6 -80 10 -30 3 -71 7 -90 10 -19 2 -62 7 -95
10 -33 3 -71 8 -85 10 -14 2 -56 6 -95 10 -38 3 -77 8 -85 10 -8 2 -48 7 -89
10 -40 3 -76 7 -80 9 -3 2 -37 7 -76 10 -38 4 -79 9 -90 11 -11 3 -38 7 -60
10 -87 12 -163 27 -235 47 -41 11 -109 21 -151 23 -56 2 -108 14 -198 44 -128
42 -165 50 -346 75 -60 9 -121 18 -135 20 -62 12 -140 12 -195 0z m722 -416
c24 -22 29 -43 15 -52 -5 -3 -19 13 -31 34 -25 45 -19 51 16 18z m-319 -55
c-10 -13 -13 -12 -19 4 -9 25 0 36 17 22 11 -9 12 -15 2 -26z m36 -76 c-3 -33
-4 -35 -24 -30 -30 8 -45 40 -22 46 30 8 47 2 46 -16z m669 -87 c-3 -11 -9
-17 -15 -14 -5 3 -4 12 3 20 16 19 18 18 12 -6z"/>
</g>
</svg>
