<!-- Generator: Adobe Illustrator 19.2.1, SVG Export Plug-In  -->
<svg version="1.1"
	 xmlns="http://www.w3.org/2000/svg" xmlns:xlink="http://www.w3.org/1999/xlink" xmlns:a="http://ns.adobe.com/AdobeSVGViewerExtensions/3.0/"
	 x="0px" y="0px" width="479.1px" height="419.5px" viewBox="0 0 479.1 419.5" enable-background="new 0 0 479.1 419.5"
	 xml:space="preserve">
<defs>
</defs>
<g>
	<polygon fill="#FFFFFF" stroke="#000000" stroke-width="6" stroke-miterlimit="10" points="239.6,278.6 278.7,347.5 317.8,416.5 
		239.6,416.5 161.3,416.5 200.4,347.5 	"/>
	<polygon fill="#FFFFFF" stroke="#000000" stroke-width="6" stroke-miterlimit="10" points="395.7,278.6 434.8,347.5 474,416.5 
		395.7,416.5 317.4,416.5 356.6,347.5 	"/>
	<polygon fill="#FFFFFF" stroke="#000000" stroke-width="6" stroke-miterlimit="10" points="317.6,142.3 356.8,211.4 395.9,280.5 
		317.6,280.5 239.4,280.5 278.5,211.4 	"/>
	<polygon fill="#FFFFFF" stroke="#000000" stroke-width="6" stroke-miterlimit="10" points="239.6,6.1 278.7,74.8 317.8,143.5 
		239.6,143.5 161.3,143.5 200.4,74.8 	"/>
	<polygon fill="#FFFFFF" stroke="#000000" stroke-width="6" stroke-miterlimit="10" points="161.5,142.3 200.6,211.4 239.8,280.5 
		161.5,280.5 83.2,280.5 122.4,211.4 	"/>
</g>
<polygon fill="#FFFFFF" stroke="#000000" stroke-width="6" stroke-miterlimit="10" points="83.4,278.6 122.5,347.5 161.7,416.5 
	83.4,416.5 5.2,416.5 44.3,347.5 "/>
</svg>
