<?xml version="1.0" encoding="utf-8"?>
<!-- Generator: Adobe Illustrator 19.2.1, SVG Export Plug-In . SVG Version: 6.00 Build 0)  -->
<svg version="1.1" id="Layer_1" xmlns="http://www.w3.org/2000/svg" xmlns:xlink="http://www.w3.org/1999/xlink" x="0px" y="0px"
	 viewBox="0 0 307 165.7" enable-background="new 0 0 307 165.7" xml:space="preserve">
<g>
	<g>
		<path fill="#157A40" d="M92.8,22.7h7l-1.5,45.2l8.1,1.3v4.6H92.8V22.7z"/>
		<path fill="#157A40" d="M122.2,54.6l-5.8,2.7l-1.6,16.4h-4.5l3.2-51.1H125l3,51.1h-3.2L122.2,54.6z M120.9,25.7l-3.1,0.7
			c-0.3,0.1-0.4,0.4-0.4,0.7v25.3c0,0.2,0.1,0.4,0.4,0.4l2.7-0.4c0.3,0,0.4-0.1,0.4-0.4l0.4-25.9C121.3,25.8,121.1,25.7,120.9,25.7z
			"/>
		<path fill="#157A40" d="M148.9,22.7l4.3,49.3h0.4l4.8-48.6h4.8l-7,50.4h-7.6l-4.2-51.1H148.9z"/>
		<path fill="#157A40" d="M168.4,22.7H183v5.6h-10.3v14.8h7.8v3.6l-7.5,1.3v18.4l9.7-1.3l0.9,7.3h-16.9L168.4,22.7z"/>
		<path fill="#157A40" d="M197,73.8c-5.3,0-7.3-2.1-7.3-4.5V26.7c0-2.2,2-4,5.8-4h11.8v4l-1.2,9h-4.8l-0.7-8.1
			c0-0.4-0.3-0.6-0.9-0.6h-3c-2,0-2.6,2.2-2.6,3.6c0,0.6,0.1,0.9,0.2,0.9l1.4,35.9c-0.1,0.1-0.2,0.1-0.2,0.2c0,0.2,0.4,0.2,0.6,0.2
			h4.2c0.6,0,0.9-0.1,0.9-0.4l1.4-5.6h4.5v12H197z"/>
		<path fill="#157A40" d="M213.8,22.7h4.5l1.5,49.7h-6V22.7z"/>
		<path fill="#157A40" d="M230.6,33.9h-0.3L229,75.2h-3.7l2.3-52.6h4.4l7.3,41.7h0.5V22.7h4.2l-1.4,52.6h-4.9L230.6,33.9z"/>
		<path fill="#157A40" d="M259.2,53.8h-3.7l-3.3,20h-3.4l3.2-51.1h13.2v51.1H261L259.2,53.8z M260.2,25h-3.1c-0.3,0-0.4,0.1-0.4,0.4
			V50c0,0.2,0.1,0.4,0.4,0.4h3.1c0.3,0,0.4-0.1,0.4-0.4V25.4C260.7,25.1,260.5,25,260.2,25z"/>
		<path fill="#157A40" d="M272.4,22.7h7l-1.5,45.2l8.1,1.3v4.6h-13.6V22.7z"/>
	</g>
	<path fill="#25A55F" d="M92.3,21.2h7l-1.5,45.2l8.1,1.3v4.6H92.3V21.2z"/>
	<path fill="#25A55F" d="M121.7,53.2l-5.8,2.7l-1.6,16.4h-4.5l3.2-51.1h11.4l3,51.1h-3.2L121.7,53.2z M120.4,24.2l-3.1,0.7
		c-0.3,0.1-0.4,0.4-0.4,0.7V51c0,0.2,0.1,0.4,0.4,0.4l2.7-0.4c0.3,0,0.4-0.1,0.4-0.4l0.4-25.8C120.8,24.4,120.7,24.2,120.4,24.2z"/>
	<path fill="#25A55F" d="M148.4,21.2l4.3,49.3h0.4l4.8-48.6h4.8l-7,50.4h-7.6l-4.2-51.1H148.4z"/>
	<path fill="#25A55F" d="M167.9,21.2h14.6v5.6h-10.3v14.8h7.8v3.6l-7.5,1.3v18.4l9.7-1.3l0.9,7.3h-16.9L167.9,21.2z"/>
	<path fill="#25A55F" d="M196.5,72.3c-5.3,0-7.3-2.1-7.3-4.5V25.2c0-2.2,2-4,5.8-4h11.8v4l-1.2,9h-4.8l-0.7-8.1
		c0-0.4-0.3-0.6-0.9-0.6h-3c-2,0-2.6,2.2-2.6,3.6c0,0.6,0.1,0.9,0.2,0.9l1.4,35.9c-0.1,0.1-0.2,0.1-0.2,0.2c0,0.2,0.4,0.2,0.6,0.2
		h4.2c0.6,0,0.9-0.1,0.9-0.4l1.4-5.6h4.5v12H196.5z"/>
	<path fill="#25A55F" d="M230.2,32.4h-0.3l-1.4,41.3h-3.7l2.3-52.6h4.4l7.3,41.7h0.5V21.2h4.2l-1.4,52.6h-4.9L230.2,32.4z"/>
	<path fill="#25A55F" d="M258.7,52.3H255l-3.3,20h-3.4l3.2-51.1h13.2v51.1h-4.2L258.7,52.3z M259.8,23.5h-3.1
		c-0.3,0-0.4,0.1-0.4,0.4v24.6c0,0.2,0.1,0.4,0.4,0.4h3.1c0.3,0,0.4-0.1,0.4-0.4V24C260.2,23.7,260,23.5,259.8,23.5z"/>
	<path fill="#25A55F" d="M271.9,21.2h7l-1.5,45.2l8.1,1.3v4.6h-13.6V21.2z"/>
	<path fill="#25A55F" d="M213.3,21.7h4.5l1.5,49.7h-6V21.7z"/>
</g>
<g>
	<path fill="#157A40" d="M71.2,58.9c-4.2,0.7-8.3,0.2-12.4-0.6c-3.6-0.7-15.1-2.2-18.7-2.9c-3.5-0.8-7.1-0.8-10.6-0.8
		c-1.4,0-2.8,0.3-4.1,0.9c-0.7,0.3-1.5,0.3-2.4,0.5c0.4-1.2,0.5-2.2,0.9-3.1c0.7-1.7,1.6-3.3,2.4-4.9c1.6-3.4,3.2-6.9,4.9-10.3
		c0.6-1.3,0.6-2.3-0.1-3.5c-1-1.8-2-3.7-3-5.5c-0.8-1.4-1.5-2.9-2.3-4.3c-0.7-1.2-1.5-2.4-2.2-3.6c-0.6-1-0.5-1.4,0.5-1.7
		c2.1-0.6,4.3-1.1,6.5-1.5c0.6-0.1,1.4,0.3,2,0.1c2-0.7,3.9,0.2,5.8,0.3c1.7,0.1,3.3,0.9,5,1.3c0.3,0.1,0.7,0,1.1,0
		c0.3,0,0.7,0,1,0.1c3,1.1,13.9,1.9,17,2.4c4.3,0.7,8.6,0.5,12.7-0.9c0.4-0.1,0.8-0.2,1.4-0.4c0.2,1,0.5,1.9,0.5,2.9
		c0,4.2-0.1,8.4-0.2,12.5c0,0.7-0.1,1.4-0.1,2.1c0,1.3,0.1,2.5,0.1,3.8c0,2.1-0.1,4.2,0,6.3c0,1.1,0.2,2.2,0.2,3.3
		c0,1.4-0.3,2.7-0.3,4.1c0,1.7,0.1,3.3,0.1,5c0,3.8,0.1,7.6,0,11.4c0,0.6-0.3,1.5-0.8,1.8c-0.6,0.4-1.4,0.4-2.1,0.3
		c-0.3,0-0.6-0.6-0.7-1c-0.1-2.4-0.4-4.8-0.2-7.2c0.2-2.4-0.1-4.7-0.3-7.1C72.3,58.8,71.8,58.8,71.2,58.9z M40.3,26.3
		c0.2,0,0.4,0.1,0.7,0.2c0.1-0.4,0.2-0.8,0.3-1.1c-1.2-0.2-2.3,0.8-2.4,2.2C39.5,27.1,39.9,26.7,40.3,26.3z M47.8,24.5
		c0.1,0,0.1,0,0.2,0c-0.1-0.3-0.2-0.6-0.3-0.9c-1.3,0.9-1.4,1.2-0.4,2.4C47.6,25.6,47.7,25,47.8,24.5z M43.1,22.6
		c-0.5-0.5-1-0.9-1.5-1.3c-0.2,0.9,0.5,1.6,0.9,2.6C42.9,23.2,43,22.8,43.1,22.6z M38.6,22c-0.2,0-0.5,0-1-0.1
		c0.2,0.7-0.5,1.8,0.8,1.8C38.5,23.2,38.5,22.7,38.6,22z M44.9,25.7c0,0.1,0.2,0.3,0.3,0.5c0.1-0.1,0.4-0.2,0.4-0.4
		c0.1-0.5,0-0.9,0-1.4c-0.1,0-0.2,0-0.3-0.1C45.2,24.8,45,25.2,44.9,25.7z M44.7,30c-0.9,0-1,0.5-0.6,1.2C45.2,31.2,45,30.6,44.7,30
		z M38.5,25.6c0.3-0.5,0.6-0.8,1-1.4c-0.6,0.1-1,0.1-1.5,0.2C38.1,24.8,38.3,25.1,38.5,25.6z"/>
	<path fill="#25A55F" d="M70.8,57.6c-4.2,0.7-8.3,0.2-12.4-0.6c-3.6-0.7-15.1-2.2-18.7-2.9c-3.5-0.8-7.1-0.8-10.6-0.8
		c-1.4,0-2.8,0.3-4.1,0.9c-0.7,0.3-1.5,0.3-2.4,0.5c0.4-1.2,0.5-2.2,0.9-3.1c0.7-1.7,1.6-3.3,2.4-4.9c1.6-3.4,3.2-6.9,4.9-10.3
		c0.6-1.3,0.6-2.3-0.1-3.5c-1-1.8-2-3.7-3-5.5c-0.8-1.4-1.5-2.9-2.3-4.3c-0.7-1.2-1.5-2.4-2.2-3.6c-0.6-1-0.5-1.4,0.5-1.7
		c2.1-0.6,4.3-1.1,6.5-1.5c0.6-0.1,1.4,0.3,2,0.1c2-0.7,3.9,0.2,5.8,0.3c1.7,0.1,3.3,0.9,5,1.3c0.3,0.1,0.7,0,1.1,0
		c0.3,0,0.7,0,1,0.1c3,1.1,13.9,1.9,17,2.4c4.3,0.7,8.6,0.5,12.7-0.9c0.4-0.1,0.8-0.2,1.4-0.4c0.2,1,0.5,1.9,0.5,2.9
		c0,4.2-0.1,8.4-0.2,12.5c0,0.7-0.1,1.4-0.1,2.1c0,1.3,0.1,2.5,0.1,3.8c0,2.1-0.1,4.2,0,6.3c0,1.1,0.2,2.2,0.2,3.3
		c0,1.4-0.3,2.7-0.3,4.1c0,1.7,0.1,3.3,0.1,5c0,3.8,0.1,7.6,0,11.4c0,0.6-0.3,1.5-0.8,1.8c-0.6,0.4-1.4,0.4-2.1,0.3
		c-0.3,0-0.6-0.6-0.7-1c-0.1-2.4-0.4-4.8-0.2-7.2c0.2-2.4-0.1-4.7-0.3-7.1C71.9,57.6,71.3,57.5,70.8,57.6z M39.9,25
		c0.2,0,0.4,0.1,0.7,0.2c0.1-0.4,0.2-0.8,0.3-1.1c-1.2-0.2-2.3,0.8-2.4,2.2C39.1,25.8,39.5,25.4,39.9,25z M47.4,23.3
		c0.1,0,0.1,0,0.2,0c-0.1-0.3-0.2-0.6-0.3-0.9C46,23.3,46,23.6,47,24.8C47.1,24.3,47.3,23.8,47.4,23.3z M42.7,21.3
		c-0.5-0.5-1-0.9-1.5-1.3c-0.2,0.9,0.5,1.6,0.9,2.6C42.4,22,42.6,21.6,42.7,21.3z M38.2,20.8c-0.2,0-0.5,0-1-0.1
		c0.2,0.7-0.5,1.8,0.8,1.8C38,21.9,38.1,21.4,38.2,20.8z M44.4,24.5c0,0.1,0.2,0.3,0.3,0.5c0.1-0.1,0.4-0.2,0.4-0.4
		c0.1-0.5,0-0.9,0-1.4c-0.1,0-0.2,0-0.3-0.1C44.7,23.5,44.6,24,44.4,24.5z M44.3,28.8c-0.9,0-1,0.5-0.6,1.2
		C44.7,29.9,44.6,29.4,44.3,28.8z M38.1,24.3c0.3-0.5,0.6-0.8,1-1.4c-0.6,0.1-1,0.1-1.5,0.2C37.7,23.6,37.8,23.9,38.1,24.3z"/>
	<path fill="#FFFFFF" d="M65,33.9c-0.2-2.3-1.4-3.9-3.1-5.1c-2.4-1.8-5.4-1.6-7.6,0.4c-1.5,1.4-1.6,1.4-2.9-0.1
		c-2.5-2.6-5.6-3.4-8.4-2c-1.4,0.7-2.8,2.9-2.6,4.5c0.3,2.6,1.1,5,3,6.9c0.9,0.9,1.6,1.9,2.3,2.9c1.9,2.3,3.7,4.7,5.6,7
		c1.2,1.5,1.6,1.4,2.9,0.1c2.3-2.4,4.7-4.7,6.9-7.2C62.8,39,64.7,36.8,65,33.9z"/>
</g>

<g>
</g>
<g>
</g>
<g>
</g>
<g>
</g>
<g>
</g>
<g>
</g>
<g>
</g>
<g>
</g>
<g>
</g>
<g>
</g>
<g>
</g>
<g>
</g>
<g>
</g>
<g>
</g>
<g>
</g>
</svg>
