<!-- Generator: Adobe Illustrator 19.2.1, SVG Export Plug-In  -->
<svg version="1.1"
     xmlns="http://www.w3.org/2000/svg" xmlns:xlink="http://www.w3.org/1999/xlink" xmlns:a="http://ns.adobe.com/AdobeSVGViewerExtensions/3.0/"
     x="0px" y="0px" width="1330.1px" height="375.8px" viewBox="0 0 1330.1 375.8" enable-background="new 0 0 1330.1 375.8"
     xml:space="preserve">
<defs>
</defs>
<g>
    <path id="numero-8_1_" fill="#333333" d="M985.5,184.7c2.8,3.4,4.7,7.1,5.8,10.8c0.8,2.7,1.2,5.4,1.2,8.2v1c-0.1,3-0.7,6-1.8,8.8
        c-1.9,5.1-5.3,9.5-10.2,13c-4.6,3.1-10,4.7-16.3,4.7h-1.7c-7.3-0.3-13.1-1.7-17.4-4.2c-4.2-2.4-7.2-5.5-9-9.2
        c-1.1-2.3-1.8-4.8-2-7.5c-0.1-0.9-0.2-1.8-0.2-2.7c0-1.8,0.2-3.6,0.5-5.3c0.9-5.1,2.8-9.9,5.8-14.3c3-4.6,6.6-8,10.7-10.2
        c-3.2-1.2-6.1-3.8-8.5-7.8s-3.8-8.3-4.2-12.8c-0.2-2.4-0.1-4.8,0.5-7.2c0.6-2.3,1.6-4.5,3-6.5c1.8-2.4,4.4-4.4,7.8-5.8
        c3.3-1.4,7.7-2.2,13-2.2h0.3c4.2,0,7.8,0.7,10.7,2s5.2,3.1,7,5.3c1.4,1.8,2.6,3.7,3.3,5.8c0.8,2.1,1.2,4.3,1.2,6.5
        c0.2,4.2-0.7,8.2-2.7,12c-1.9,3.9-4.6,6.7-8.2,8.3C978.8,178.2,982.6,181.2,985.5,184.7L985.5,184.7z M956.6,189
        c-1.3,1.7-2.6,3.5-3.7,5.5c-2.1,3.8-3.7,7.9-4.8,12.3c-0.4,2.3-0.7,4.4-0.7,6.3c0,2,0.2,3.8,0.7,5.5c0.6,1.7,1.4,3.1,2.7,4.2
        c1.2,1.2,2.8,2.1,4.8,2.5c1,0.2,1.9,0.3,2.8,0.3c2.9,0,5.3-1,7.3-3c2.7-2.7,4.4-6.1,5.2-10.3c0.2-1.4,0.3-2.9,0.3-4.5v-2.6
        c-0.2-2.6-0.8-5.1-1.7-7.5c-0.9-2.3-2.1-4.6-3.5-6.7c-1.6-2.1-3.4-4-5.7-5.7C959.1,186.2,957.8,187.5,956.6,189L956.6,189z
         M964.1,140.6c-1.8,0-3.3,0.3-4.5,1s-2.2,1.6-3,2.8c-0.7,1.2-1.1,2.6-1.3,4.2c-0.1,0.7-0.2,1.4-0.2,2.2c0,1,0.1,2,0.3,3
        c0.4,3.2,1.7,6.4,3.7,9.5c1.9,3.1,4.3,5.2,7.2,6.3c3.2-1.9,5.8-5.4,7.8-10.5c1.1-2.8,1.7-5.3,1.7-7.5c0-2.1-0.4-4-1.3-5.7
        c-0.8-1.6-1.9-2.8-3.5-3.8c-1.7-1-3.9-1.5-6.7-1.5H964.1z"/>
    <path id="numero-1_1_" fill="#333333" d="M913.1,153.8c0.6,6.2,1.2,13.3,1.8,21.4c0.6,6.5,1.1,12.9,1.5,19.4
        c0.6,6.5,0.9,12.1,1.2,16.8c0.1,2.6,0.2,4.8,0.3,6.8v1.2c0,1.3-0.1,2.3-0.2,3c-0.2,0.6-0.6,1.1-1,1.5c0.7,0.1,1.2,0.2,1.7,0.2
        c1.2,0.3,2.9,0.4,5,0.2c2-0.1,3,0.7,3,2.5c0,0.6-1.3,1-4,1.3c-2.7,0.4-5.8,0.8-9.3,1.2l-3,0.3c-0.1,0-0.2,0.1-0.3,0.2
        c-2.6,1.7-4.6,2.5-6,2.5c-1.2,0-2.1-0.6-2.7-1.7c-0.1-0.1-0.2-0.3-0.3-0.5h-0.5c-4.2,0.2-6.8,0.3-7.7,0.3c0.1-0.8-0.1-1.8-0.5-3.2
        c-0.2-0.3-0.3-0.6-0.3-0.8c0-0.9,0.6-1.7,1.8-2.3c0.7,0.1,1.8,0.1,3.5,0h2c-0.1-1.1-0.3-2.3-0.5-3.7c-0.7-4.2-1.2-8.9-1.5-14
        c-0.6-9.6-0.7-19.9-0.3-30.9c0.3-11.1,0.7-20.6,1.2-28.5c-1.1,1.3-2.4,2.7-3.8,4c-1.3,1.4-2.8,2.9-4.3,4.3c-0.8-0.3-1.4-1.3-1.8-3
        c-0.2-0.4-0.3-0.9-0.3-1.5c0-1,0.3-1.9,1-2.7c1.6-1.1,3.7-3,6.3-5.7c2.8-2.7,4.7-4.7,5.7-6c0.7,1,2.5,1.7,5.5,2s5.1,1.7,6.2,4.2
        C912.2,143.7,912.5,147.5,913.1,153.8L913.1,153.8z"/>
    <path id="numero-0_1_" fill="#333333" d="M856,137.8c4.4,0.2,8.2,1.3,11.2,3.3c3.1,1.9,5.6,4.4,7.3,7.7c3,5.1,4.6,11.3,4.7,18.7
        v1.3c0,6.9-0.9,13.8-2.7,20.7c-1.9,7.2-4.6,14-8,20.4c-3.4,6.3-7.3,11.3-11.7,14.8c-2.3,1.8-4.8,3.1-7.3,4
        c-1.6,0.4-3.1,0.7-4.5,0.7c-1.1,0-2.2-0.1-3.2-0.3c-4.2-0.9-7.9-2.5-11-4.8c-3.2-2.3-6-5.2-8.2-8.7c-3.6-5.3-6-11.6-7.3-18.8
        c-0.8-4.6-1.2-9.2-1.2-13.8c0-2.6,0.1-5.1,0.3-7.7c0.4-3.7,1.1-7.3,2-10.8c0.9-3.6,2-6.9,3.3-10c2.7-5.7,6.1-10.2,10.2-13.5
        c3.4-2.7,7.3-4,11.7-4c1,0,2,0.1,3,0.2c0.7,0.4,1.3,1.1,2,1.8c1.3-1,2.7-1.4,4.2-1.3C852.4,137.6,854.1,137.7,856,137.8L856,137.8z
         M842.2,151.5c-2,0.9-3.6,2.3-4.8,4.2c-2,3-3.2,7.1-3.5,12.2c-0.4,5.1-0.3,10.5,0.3,16c1,8.5,2.9,16.2,5.7,23.4
        c2.7,7.2,5.3,11.1,7.8,11.7c3.9,0.9,7.5-1.4,10.8-7s5.9-12.3,7.8-20.2c0.8-3.3,1.4-6.7,2-10.2c0.4-3.4,0.7-6.8,0.8-10
        c0.2-6.1-0.3-11.5-1.7-16.2c-1.3-4.6-3.6-7.4-6.7-8.5c-1.3-0.3-3.3-0.6-6-0.7c-2.2,0-3.9,0.2-5,0.7c0.3,1.9,0.2,3.3-0.5,4.3
        C846.6,150.6,844.2,150.7,842.2,151.5L842.2,151.5z"/>
    <path id="numero-2_1_" fill="#333333" d="M754.4,213.7c1.2-3.1,2.8-6.3,4.7-9.5c2.1-3.3,4.5-6.6,7.2-9.8s5.4-6.4,8.2-9.5
        c5.1-5.6,9.6-10.6,13.5-15s5.3-7.8,4.2-10c-1.1-2.3-2.5-4.2-4.2-5.5c-1.7-1.2-3.5-2.1-5.5-2.5c-4.4-1.1-9-0.7-13.5,1.3
        c-4.4,2-7,3.8-7.7,5.3c-1.2,2.6-0.7,5.3,1.7,8.3c2.4,2.9,4.4,3.6,5.8,2.2c0.6,0.6,1.2,1.2,1.8,2c0.6,0.9,0.8,2,0.7,3.3
        c-1.2,2.3-3.7,3.4-7.5,3.2c-3.8-0.3-6.7-2.2-8.8-5.7c-1.1-1.8-1.7-4.1-1.8-7v-0.6c0-2.7,0.7-5.8,2-9.3c1.7-4.6,5.4-8.6,11.3-12.2
        c4.1-2.6,8.3-3.9,12.7-4c1.8,0,3.6,0.2,5.3,0.7c3.3,0.8,6.5,2.6,9.5,5.3s5.6,6.7,7.7,12c1.9,4.8,2.5,9.3,1.8,13.7
        c-0.6,4.3-1.9,8.5-4,12.3c-2.6,4.7-5.7,9-9.5,13s-7.2,7.7-10.3,11c-1.7,1.9-3.2,3.7-4.5,5.3c-1.2,1.7-2.1,3.2-2.7,4.7
        c2.9,0.2,6.3,1.1,10.2,2.7c3.9,1.7,7.5,3.1,10.8,4.2c1.9,0.6,3.6,0.9,5.2,1.2c1.6,0.2,2.8,0.1,3.8-0.3c0.9,1.4,1.3,3,1.3,4.7
        c0.1,0.1,0.2,0.3,0.2,0.5c-0.1,1.6-0.7,3.2-1.7,4.8c-0.6,0.1-1.2,0.2-1.8,0.2c-2,0-4.8-0.6-8.3-1.7c-4.9-1.6-10.2-3-16-4.3
        c-3.1-0.8-6.3-1.4-9.5-1.8s-6.3-0.6-9.2-0.3c-1,0.2-1.8,0.1-2.5-0.5s-1.3-1.5-1.8-2.8C752.9,220,753.3,216.9,754.4,213.7
        L754.4,213.7z"/>
    <path id="letra-s_1_" fill="#333333" d="M689.4,185.5c-0.1-0.8-0.1-1.4,0-2c1-0.9,1.9-2.5,2.8-4.8c0.9-2.4,0.7-3.7-0.7-3.7
        c-0.9,0-2.4,0.6-4.7,1.7c-2.1,1.2-3.2,3.1-3.3,5.5c-0.1,0.9,0.2,1.8,1,2.8c0.8,0.9,1.8,1.8,3,2.8c2.2,1.9,4.9,3.9,8,6
        c2.6,1.7,4.8,3.4,6.7,5.2c1.4-0.9,2.9-1.8,4.5-2.7c5.7-3.1,8.9-6.1,9.7-8.8c0.8-0.1,1.6-0.1,2.3,0c0.9,0,1.6,0.2,2,0.5
        c-0.8,2.3-2.5,4.7-5.2,7c-2.8,2.2-5.8,4.5-9.2,6.7c-0.3,0.2-0.7,0.4-1.2,0.7l1,1.7c0.7,1.2,1,2.4,1,3.7c-0.2,2.4-0.8,4.7-1.7,6.8
        s-2,4-3.3,5.7c-1.4,1.7-3.1,3.1-5,4.3c-1.8,1.2-3.6,2.2-5.5,2.8c-2,0.7-3.9,1.1-5.7,1.2c-1.3,0-2.6-0.2-3.8-0.7
        c-2.8-0.9-4.2-3.1-4.3-6.7c-0.1-2.6,1.1-5.1,3.5-7.7c1.9-1.9,4.2-3.8,6.8-5.7c-0.3-0.9-0.7-1.7-1.2-2.5c-1.1-1.7-2.3-3.3-3.7-4.8
        l-7.2-8.7c-2.3-2.8-3.5-6.5-3.5-11v-0.2c0-2.4,1.5-5,4.5-7.5c2.2-1.9,4.7-2.8,7.3-2.8c1,0,2,0.2,3,0.5c5.6,1.3,8.8,3.9,9.8,7.7
        c1,3.9-1.1,6.8-6.3,8.8C690.1,186.8,689.6,186.2,689.4,185.5L689.4,185.5z M683.9,224.5c1.9,0.8,3.5,0.2,4.8-1.7
        c0.7-1,1.1-2.4,1.3-4.3c0.2-1.7,0.1-3.8-0.5-6.5c-4.2,2.8-6.7,5.5-7.5,8.2C681.4,222.3,682,223.8,683.9,224.5z"/>
    <path id="letra-e_3_" fill="#333333" d="M652,217.7c1.9,0.1,4-0.6,6.3-2.2c2.2-1.6,4.4-3.6,6.7-6c3.3-3.7,6.3-7.6,8.8-11.8
        c2.7-4.3,4.2-7.4,4.7-9.2c0.8-0.1,1.5-0.1,2.2,0c0.8,0,1.4,0.3,2,0.8c-0.4,1.9-2.2,5.4-5.2,10.7c-2.9,5.2-6.6,10-11,14.2
        c-2.9,2.9-6,5.2-9.3,6.8c-2.4,1.2-4.8,1.8-7.2,1.8c-1.1,0-2.2-0.1-3.2-0.3c-5.9-1.2-10.4-3-13.5-5.3c-3.2-2.3-5.3-5-6.3-7.8
        c-0.7-1.8-1.1-3.6-1.2-5.5c0-2.7,0.7-5.5,2.2-8.3c2.3-4.9,5.7-9,10-12.3c2.3-1.9,4.9-3.4,7.7-4.5c2.7-1.1,5.4-1.8,8.2-2h0.3
        c2.7,0,4.4,1.4,5.2,4.2c0.8,2.9,0.6,6-0.7,9.3c-0.6,1.4-1.3,2.8-2.2,4.2c-0.9,1.3-2,2.5-3.3,3.5c-1.3,1.1-2.9,2-4.8,2.7l-2,0.7
        c-0.7,4.1-0.7,7.8,0,11.2C647,215.7,648.9,217.5,652,217.7L652,217.7z M655.3,186.8c1.1-2.4,1-4.1-0.3-5c-1-0.7-2.5,1.1-4.5,5.3
        c-1.2,2.6-2.2,5.2-2.8,7.8c0.8-0.4,1.5-0.9,2.2-1.5C652.5,191.4,654.3,189.2,655.3,186.8L655.3,186.8z"/>
    <path id="letra-r_1_" fill="#333333" d="M610.3,188.7c0.8,0.6,1.3,1.3,1.7,2.3c0.4,0.9,0.7,1.9,0.8,3.2c0.2,1.7,0.3,3.6,0.2,5.7
        l-0.7,6c-0.6,3.9-1,7.3-1.3,10.3c-0.3,3.1,0.1,4.8,1.3,5c1.4,0.1,3.4-1.4,5.8-4.7c2.6-3.2,5.1-6.9,7.5-11c1.6-2.8,2.9-5.6,4.2-8.3
        c1.2-2.7,2.1-5,2.7-7c0.9-0.1,1.7-0.2,2.3-0.2c0.8,0,1.4,0.3,2,1c-1.3,4.1-3.2,8.8-5.7,14.2c-2.6,5.3-5.6,9.9-9.2,13.7
        c-1.9,2-3.9,3.6-6.2,4.8c-2.2,1.3-4.6,2-7.2,2h-0.2c-3.2,0-5.8-0.5-7.7-1.5c-2-0.9-3.5-2.2-4.5-3.8c-2.2-3.8-2.4-8.6-0.5-14.5
        c1.9-5.8,4.1-10.3,6.5-13.7c-0.9-0.1-2.7-0.1-5.5,0.2s-5.4,0-7.8-1c-1.3-0.6-2.4-1.4-3.3-2.5c-1-1.1-1.6-2.7-1.8-4.7
        c-0.3-2.1-0.5-4.1-0.5-5.8c0-4.2,0.8-7.3,2.5-9.3c1.9-2.2,4.4-3.3,7.7-3.3c0.9,0,1.8,0.1,2.8,0.3c1.3,0.2,2.4,0.7,3.3,1.5
        c0.8,0.8,1.4,1.7,1.8,2.8c1.1,3.3,0.8,7.3-1,12c-0.8,2-1.6,3.7-2.3,5c1,0.2,2,0.3,3,0.2C603.3,187.2,606.4,187.6,610.3,188.7
        L610.3,188.7z M598.1,173.7c0.2-2.3-0.2-3.7-1.2-4c-1.1-0.2-2.2,2-3.2,6.7c-1.1,4.8-1.1,7.6,0,8.5c0.3,0.3,0.7,0.6,1,0.8
        c0.7-1.3,1.3-2.9,1.8-4.7C597.4,178.6,597.9,176.1,598.1,173.7L598.1,173.7z"/>
    <path id="letra-e_2_" fill="#333333" d="M566.9,217.7c1.9,0.1,4-0.6,6.3-2.2c2.2-1.6,4.4-3.6,6.7-6c3.3-3.7,6.3-7.6,8.8-11.8
        c2.7-4.3,4.2-7.4,4.7-9.2c0.8-0.1,1.5-0.1,2.2,0c0.8,0,1.4,0.3,2,0.8c-0.4,1.9-2.2,5.4-5.2,10.7c-2.9,5.2-6.6,10-11,14.2
        c-2.9,2.9-6,5.2-9.3,6.8c-2.4,1.2-4.8,1.8-7.2,1.8c-1.1,0-2.2-0.1-3.2-0.3c-5.9-1.2-10.4-3-13.5-5.3c-3.2-2.3-5.3-5-6.3-7.8
        c-0.7-1.8-1.1-3.6-1.2-5.5c0-2.7,0.7-5.5,2.2-8.3c2.3-4.9,5.7-9,10-12.3c2.3-1.9,4.9-3.4,7.7-4.5c2.7-1.1,5.4-1.8,8.2-2h0.3
        c2.7,0,4.4,1.4,5.2,4.2c0.8,2.9,0.6,6-0.7,9.3c-0.6,1.4-1.3,2.8-2.2,4.2c-0.9,1.3-2,2.5-3.3,3.5c-1.3,1.1-2.9,2-4.8,2.7l-2,0.7
        c-0.7,4.1-0.7,7.8,0,11.2C561.9,215.7,563.8,217.5,566.9,217.7L566.9,217.7z M570.3,186.8c1.1-2.4,1-4.1-0.3-5
        c-1-0.7-2.5,1.1-4.5,5.3c-1.2,2.6-2.2,5.2-2.8,7.8c0.8-0.4,1.5-0.9,2.2-1.5C567.4,191.4,569.3,189.2,570.3,186.8L570.3,186.8z"/>
    <path id="letra-l2_1_" fill="#333333" d="M519.2,200.9c1.1,7,2.3,13,3.7,17.8c1.3,4.9,2.6,7.3,3.8,7.3c2.4,0,5.1-2.2,8-6.5
        c2.9-4.4,5.4-9.1,7.7-14c1.6-3.3,2.9-6.4,4-9.2c1.1-2.9,1.9-5,2.3-6.2c0.7-0.2,1.4-0.3,2.2-0.3l2.3,0.3c-0.9,2.7-2.6,7.1-5,13.2
        c-2.3,6.2-5.4,11.9-9.2,17c-2.4,3.4-5.2,6.2-8.3,8.3c-2.4,1.8-5.1,2.7-8,2.7c-0.6,0-1.2-0.1-1.8-0.2c-4.7-0.7-8.6-2.4-11.7-5.2
        s-5.6-6.3-7.3-10.5c-2.8-6.5-4.2-14-4.2-22.7v-0.5c0-8.6,0.8-17,2.5-25.4c1-4.6,2.2-9,3.5-13.2s2.8-8.1,4.3-11.5
        c1-2.1,2.1-3.6,3.3-4.3c1.2-0.9,2.5-1.3,3.8-1.3h0.2c2.6,0.1,5,1.4,7.3,4c2.4,2.6,4.1,5.3,5,8.3c0.4,1.4,0.7,3.3,0.7,5.7
        s-0.2,5-0.7,7.8c-1,5.3-2.9,11.1-5.8,17.3c-1.2,2.7-2.7,5.2-4.5,7.5l0.3,1.7C518.1,193.1,518.7,197.1,519.2,200.9L519.2,200.9z
         M523.4,155.3c0.1-5.3-0.4-8.4-1.7-9.2c-2.6-1.8-4.2,0.6-4.8,7.2c-0.7,6.5-0.7,14.3-0.2,23.7c0.1,1.6,0.2,3.1,0.2,4.7
        c1.4-3.1,2.7-6.3,3.7-9.5C522.3,166.2,523.3,160.5,523.4,155.3z"/>
    <path id="letra-l1_1_" fill="#333333" d="M471.7,200.9c1.1,7,2.3,13,3.7,17.8c1.3,4.9,2.6,7.3,3.8,7.3c2.4,0,5.1-2.2,8-6.5
        c2.9-4.4,5.4-9.1,7.7-14c1.6-3.3,2.9-6.4,4-9.2c1.1-2.9,1.9-5,2.3-6.2c0.7-0.2,1.4-0.3,2.2-0.3l2.3,0.3c-0.9,2.7-2.6,7.1-5,13.2
        c-2.3,6.2-5.4,11.9-9.2,17c-2.4,3.4-5.2,6.2-8.3,8.3c-2.4,1.8-5.1,2.7-8,2.7c-0.6,0-1.2-0.1-1.8-0.2c-4.7-0.7-8.6-2.4-11.7-5.2
        s-5.6-6.3-7.3-10.5c-2.8-6.5-4.2-14-4.2-22.7v-0.5c0-8.6,0.8-17,2.5-25.4c1-4.6,2.2-9,3.5-13.2s2.8-8.1,4.3-11.5
        c1-2.1,2.1-3.6,3.3-4.3c1.2-0.9,2.5-1.3,3.8-1.3h0.2c2.6,0.1,5,1.4,7.3,4c2.4,2.6,4.1,5.3,5,8.3c0.4,1.4,0.7,3.3,0.7,5.7
        s-0.2,5-0.7,7.8c-1,5.3-2.9,11.1-5.8,17.3c-1.2,2.7-2.7,5.2-4.5,7.5l0.3,1.7C470.6,193.1,471.1,197.1,471.7,200.9L471.7,200.9z
         M475.8,155.3c0.1-5.3-0.4-8.4-1.7-9.2c-2.6-1.8-4.2,0.6-4.8,7.2c-0.7,6.5-0.7,14.3-0.2,23.7c0.1,1.6,0.2,3.1,0.2,4.7
        c1.4-3.1,2.7-6.3,3.7-9.5C474.8,166.2,475.7,160.5,475.8,155.3z"/>
    <path id="letra-a_1_" fill="#333333" d="M420.6,179.7c-0.1,0.8-0.5,1.2-1.2,1.2c-2.2-1.3-4.1-2.1-5.5-2.2c-1.4,0-2.6,0.5-3.5,1.5
        c-1.1,1.1-1.8,2.7-2.2,4.8c-0.4,2.2-0.6,4.5-0.5,6.8c0.1,3.7,0.6,7.1,1.5,10.3s1.8,4.9,2.7,5c1.1,0.3,2.3-1.1,3.7-4.3
        c1.3-3.1,2.6-6.5,3.7-10.2c0.9-3,1.7-5.8,2.3-8.3c0.7-2.6,1.1-4.1,1.2-4.7c1-5.1,3.3-7.9,6.8-8.3c0.8-0.2,1.6-0.3,2.3-0.3
        c2.1,0,3.3,0.6,3.7,1.8c0.4,1,0.7,4.1,0.7,9.3s0.2,10.6,0.5,16c0.2,4.4,0.7,8.3,1.3,11.7c0.6,3.4,1.4,5.2,2.7,5.3
        c1.4,0.1,3.1-1.4,4.8-4.7c1.9-3.1,3.6-6.6,5.2-10.3c1-2.4,1.9-4.8,2.7-7c0.8-2.3,1.3-4.1,1.7-5.2c0.7-0.2,1.3-0.3,2-0.3
        s1.3,0.2,2,0.5c-0.6,2.1-1.6,5.4-3,10c-1.4,4.4-3.3,8.6-5.5,12.5c-1.4,2.6-3.1,4.7-4.8,6.5c-1.7,1.6-3.4,2.3-5.3,2.3h-0.5
        c-4.1-0.2-7.5-1.6-10.2-4.2c-2.6-2.4-4.6-5.1-6-7.8c-0.8-1.4-1.4-2.8-1.8-4s-0.8-2.2-1-3c-0.6,2.3-1.5,4.5-2.8,6.5
        c-1.3,2.1-4.1,3.2-8.2,3.2c-2.3-0.1-4.3-0.6-5.8-1.5c-1.6-0.9-2.8-2.1-3.7-3.7c-1-1.7-1.6-3.6-1.8-5.7c-0.1-0.9-0.2-1.8-0.2-2.7
        c0-1.2,0.1-2.4,0.3-3.7c0.6-4.1,1.9-8,4.2-11.7c2.2-3.7,4.8-6,7.7-6.8c1.6-0.4,3.1-0.4,4.7,0c1.7,0.6,3.3,1.7,5,3.5
        C420.8,178.4,420.8,179,420.6,179.7L420.6,179.7z"/>
    <path id="letra-t_1_" fill="#333333" d="M375.2,169.5c0.3,4.1,0.7,8.5,1.2,13c0.2,3.4,0.6,6.9,1,10.3c0.3,3.3,0.7,6.6,1,9.8
        c0.8,5.7,1.6,10.5,2.3,14.3c0.9,3.8,1.9,5.6,3,5.5c2-0.1,4.3-2.1,6.8-5.8c2.4-3.8,4.7-7.9,6.7-12.3c1.3-2.9,2.5-5.6,3.5-8.2
        s1.7-4.4,2.2-5.7c0.6,0,1.2,0.1,2,0.2c0.7,0,1.3,0.3,1.8,0.8c-0.3,1.7-1.6,5.2-3.7,10.5s-4.6,10.3-7.5,15c-2,3.1-4,5.7-6,7.7
        c-1.9,1.8-3.7,2.7-5.5,2.7h-0.8c-6.3-1-11.5-3.1-15.3-6.3c-3.9-3.3-6.8-7.3-8.7-12c-1.6-3.9-2.6-8.1-3.2-12.5
        c-0.3-3.1-0.5-6.2-0.5-9.3c0-1.4,0.1-2.8,0.2-4.2c0.2-5,0.7-9.9,1.5-14.7c-2.9-0.1-5.9-0.2-9-0.3c-1.3-0.1-2-0.3-2-0.5
        c-0.1-0.1,0.2-0.3,1-0.7c1.9-0.8,3.2-1.3,3.8-1.7c0.3-0.6,1.6-0.9,3.8-1h3.2l1.3-5.3c2-7.7,3.7-13.2,5.2-16.5
        c0.7-1.4,1.4-2.2,2.2-2.2c0.7,0,1.4,0.6,2.2,1.8c1.7,2.4,3.2,4.2,4.7,5.3c0.2,1.7,0.6,5.9,1,12.7c0.1,1.3,0.2,2.7,0.2,4
        c1,0.2,2.1,0.5,3.2,0.8c2.3,0.9,4.6,1.3,6.7,1.3c0.1,0.4,0.2,1,0.2,1.7v0.3c-0.1,0.9-0.8,1.3-2.2,1.3h-7.5L375.2,169.5L375.2,169.5
        z"/>
</g>
<g>
    
        <path fill="none" stroke="#F2910A" stroke-width="2.8346" stroke-linecap="round" stroke-linejoin="round" stroke-miterlimit="10" d="
        M461.6,327.1c-1.7,7.7,1.2,23.6,1.2,23.6s-39.7-44.7-35.5-75.5"/>
    
        <path fill="none" stroke="#F2910A" stroke-width="2.8346" stroke-linecap="round" stroke-linejoin="round" stroke-miterlimit="10" d="
        M440.4,349.4c7.9-1,22.5,1.2,22.5,1.2"/>
</g>
<g>
    
        <path fill="none" stroke="#F2910A" stroke-width="2.8346" stroke-linecap="round" stroke-linejoin="round" stroke-miterlimit="10" d="
        M856.1,321.9c1.7,7.7-1.2,23.6-1.2,23.6s37-23.4,35.5-75.5"/>
    
        <path fill="none" stroke="#F2910A" stroke-width="2.8346" stroke-linecap="round" stroke-linejoin="round" stroke-miterlimit="10" d="
        M877.4,344.2c-7.9-1-22.5,1.2-22.5,1.2"/>
</g>
<path fill="none" stroke="#FFC52C" stroke-width="4.0106" stroke-linecap="round" stroke-linejoin="round" stroke-miterlimit="10" d="
    M333.5,231.3c-9.4,6.2-23.3,15.5-23.3,15.5"/>
<path fill="none" stroke="#283996" stroke-width="4.0106" stroke-linecap="round" stroke-linejoin="round" stroke-miterlimit="10" d="
    M340.6,246.5c-5.9,9.6-28.5,32.5-28.5,32.5"/>
<path fill="none" stroke="#25A55F" stroke-width="4.0106" stroke-linecap="round" stroke-linejoin="round" stroke-miterlimit="10" d="
    M361.9,255.5c-2.8,10.9-19.4,28.9-19.4,28.9"/>
<path fill="none" stroke="#283996" stroke-width="4.0106" stroke-linecap="round" stroke-linejoin="round" stroke-miterlimit="10" d="
    M365.8,113.8c-3.1-10.8-3.1-21.7-3.1-21.7"/>
<path fill="none" stroke="#25A55F" stroke-width="4.0106" stroke-linecap="round" stroke-linejoin="round" stroke-miterlimit="10" d="
    M349.2,116c-7.3-8.5-15.9-27.6-15.9-27.6"/>
<path fill="none" stroke="#FFC52C" stroke-width="4.0106" stroke-linecap="round" stroke-linejoin="round" stroke-miterlimit="10" d="
    M334.2,133.6c-9.6-5.9-19.5-16.5-19.5-16.5"/>
<path fill="none" stroke="#283996" stroke-width="4.0106" stroke-linecap="round" stroke-linejoin="round" stroke-miterlimit="10" d="
    M1013.9,146.6c8.8-7.1,28.1-15.1,28.1-15.1"/>
<path fill="none" stroke="#FFC52C" stroke-width="4.0106" stroke-linecap="round" stroke-linejoin="round" stroke-miterlimit="10" d="
    M1004.6,127.6c12-17.6,34.9-30.8,34.9-30.8"/>
<path fill="none" stroke="#25A55F" stroke-width="4.0106" stroke-linecap="round" stroke-linejoin="round" stroke-miterlimit="10" d="
    M986,113.9c5.2-10,19.7-25.1,19.7-25.1"/>
<path fill="none" stroke="#FFC52C" stroke-width="4.0106" stroke-linecap="round" stroke-linejoin="round" stroke-miterlimit="10" d="
    M975.4,249.2c3.8,10.6,5.2,31.5,5.2,31.5"/>
<path fill="none" stroke="#25A55F" stroke-width="4.0106" stroke-linecap="round" stroke-linejoin="round" stroke-miterlimit="10" d="
    M991.8,245.9c7.9,8,17.7,26.5,17.7,26.5"/>
<path fill="none" stroke="#283996" stroke-width="4.0106" stroke-linecap="round" stroke-linejoin="round" stroke-miterlimit="10" d="
    M1005.7,227.4c9.9,5.3,24.9,19.9,24.9,19.9"/>
<g>
    <path d="M501.3,289.1c-0.2-0.3-0.3-0.6-0.4-0.9c0.3-0.3,0.5-0.9,0.6-1.9c0.1-0.9-0.3-1.3-1-1c-0.5,0.2-0.9,0.9-1.3,2.2
        c-0.3,1.3-0.4,2.7-0.4,4.2c0,1.8,0.3,3.5,0.8,5.1c0.5,1.5,1.4,2.1,2.6,1.8c0.6-0.2,1.2-0.5,1.8-0.9c0.6-0.5,1.2-1,1.8-1.6
        c1-1.1,2-2.4,2.8-3.7c0.8-1.4,1.3-2.4,1.5-3.1c0.3-0.1,0.5-0.2,0.8-0.2c0.3,0,0.5,0.1,0.8,0.2c-0.2,0.9-0.8,2.4-1.9,4.6
        s-2.6,3.8-4.3,5.1c-0.8,0.6-1.5,1-2.4,1.3c-0.5,0.1-0.9,0.2-1.4,0.2c-0.4,0-0.8,0-1.2-0.1c-2.3-0.5-4-1.3-5.3-2.3s-2.2-2.1-2.8-3.3
        c-0.4-0.8-0.6-1.7-0.6-2.6v-0.4c0-0.8,0.1-1.5,0.3-2.1c0.5-2,1.6-3.6,3.3-4.9c1.1-0.8,2.3-1.3,3.5-1.3c0.6,0,1.3,0.1,1.9,0.3
        c1.3,0.4,2,1.4,2.1,2.8c0.2,1.5,0,2.5-0.6,3.1C501.8,289.5,501.5,289.4,501.3,289.1z"/>
    <path d="M515.8,283.4c0.6,0,1.1,0.3,1.4,0.9c0.1,0.3,0.2,0.5,0.3,0.6c0.5-0.3,1-0.4,1.8-0.3c1,0.2,1.8,1.1,2.4,2.8s0.8,3.5,0.7,5.4
        c1.1,0,2.1-0.5,3-1.3c1.1-0.9,1.8-1.9,2-2.8c0.2,0,0.4,0,0.6,0c0.3,0,0.5,0.1,0.7,0.1c-0.3,1.1-1.1,2.3-2.6,3.6
        c-1.3,1.1-2.5,1.6-3.9,1.7c-0.1,0.8-0.3,1.6-0.5,2.4c-0.3,1.2-0.8,2.1-1.5,2.8c-0.4,0.4-0.9,0.7-1.4,0.9c-0.3,0.1-0.6,0.2-1,0.2
        c-0.3,0-0.5,0-0.8-0.1c-3.3-0.7-5.6-2.1-7-4.2c-1-1.4-1.4-2.8-1.4-4.3c0-0.8,0.1-1.5,0.4-2.3c0.4-1.2,1.1-2.4,2.1-3.4
        c1-1.1,2.4-2,4.1-2.8C515.3,283.4,515.6,283.4,515.8,283.4z M514.5,292.4c-0.1,0.9-0.2,1.7-0.1,2.4c0.1,1.5,0.4,2.6,1,3.6
        c0.6,1,1.4,1.3,2.4,1c0.3-0.1,0.6-0.8,0.9-2c0.3-1.2,0.5-2.5,0.7-3.9c-0.6-0.3-1.1-0.7-1.6-1.2s-0.8-0.9-1-1.4
        c-0.2-0.5-0.4-1.1-0.5-1.6c-0.1-0.5-0.1-0.9-0.1-1.3c-0.5,0.6-0.8,1.3-1.1,2C514.8,290.7,514.6,291.5,514.5,292.4z M519.1,285.8
        c-0.3,0.3-0.6,0.5-0.8,0.9c-0.2,0.3-0.3,0.6-0.3,1c-0.1,1.1,0.2,2.2,1.1,3.3c0.1,0.2,0.3,0.4,0.4,0.6c0.1-1.4,0.2-2.6,0.2-3.8
        C519.8,286.2,519.5,285.5,519.1,285.8z"/>
    <path d="M533,288.6c0.2-1.9,0.6-3.5,1.4-4.6c0.3-0.4,0.5-0.7,0.9-0.9c0.3-0.2,0.7-0.3,1.2-0.4h0.1c0.9,0,1.7,0.2,2.4,0.7
        s1.2,1.1,1.7,1.8c0.4,0.7,0.8,1.4,1,2.3c0.3,0.8,0.5,1.7,0.6,2.6c0.3,2.1,0.5,4.1,0.6,5.9c0,1.8,0.3,2.8,0.6,2.8
        c0.3,0,0.8-0.6,1.5-1.7s1.3-2.3,1.9-3.6c0.4-0.8,0.7-1.6,1-2.3c0.3-0.8,0.5-1.3,0.6-1.6c0.2,0,0.5-0.1,0.8-0.1c0.3,0,0.5,0,0.8,0.2
        c-0.2,0.6-0.6,1.7-1.2,3.2c-0.6,1.5-1.3,2.9-2.1,4.2c-0.5,0.9-1.1,1.6-1.7,2.3c-0.6,0.6-1.2,0.9-1.8,0.9c-1,0-1.8-0.3-2.5-0.8
        s-1.2-1.1-1.6-1.8c-0.4-0.7-0.8-1.5-1-2.4c-0.3-0.8-0.4-1.7-0.6-2.6c-0.3-2.1-0.5-4.1-0.5-5.9c0-1.8-0.3-2.7-0.7-2.7
        c-0.6,0.1-1.1,1.1-1.3,3s-0.4,4-0.5,6.1c-0.1,1.8-0.1,3.4-0.1,4.8c0,1.5-0.1,2.3-0.1,2.6c-0.2,0.4-0.6,0.5-1.1,0.5
        c-0.4,0-0.8-0.1-1.3-0.2c-1.3-0.4-2-0.9-2.3-1.6c0-0.3-0.2-0.9-0.6-1.9c-0.3-1-0.7-2.2-1.2-3.4c-0.5-1.5-1.1-3-1.6-4.4
        s-0.8-2.4-0.9-2.8c0.3-0.4,1.2-0.8,2.5-1.2c1.4-0.4,2.4-0.2,3.2,0.6c0.3,0.5,0.6,1.5,0.9,3.1c0.3,1.5,0.5,2.6,0.7,3.3
        C532.7,291.8,532.9,290.5,533,288.6z"/>
    <path d="M553.5,283.4c0.6,0,1.1,0.3,1.4,0.9c0.1,0.3,0.2,0.5,0.3,0.6c0.5-0.3,1-0.4,1.8-0.3c1,0.2,1.8,1.1,2.4,2.8s0.8,3.5,0.7,5.4
        c1.1,0,2.1-0.5,3-1.3c1.1-0.9,1.8-1.9,2-2.8c0.2,0,0.4,0,0.6,0c0.3,0,0.5,0.1,0.7,0.1c-0.3,1.1-1.1,2.3-2.6,3.6
        c-1.3,1.1-2.5,1.6-3.9,1.7c-0.1,0.8-0.3,1.6-0.5,2.4c-0.3,1.2-0.8,2.1-1.5,2.8c-0.4,0.4-0.9,0.7-1.4,0.9c-0.3,0.1-0.6,0.2-1,0.2
        c-0.3,0-0.5,0-0.8-0.1c-3.3-0.7-5.6-2.1-7-4.2c-1-1.4-1.4-2.8-1.4-4.3c0-0.8,0.1-1.5,0.4-2.3c0.4-1.2,1.1-2.4,2.1-3.4
        s2.4-2,4.1-2.8C552.9,283.4,553.2,283.4,553.5,283.4z M552.1,292.4c-0.1,0.9-0.2,1.7-0.1,2.4c0.1,1.5,0.4,2.6,1,3.6
        c0.6,1,1.4,1.3,2.4,1c0.3-0.1,0.6-0.8,0.9-2c0.3-1.2,0.5-2.5,0.7-3.9c-0.6-0.3-1.1-0.7-1.6-1.2s-0.8-0.9-1-1.4
        c-0.2-0.5-0.4-1.1-0.5-1.6c-0.1-0.5-0.1-0.9-0.1-1.3c-0.5,0.6-0.8,1.3-1.1,2C552.4,290.7,552.2,291.5,552.1,292.4z M556.7,285.8
        c-0.3,0.3-0.6,0.5-0.8,0.9c-0.2,0.3-0.3,0.6-0.3,1c-0.1,1.1,0.2,2.2,1.1,3.3c0.1,0.2,0.3,0.4,0.4,0.6c0.1-1.4,0.2-2.6,0.2-3.8
        C557.4,286.2,557.2,285.5,556.7,285.8z"/>
    <path d="M572.4,289.1c-0.2-0.3-0.3-0.6-0.4-0.9c0.3-0.3,0.5-0.9,0.6-1.9c0.1-0.9-0.3-1.3-1-1c-0.5,0.2-0.9,0.9-1.3,2.2
        c-0.3,1.3-0.4,2.7-0.4,4.2c0,1.8,0.3,3.5,0.8,5.1c0.5,1.5,1.4,2.1,2.6,1.8c0.6-0.2,1.2-0.5,1.8-0.9c0.6-0.5,1.2-1,1.8-1.6
        c1-1.1,2-2.4,2.8-3.7c0.8-1.4,1.3-2.4,1.5-3.1c0.3-0.1,0.5-0.2,0.8-0.2c0.3,0,0.5,0.1,0.8,0.2c-0.2,0.9-0.8,2.4-1.9,4.6
        s-2.6,3.8-4.3,5.1c-0.8,0.6-1.5,1-2.4,1.3c-0.5,0.1-0.9,0.2-1.4,0.2c-0.4,0-0.8,0-1.2-0.1c-2.3-0.5-4-1.3-5.3-2.3s-2.2-2.1-2.8-3.3
        c-0.4-0.8-0.6-1.7-0.6-2.6v-0.4c0-0.8,0.1-1.5,0.3-2.1c0.5-2,1.6-3.6,3.3-4.9c1.1-0.8,2.3-1.3,3.5-1.3c0.6,0,1.3,0.1,1.9,0.3
        c1.3,0.4,2,1.4,2.1,2.8c0.2,1.5,0,2.5-0.6,3.1C572.9,289.5,572.6,289.4,572.4,289.1z"/>
    <path d="M588.5,299.9c0.7,0.1,1.5-0.2,2.4-0.8c0.8-0.6,1.7-1.3,2.5-2.3c1.3-1.4,2.4-2.9,3.3-4.4c1-1.6,1.6-2.8,1.8-3.4
        c0.3,0,0.6,0,0.8,0c0.3,0,0.5,0.1,0.8,0.3c-0.2,0.8-0.8,2.1-1.9,4c-1.1,2-2.5,3.7-4.1,5.3c-1.1,1.1-2.3,1.9-3.5,2.6
        c-0.9,0.5-1.8,0.7-2.7,0.7c-0.4,0-0.8,0-1.2-0.1c-2.2-0.5-3.9-1.1-5.1-2c-1.2-0.9-2-1.9-2.4-2.9c-0.3-0.6-0.4-1.3-0.4-2
        c0-0.3,0-0.5,0.1-0.8c0.1-1,0.4-1.9,0.9-2.9c0.9-1.7,2.2-3.2,3.9-4.5c1.8-1.3,3.6-2,5.6-2.1h0.1c1,0,1.6,0.5,1.9,1.6
        c0.3,1.1,0.2,2.3-0.3,3.5c-0.2,0.5-0.5,1.1-0.8,1.6s-0.8,0.9-1.3,1.3c-0.5,0.4-1.1,0.8-1.8,1l-0.8,0.3c-0.2,1.1-0.3,2.3-0.2,3.4
        C586.2,298.9,587,299.8,588.5,299.9z M586.1,281.4v-0.6c0-0.8,0.2-1.6,0.6-2.4c0.2-0.4,0.5-0.8,0.9-1.1s0.9-0.6,1.4-0.8
        c0.2-0.1,0.3-0.1,0.5-0.1c0.4,0,0.8,0.2,1,0.6c0.4,0.5,0.8,1,1,1.6c-0.4,0.1-0.7,0.3-1.1,0.6c-0.3,0.3-0.6,0.6-0.9,1
        c-0.5,0.7-1,1.3-1.5,1.9c-0.4,0.6-0.8,0.9-1.2,0.9h-0.1C586.5,283,586.3,282.4,586.1,281.4z M589.7,288.3c0.4-0.9,0.4-1.5-0.1-1.9
        c-0.3-0.2-0.8,0.2-1.3,1.3c-0.5,1-1,2.3-1.4,3.6c0.3-0.2,0.6-0.4,0.8-0.6C588.6,290.1,589.3,289.2,589.7,288.3z"/>
    <path d="M617.3,281.8c0.1,1.5,0.3,3.2,0.4,4.9c0.1,1.3,0.2,2.6,0.4,3.9c0.1,1.3,0.3,2.5,0.4,3.7c0.3,2.1,0.6,3.9,0.9,5.4
        c0.3,1.4,0.7,2.1,1.1,2.1c0.8,0,1.6-0.8,2.6-2.2c0.9-1.4,1.8-3,2.5-4.6c0.5-1.1,0.9-2.1,1.3-3.1s0.6-1.7,0.8-2.1
        c0.2,0,0.5,0,0.8,0.1c0.3,0,0.5,0.1,0.7,0.3c-0.1,0.6-0.6,1.9-1.4,3.9s-1.7,3.9-2.8,5.6c-0.8,1.2-1.5,2.1-2.3,2.9
        c-0.7,0.7-1.4,1-2.1,1h-0.3c-2.4-0.4-4.3-1.2-5.8-2.4c-1.5-1.3-2.5-2.8-3.3-4.5c-0.6-1.5-1-3-1.2-4.7c-0.1-1.2-0.2-2.3-0.2-3.5
        c0-0.5,0-1.1,0.1-1.6c0.1-1.9,0.3-3.7,0.6-5.5c-1.1,0-2.2-0.1-3.4-0.1c-0.5,0-0.8-0.1-0.8-0.2c0,0,0.1-0.1,0.4-0.3
        c0.7-0.3,1.2-0.5,1.4-0.6c0.1-0.2,0.6-0.3,1.4-0.4h1.2l0.5-2c0.8-2.9,1.4-4.9,1.9-6.2c0.3-0.5,0.5-0.8,0.8-0.8
        c0.3,0,0.5,0.2,0.8,0.7c0.6,0.9,1.2,1.6,1.8,2c0.1,0.6,0.2,2.2,0.4,4.8c0,0.5,0.1,1,0.1,1.5c0.4,0.1,0.8,0.2,1.2,0.3
        c0.9,0.3,1.7,0.5,2.5,0.5c0,0.2,0.1,0.4,0.1,0.6v0.1c0,0.3-0.3,0.5-0.8,0.5H617.3z"/>
    <path d="M633.3,283.4c0.6,0,1.1,0.3,1.4,0.9c0.1,0.3,0.2,0.5,0.3,0.6c0.5-0.3,1-0.4,1.8-0.3c1,0.2,1.8,1.1,2.4,2.8s0.8,3.5,0.7,5.4
        c1.1,0,2.1-0.5,3-1.3c1.1-0.9,1.8-1.9,2-2.8c0.2,0,0.4,0,0.6,0c0.3,0,0.5,0.1,0.7,0.1c-0.3,1.1-1.1,2.3-2.6,3.6
        c-1.3,1.1-2.5,1.6-3.9,1.7c-0.1,0.8-0.3,1.6-0.5,2.4c-0.3,1.2-0.8,2.1-1.5,2.8c-0.4,0.4-0.9,0.7-1.4,0.9c-0.3,0.1-0.6,0.2-1,0.2
        c-0.3,0-0.5,0-0.8-0.1c-3.3-0.7-5.6-2.1-7-4.2c-1-1.4-1.4-2.8-1.4-4.3c0-0.8,0.1-1.5,0.4-2.3c0.4-1.2,1.1-2.4,2.1-3.4
        s2.4-2,4.1-2.8C632.8,283.4,633,283.4,633.3,283.4z M631.9,292.4c-0.1,0.9-0.2,1.7-0.1,2.4c0.1,1.5,0.4,2.6,1,3.6
        c0.6,1,1.4,1.3,2.4,1c0.3-0.1,0.6-0.8,0.9-2c0.3-1.2,0.5-2.5,0.7-3.9c-0.6-0.3-1.1-0.7-1.6-1.2s-0.8-0.9-1-1.4
        c-0.2-0.5-0.4-1.1-0.5-1.6c-0.1-0.5-0.1-0.9-0.1-1.3c-0.5,0.6-0.8,1.3-1.1,2C632.2,290.7,632,291.5,631.9,292.4z M636.5,285.8
        c-0.3,0.3-0.6,0.5-0.8,0.9c-0.2,0.3-0.3,0.6-0.3,1c-0.1,1.1,0.2,2.2,1.1,3.3c0.1,0.2,0.3,0.4,0.4,0.6c0.1-1.4,0.2-2.6,0.2-3.8
        C637.2,286.2,637,285.5,636.5,285.8z"/>
    <path d="M650.7,273.8c-0.1-2.3,0-3.6,0.3-4c0.4-0.5,0.9-0.8,1.4-0.8c0.4,0,0.9,0.2,1.3,0.5c1.1,0.8,1.8,1.6,2.2,2.6
        c0.4,1,0.7,2.7,1.1,4.9s0.6,4.7,0.9,7.3c0.2,1.4,0.3,2.8,0.4,4.1s0.3,2.7,0.4,3.9c0.3,2.3,0.5,4.2,0.8,5.8c0.3,1.5,0.6,2.3,0.9,2.3
        c0.5,0,1.2-0.7,1.9-1.9c0.7-1.3,1.3-2.6,1.9-4.1c0.4-1,0.8-1.9,1.1-2.8s0.5-1.5,0.6-2c0.3-0.1,0.5-0.1,0.8-0.1
        c0.3,0.1,0.5,0.2,0.8,0.3c-0.2,0.8-0.6,2-1.2,3.8c-0.5,1.7-1.2,3.2-2.1,4.7c-0.6,1-1.2,1.8-1.8,2.5c-0.7,0.7-1.4,1-2.1,1h-0.3
        c-0.8,0-1.4-0.1-2.1-0.4c-0.7-0.3-1.3-0.6-1.8-1c-1-0.8-1.8-1.8-2.3-2.9c-0.5-1-0.9-1.8-1.1-2.3c-0.1,0.8-0.4,1.5-1,2.1
        c-0.6,0.5-1.4,0.9-2.4,0.9c-1,0.1-1.8,0-2.4-0.3c-0.7-0.3-1.2-0.7-1.6-1.3s-0.7-1.3-0.9-2.1c-0.2-0.7-0.3-1.3-0.3-2
        c0-0.2,0-0.3,0.1-0.5c0.1-1.6,0.5-3.2,1.2-4.7c0.8-1.5,1.7-2.4,2.8-2.9c0.6-0.2,1.2-0.2,1.9-0.1c0.5,0.1,1,0.3,1.4,0.7
        c-0.1-1.3-0.2-2.7-0.3-4.1C651,278.5,650.8,276.1,650.7,273.8z M648.3,286.9c-0.5,0.5-0.8,1.1-0.9,1.9c-0.2,0.8-0.2,1.6-0.2,2.5
        c0.1,1.3,0.4,2.6,0.8,3.8c0.4,1.2,0.9,1.8,1.3,2c0.6,0.2,1.1-0.1,1.4-0.9c0.4-0.8,0.7-1.8,0.9-2.9c0.1-0.6,0.1-1.2,0.2-1.8
        s0.1-1.2,0.1-1.7c-0.1-0.8-0.2-1.8-0.3-3c-0.8-0.3-1.4-0.5-1.9-0.4C649.2,286.4,648.7,286.6,648.3,286.9z"/>
    <path d="M672.1,283.4c0.6,0,1.1,0.3,1.4,0.9c0.1,0.3,0.2,0.5,0.3,0.6c0.5-0.3,1-0.4,1.8-0.3c1,0.2,1.8,1.1,2.4,2.8s0.8,3.5,0.7,5.4
        c1.1,0,2.1-0.5,3-1.3c1.1-0.9,1.8-1.9,2-2.8c0.2,0,0.4,0,0.6,0c0.3,0,0.5,0.1,0.7,0.1c-0.3,1.1-1.1,2.3-2.6,3.6
        c-1.3,1.1-2.5,1.6-3.9,1.7c-0.1,0.8-0.3,1.6-0.5,2.4c-0.3,1.2-0.8,2.1-1.5,2.8c-0.4,0.4-0.9,0.7-1.4,0.9c-0.3,0.1-0.6,0.2-1,0.2
        c-0.3,0-0.5,0-0.8-0.1c-3.3-0.7-5.6-2.1-7-4.2c-1-1.4-1.4-2.8-1.4-4.3c0-0.8,0.1-1.5,0.4-2.3c0.4-1.2,1.1-2.4,2.1-3.4
        s2.4-2,4.1-2.8C671.6,283.4,671.9,283.4,672.1,283.4z M670.8,292.4c-0.1,0.9-0.2,1.7-0.1,2.4c0.1,1.5,0.4,2.6,1,3.6
        c0.6,1,1.4,1.3,2.4,1c0.3-0.1,0.6-0.8,0.9-2c0.3-1.2,0.5-2.5,0.7-3.9c-0.6-0.3-1.1-0.7-1.6-1.2s-0.8-0.9-1-1.4
        c-0.2-0.5-0.4-1.1-0.5-1.6c-0.1-0.5-0.1-0.9-0.1-1.3c-0.5,0.6-0.8,1.3-1.1,2C671.1,290.7,670.9,291.5,670.8,292.4z M675.4,285.8
        c-0.3,0.3-0.6,0.5-0.8,0.9c-0.2,0.3-0.3,0.6-0.3,1c-0.1,1.1,0.2,2.2,1.1,3.3c0.1,0.2,0.3,0.4,0.4,0.6c0.1-1.4,0.2-2.6,0.2-3.8
        C676.1,286.2,675.9,285.5,675.4,285.8z"/>
    <path d="M687.6,287.8c0-0.3,0-0.5,0-0.8c0.4-0.3,0.7-0.9,1.1-1.8c0.3-0.9,0.3-1.4-0.3-1.4c-0.3,0-0.9,0.2-1.8,0.6
        c-0.8,0.5-1.2,1.1-1.3,2.1c0,0.3,0.1,0.7,0.4,1.1c0.3,0.3,0.7,0.7,1.1,1.1c0.8,0.7,1.8,1.5,3,2.3c1,0.6,1.8,1.3,2.5,1.9
        c0.5-0.3,1.1-0.7,1.7-1c2.1-1.2,3.3-2.3,3.6-3.3c0.3,0,0.6,0,0.9,0c0.3,0,0.6,0.1,0.8,0.2c-0.3,0.9-0.9,1.8-1.9,2.6
        c-1,0.8-2.2,1.7-3.4,2.5c-0.1,0.1-0.3,0.2-0.4,0.3l0.4,0.6c0.3,0.5,0.4,0.9,0.4,1.4c-0.1,0.9-0.3,1.8-0.6,2.6s-0.8,1.5-1.3,2.1
        c-0.5,0.6-1.2,1.2-1.9,1.6c-0.7,0.5-1.4,0.8-2.1,1.1c-0.8,0.3-1.5,0.4-2.1,0.4c-0.5,0-1-0.1-1.4-0.3c-1-0.3-1.6-1.2-1.6-2.5
        c0-1,0.4-1.9,1.3-2.9c0.7-0.7,1.6-1.4,2.6-2.1c-0.1-0.3-0.3-0.6-0.4-0.9c-0.4-0.6-0.9-1.2-1.4-1.8c-0.9-1.1-1.8-2.2-2.7-3.3
        c-0.9-1-1.3-2.4-1.3-4.1V286c0-0.9,0.6-1.9,1.7-2.8c0.8-0.7,1.8-1.1,2.8-1.1c0.4,0,0.8,0.1,1.1,0.2c2.1,0.5,3.3,1.5,3.7,2.9
        c0.4,1.5-0.4,2.6-2.4,3.3C687.9,288.3,687.7,288.1,687.6,287.8z M685.5,302.4c0.7,0.3,1.3,0.1,1.8-0.6c0.3-0.4,0.4-0.9,0.5-1.6
        c0.1-0.6,0-1.4-0.2-2.4c-1.6,1-2.5,2.1-2.8,3.1C684.6,301.6,684.8,302.2,685.5,302.4z"/>
    <path d="M717.6,293.6c0.4,2.6,0.9,4.9,1.4,6.7s1,2.8,1.4,2.8c0.9,0,1.9-0.8,3-2.4c1.1-1.7,2-3.4,2.9-5.3c0.6-1.3,1.1-2.4,1.5-3.4
        c0.4-1.1,0.7-1.9,0.9-2.3c0.3-0.1,0.5-0.1,0.8-0.1l0.9,0.1c-0.3,1-1,2.6-1.9,4.9c-0.9,2.3-2,4.5-3.4,6.4c-0.9,1.3-2,2.3-3.1,3.1
        c-0.9,0.7-1.9,1-3,1c-0.2,0-0.4,0-0.7-0.1c-1.8-0.3-3.2-0.9-4.4-1.9s-2.1-2.4-2.8-3.9c-1-2.4-1.6-5.3-1.6-8.5v-0.2
        c0-3.2,0.3-6.4,0.9-9.5c0.4-1.7,0.8-3.4,1.3-4.9s1-3,1.6-4.3c0.4-0.8,0.8-1.3,1.3-1.6c0.5-0.3,0.9-0.5,1.4-0.5h0.1
        c1,0,1.9,0.5,2.8,1.5c0.9,1,1.5,2,1.9,3.1c0.2,0.5,0.3,1.3,0.3,2.1s-0.1,1.9-0.3,2.9c-0.4,2-1.1,4.2-2.2,6.5c-0.5,1-1,1.9-1.7,2.8
        l0.1,0.6C717.2,290.7,717.4,292.2,717.6,293.6z M719.2,276.5c0-2-0.2-3.1-0.6-3.4c-1-0.7-1.6,0.2-1.8,2.7c-0.3,2.4-0.3,5.4-0.1,8.9
        c0,0.6,0.1,1.2,0.1,1.8c0.5-1.2,1-2.4,1.4-3.6C718.8,280.6,719.2,278.5,719.2,276.5z"/>
    <path d="M734,283.4c0.6,0,1.1,0.3,1.4,0.9c0.1,0.3,0.2,0.5,0.3,0.6c0.5-0.3,1-0.4,1.8-0.3c1,0.2,1.8,1.1,2.4,2.8s0.8,3.5,0.7,5.4
        c1.1,0,2.1-0.5,3-1.3c1.1-0.9,1.8-1.9,2-2.8c0.2,0,0.4,0,0.6,0c0.3,0,0.5,0.1,0.7,0.1c-0.3,1.1-1.1,2.3-2.6,3.6
        c-1.3,1.1-2.5,1.6-3.9,1.7c-0.1,0.8-0.3,1.6-0.5,2.4c-0.3,1.2-0.8,2.1-1.5,2.8c-0.4,0.4-0.9,0.7-1.4,0.9c-0.3,0.1-0.6,0.2-1,0.2
        c-0.3,0-0.5,0-0.8-0.1c-3.3-0.7-5.6-2.1-7-4.2c-1-1.4-1.4-2.8-1.4-4.3c0-0.8,0.1-1.5,0.4-2.3c0.4-1.2,1.1-2.4,2.1-3.4
        s2.4-2,4.1-2.8C733.5,283.4,733.8,283.4,734,283.4z M732.6,292.4c-0.1,0.9-0.2,1.7-0.1,2.4c0.1,1.5,0.4,2.6,1,3.6
        c0.6,1,1.4,1.3,2.4,1c0.3-0.1,0.6-0.8,0.9-2c0.3-1.2,0.5-2.5,0.7-3.9c-0.6-0.3-1.1-0.7-1.6-1.2s-0.8-0.9-1-1.4
        c-0.2-0.5-0.4-1.1-0.5-1.6c-0.1-0.5-0.1-0.9-0.1-1.3c-0.5,0.6-0.8,1.3-1.1,2C733,290.7,732.8,291.5,732.6,292.4z M737.3,285.8
        c-0.3,0.3-0.6,0.5-0.8,0.9c-0.2,0.3-0.3,0.6-0.3,1c-0.1,1.1,0.2,2.2,1.1,3.3c0.1,0.2,0.3,0.4,0.4,0.6c0.1-1.4,0.2-2.6,0.2-3.8
        C738,286.2,737.7,285.5,737.3,285.8z"/>
    <path d="M766,284.6c-0.1,0.3-0.3,0.4-0.5,0.4c-0.7-0.6-1.3-0.9-1.8-1s-0.9,0-1.3,0.4c-0.4,0.3-0.8,0.9-1,1.7
        c-0.2,0.8-0.4,1.6-0.4,2.6c-0.1,1.3-0.1,2.6,0.1,3.9c0.2,1.2,0.4,1.9,0.7,2c0.3,0.1,0.7-0.2,1.2-0.9c0.5-0.8,1-1.7,1.4-2.8
        c0.6-1.3,1.1-2.6,1.6-3.8c0.5-1.3,0.8-2.1,0.8-2.3c0.6-1.8,1.5-2.8,2.8-2.8c0.1,0,0.2-0.1,0.3-0.1c1,0,1.6,0.3,1.8,0.8
        c0.1,0.3-0.1,1.8-0.4,4.5c-0.3,2.4-0.7,5-1.1,7.9c0.2-0.1,0.4-0.2,0.7-0.3c0.7-0.3,1.4-0.7,2.1-1.2c1-0.8,1.9-1.5,2.7-2.3
        c0.8-0.8,1.2-1.3,1.3-1.6c0.3,0,0.5,0,0.9,0c0.3,0,0.6,0.1,0.8,0.3c-0.1,0.3-0.6,0.8-1.4,1.6c-0.9,0.8-1.8,1.6-2.9,2.4
        c-0.7,0.5-1.4,1-2.1,1.5s-1.2,0.8-1.7,1c0,0,0.3,0.9,0.8,2.7c0.5,1.7,0.8,3.6,1.1,5.8c0.2,1.4,0.2,2.8,0.2,4.1
        c0,1.3-0.3,2.5-0.7,3.4c-0.4,0.8-0.9,1.3-1.6,1.6c-0.3,0.2-0.8,0.3-1.3,0.3c-0.5,0-1-0.1-1.5-0.2c-0.6-0.2-1.1-0.5-1.6-1
        c-0.4-0.5-0.8-1-1.1-1.8c-0.3-1-0.5-2.1-0.6-3.4c-0.1-1.3-0.1-2.7-0.1-4.1c0.2-2.6,0.4-5,0.8-7.4c0.4-2.3,0.6-3.6,0.6-4.1
        c-0.3,0.8-0.8,1.6-1.4,2.3c-0.6,0.8-1.6,1-3.1,0.8c-0.9-0.1-1.6-0.4-2.1-0.8s-1-0.9-1.3-1.5c-0.3-0.7-0.4-1.4-0.4-2.1
        c0-0.8,0.1-1.6,0.3-2.4c0.4-1.5,1.1-2.9,2.1-4.1c1-1.3,2.1-2,3.2-2.3c0.6-0.1,1.2,0,1.8,0.3s1.1,0.7,1.7,1.4
        C766.1,284.2,766.1,284.4,766,284.6z M767.9,310.1c-0.1,0.9-0.1,1.6-0.2,2.1c0,0.5,0,0.8,0.1,0.8c0.3,0.1,0.9-0.1,1.7-0.7
        s1.2-2,1.3-4.3c0-1.3-0.2-2.9-0.6-4.8c-0.2-1.1-0.5-2.3-0.9-3.7c-0.2,1.5-0.4,2.9-0.6,4.3C768.3,306.4,768.1,308.5,767.9,310.1z"/>
    <path d="M782.4,287.8c0,0.9-0.1,1.9-0.1,3.1c0,1.7,0,3.3,0.1,4.8c0,1.5,0.2,2.2,0.6,2.3s0.6-0.2,0.9-0.9c0.3-0.7,0.5-1.5,0.8-2.5
        c0.3-1.2,0.5-2.4,0.7-3.6s0.3-1.9,0.3-2.1c0.4-1.9,1.3-3,2.6-3.2c1.3-0.2,2,0,2.1,0.6c0.2,0.3,0.3,1,0.4,2s0.2,2.2,0.3,3.4
        c0.2,1.5,0.4,2.8,0.6,4.1c0.3,1.3,0.6,1.9,1.1,1.9c0.6,0,1.3-0.4,2.1-1.3s1.4-1.9,2-2.9c0.4-0.7,0.8-1.4,1.1-2.1
        c0.3-0.7,0.5-1.2,0.6-1.7c0.3-0.1,0.5-0.1,0.7-0.1s0.4,0.1,0.7,0.2c-0.3,0.9-0.7,2.1-1.4,3.6s-1.6,2.8-2.6,3.9
        c-0.5,0.6-1,1.1-1.6,1.5c-0.6,0.3-1.3,0.5-1.9,0.4c-2.2-0.1-3.8-0.8-4.7-1.9c-0.9-1.2-1.5-2.2-1.7-3c-0.2,0.9-0.5,2-0.8,3.3
        c-0.4,1.3-1.3,2-2.9,2H782c-1.2,0-2.2-0.2-2.9-0.6c-0.8-0.5-1.4-1.1-1.8-1.9c-0.5-1-0.8-2.3-0.8-3.6v-0.6c0.1-1.6,0.3-3.2,0.6-4.7
        c0.2-0.8,0.3-1.6,0.5-2.3c0.2-0.7,0.3-1.3,0.4-1.8c0.2-0.5,0.5-0.7,0.9-0.7c0.4,0,0.9,0.2,1.4,0.6c1.2,0.9,1.9,1.4,2.1,1.7V287.8z"
        />
    <path d="M805.3,299.9c0.7,0,1.5-0.2,2.4-0.8c0.8-0.6,1.7-1.3,2.5-2.3c1.3-1.4,2.4-2.9,3.3-4.4c1-1.6,1.6-2.8,1.8-3.4
        c0.3,0,0.6,0,0.8,0c0.3,0,0.5,0.1,0.8,0.3c-0.2,0.7-0.8,2-1.9,4c-1.1,2-2.5,3.7-4.1,5.3c-1.1,1.1-2.3,1.9-3.5,2.6
        c-0.9,0.5-1.8,0.7-2.7,0.7c-0.4,0-0.8,0-1.2-0.1c-2.2-0.5-3.9-1.1-5.1-2c-1.2-0.9-2-1.9-2.4-2.9c-0.3-0.7-0.4-1.4-0.4-2.1
        c0-1,0.3-2,0.8-3.1c0.9-1.8,2.1-3.4,3.8-4.6c0.9-0.7,1.8-1.3,2.9-1.7c1-0.4,2-0.7,3.1-0.8h0.1c1,0,1.6,0.5,1.9,1.6
        c0.3,1.1,0.2,2.3-0.3,3.5c-0.2,0.5-0.5,1.1-0.8,1.6s-0.8,0.9-1.3,1.3c-0.5,0.4-1.1,0.8-1.8,1l-0.8,0.3c-0.3,1.5-0.3,2.9,0,4.2
        S804.2,299.8,805.3,299.9z M806.6,288.3c0.4-0.9,0.4-1.5-0.1-1.9c-0.4-0.3-0.9,0.4-1.7,2c-0.5,1-0.8,1.9-1.1,2.9
        c0.3-0.2,0.6-0.4,0.8-0.6C805.5,290,806.2,289.2,806.6,288.3z"/>
    <path d="M514.6,336.5c0-0.3,0-0.5,0-0.8c0.4-0.3,0.7-0.9,1.1-1.8c0.3-0.9,0.3-1.4-0.3-1.4c-0.3,0-0.9,0.2-1.8,0.6
        c-0.8,0.5-1.2,1.1-1.3,2.1c0,0.3,0.1,0.7,0.4,1.1c0.3,0.3,0.7,0.7,1.1,1.1c0.8,0.7,1.8,1.5,3,2.3c1,0.6,1.8,1.3,2.5,1.9
        c0.5-0.3,1.1-0.7,1.7-1c2.1-1.2,3.3-2.3,3.6-3.3c0.3,0,0.6,0,0.9,0c0.3,0,0.6,0.1,0.8,0.2c-0.3,0.9-0.9,1.8-1.9,2.6
        c-1,0.8-2.2,1.7-3.4,2.5c-0.1,0.1-0.3,0.2-0.4,0.3l0.4,0.6c0.3,0.5,0.4,0.9,0.4,1.4c-0.1,0.9-0.3,1.8-0.6,2.6s-0.8,1.5-1.3,2.1
        c-0.5,0.6-1.2,1.2-1.9,1.6c-0.7,0.5-1.4,0.8-2.1,1.1c-0.8,0.3-1.5,0.4-2.1,0.4c-0.5,0-1-0.1-1.4-0.3c-1-0.3-1.6-1.2-1.6-2.5
        c0-1,0.4-1.9,1.3-2.9c0.7-0.7,1.6-1.4,2.6-2.1c-0.1-0.3-0.3-0.6-0.4-0.9c-0.4-0.6-0.9-1.2-1.4-1.8c-0.9-1.1-1.8-2.2-2.7-3.3
        c-0.9-1-1.3-2.4-1.3-4.1v-0.1c0-0.9,0.6-1.9,1.7-2.8c0.8-0.7,1.8-1.1,2.7-1.1c0.4,0,0.8,0.1,1.1,0.2c2.1,0.5,3.3,1.5,3.7,2.9
        c0.4,1.5-0.4,2.6-2.4,3.3C514.9,336.9,514.7,336.7,514.6,336.5z M512.6,351.1c0.7,0.3,1.3,0.1,1.8-0.6c0.3-0.4,0.4-0.9,0.5-1.6
        c0.1-0.6,0-1.4-0.2-2.4c-1.6,1-2.5,2.1-2.8,3.1C511.6,350.2,511.8,350.8,512.6,351.1z"/>
    <path d="M529.9,336.5c0,0.9-0.1,1.9-0.1,3.1c0,1.7,0,3.3,0.1,4.8c0,1.5,0.2,2.2,0.6,2.3s0.6-0.2,0.9-0.9c0.3-0.7,0.5-1.5,0.8-2.5
        c0.3-1.2,0.5-2.4,0.7-3.6s0.3-1.9,0.3-2.1c0.4-1.9,1.3-3,2.6-3.2c1.3-0.2,2,0,2.1,0.6c0.2,0.3,0.3,1,0.4,2s0.2,2.2,0.3,3.4
        c0.2,1.5,0.4,2.8,0.6,4.1c0.3,1.3,0.6,1.9,1.1,1.9c0.6,0,1.3-0.4,2.1-1.3s1.4-1.9,2-2.9c0.4-0.7,0.8-1.4,1.1-2.1
        c0.3-0.7,0.5-1.2,0.6-1.7c0.3-0.1,0.5-0.1,0.7-0.1s0.4,0.1,0.7,0.2c-0.3,0.9-0.7,2.1-1.4,3.6s-1.6,2.8-2.6,3.9
        c-0.5,0.6-1,1.1-1.6,1.5c-0.6,0.3-1.3,0.5-1.9,0.4c-2.2-0.1-3.8-0.8-4.7-1.9c-0.9-1.2-1.5-2.2-1.7-3c-0.2,0.9-0.5,2-0.8,3.3
        c-0.4,1.3-1.3,2-2.9,2h-0.3c-1.2,0-2.2-0.2-2.9-0.6c-0.8-0.5-1.4-1.1-1.8-1.9c-0.5-1-0.8-2.3-0.8-3.6v-0.6c0.1-1.6,0.3-3.2,0.6-4.7
        c0.2-0.8,0.3-1.6,0.5-2.3c0.2-0.7,0.3-1.3,0.4-1.8c0.2-0.5,0.5-0.7,0.9-0.7c0.4,0,0.9,0.2,1.4,0.6c1.2,0.9,1.9,1.4,2.1,1.7V336.5z"
        />
    <path d="M554,337.8c-0.2-0.3-0.3-0.6-0.4-0.9c0.3-0.3,0.5-0.9,0.6-1.9c0.1-0.9-0.3-1.3-1-1c-0.5,0.2-0.9,0.9-1.3,2.2
        c-0.3,1.3-0.4,2.7-0.4,4.2c0,1.8,0.3,3.5,0.8,5.1c0.5,1.5,1.4,2.1,2.6,1.8c0.6-0.2,1.2-0.5,1.8-0.9c0.6-0.5,1.2-1,1.8-1.6
        c1-1.1,2-2.4,2.8-3.7c0.8-1.4,1.3-2.4,1.5-3.1c0.3-0.1,0.5-0.2,0.8-0.2c0.3,0,0.5,0.1,0.8,0.2c-0.2,0.9-0.8,2.4-1.9,4.6
        s-2.6,3.8-4.3,5.1c-0.8,0.6-1.5,1-2.4,1.3c-0.5,0.1-0.9,0.2-1.4,0.2c-0.4,0-0.8,0-1.2-0.1c-2.3-0.5-4-1.3-5.3-2.3s-2.2-2.1-2.8-3.3
        c-0.4-0.8-0.6-1.7-0.6-2.6v-0.4c0-0.8,0.1-1.5,0.3-2.1c0.5-2,1.6-3.6,3.3-4.9c1.1-0.8,2.3-1.3,3.5-1.3c0.6,0,1.3,0.1,1.9,0.3
        c1.3,0.4,2,1.4,2.1,2.8c0.2,1.5,0,2.5-0.6,3.1C554.5,338.1,554.2,338,554,337.8z"/>
    <path d="M570.1,348.5c0.7,0,1.5-0.2,2.4-0.8c0.8-0.6,1.7-1.3,2.5-2.3c1.3-1.4,2.4-2.9,3.3-4.4c1-1.6,1.6-2.8,1.8-3.4
        c0.3,0,0.6,0,0.8,0c0.3,0,0.5,0.1,0.8,0.3c-0.2,0.7-0.8,2-1.9,4c-1.1,2-2.5,3.7-4.1,5.3c-1.1,1.1-2.3,1.9-3.5,2.6
        c-0.9,0.5-1.8,0.7-2.7,0.7c-0.4,0-0.8,0-1.2-0.1c-2.2-0.5-3.9-1.1-5.1-2c-1.2-0.9-2-1.9-2.4-2.9c-0.3-0.7-0.4-1.4-0.4-2.1
        c0-1,0.3-2,0.8-3.1c0.9-1.8,2.1-3.4,3.8-4.6c0.9-0.7,1.8-1.3,2.9-1.7c1-0.4,2-0.7,3.1-0.8h0.1c1,0,1.6,0.5,1.9,1.6
        c0.3,1.1,0.2,2.3-0.3,3.5c-0.2,0.5-0.5,1.1-0.8,1.6s-0.8,0.9-1.3,1.3c-0.5,0.4-1.1,0.8-1.8,1l-0.8,0.3c-0.3,1.5-0.3,2.9,0,4.2
        S568.9,348.4,570.1,348.5z M571.3,337c0.4-0.9,0.4-1.5-0.1-1.9c-0.4-0.3-0.9,0.4-1.7,2c-0.5,1-0.8,1.9-1.1,2.9
        c0.3-0.2,0.6-0.4,0.8-0.6C570.2,338.7,570.9,337.8,571.3,337z"/>
    <path d="M585.4,322.5c-0.1-2.3,0-3.6,0.3-4c0.4-0.5,0.9-0.8,1.4-0.8c0.4,0,0.9,0.2,1.3,0.5c1.1,0.8,1.8,1.6,2.2,2.6
        c0.4,1,0.7,2.7,1.1,4.9s0.6,4.7,0.9,7.3c0.2,1.4,0.3,2.8,0.4,4.1s0.3,2.7,0.4,3.9c0.3,2.3,0.5,4.2,0.8,5.8c0.3,1.5,0.6,2.3,0.9,2.3
        c0.5,0,1.2-0.7,1.9-1.9c0.7-1.3,1.3-2.6,1.9-4.1c0.4-1,0.8-1.9,1.1-2.8s0.5-1.5,0.6-2c0.3-0.1,0.5-0.1,0.8-0.1
        c0.3,0.1,0.5,0.2,0.8,0.3c-0.2,0.8-0.6,2-1.2,3.8c-0.5,1.7-1.2,3.2-2.1,4.7c-0.6,1-1.2,1.8-1.8,2.5c-0.7,0.7-1.4,1-2.1,1h-0.3
        c-0.8,0-1.4-0.1-2.1-0.4c-0.7-0.3-1.3-0.6-1.8-1c-1-0.8-1.8-1.8-2.3-2.9c-0.5-1-0.9-1.8-1.1-2.3c-0.1,0.8-0.4,1.5-1,2.1
        c-0.6,0.5-1.4,0.9-2.4,0.9c-1,0.1-1.8,0-2.4-0.3c-0.7-0.3-1.2-0.7-1.6-1.3s-0.7-1.3-0.9-2.1c-0.2-0.7-0.3-1.3-0.3-2
        c0-0.2,0-0.3,0.1-0.5c0.1-1.6,0.5-3.2,1.2-4.7c0.8-1.5,1.7-2.4,2.8-2.9c0.6-0.2,1.2-0.2,1.9-0.1c0.5,0.1,1,0.3,1.4,0.7
        c-0.1-1.3-0.2-2.7-0.3-4.1C585.7,327.2,585.6,324.7,585.4,322.5z M583.1,335.6c-0.5,0.5-0.8,1.1-0.9,1.9c-0.2,0.8-0.2,1.6-0.2,2.5
        c0.1,1.3,0.4,2.6,0.8,3.8c0.4,1.2,0.9,1.8,1.3,2c0.6,0.2,1.1-0.1,1.4-0.9c0.4-0.8,0.7-1.8,0.9-2.9c0.1-0.6,0.1-1.2,0.2-1.8
        s0.1-1.2,0.1-1.7c-0.1-0.8-0.2-1.8-0.3-3c-0.8-0.3-1.4-0.5-1.9-0.4C583.9,335.1,583.4,335.2,583.1,335.6z"/>
    <path d="M607.7,348.5c0.7,0.1,1.5-0.2,2.4-0.8c0.8-0.6,1.7-1.3,2.5-2.3c1.3-1.4,2.4-2.9,3.3-4.4c1-1.6,1.6-2.8,1.8-3.4
        c0.3,0,0.6,0,0.8,0c0.3,0,0.5,0.1,0.8,0.3c-0.2,0.8-0.8,2.1-1.9,4c-1.1,2-2.5,3.7-4.1,5.3c-1.1,1.1-2.3,1.9-3.5,2.6
        c-0.9,0.5-1.8,0.7-2.7,0.7c-0.4,0-0.8,0-1.2-0.1c-2.2-0.5-3.9-1.1-5.1-2c-1.2-0.9-2-1.9-2.4-2.9c-0.3-0.6-0.4-1.3-0.4-2
        c0-0.3,0-0.5,0.1-0.8c0.1-1,0.4-1.9,0.9-2.9c0.9-1.7,2.2-3.2,3.9-4.5c1.8-1.3,3.6-2,5.6-2.1h0.1c1,0,1.6,0.5,1.9,1.6
        c0.3,1.1,0.2,2.3-0.3,3.5c-0.2,0.5-0.5,1.1-0.8,1.6s-0.8,0.9-1.3,1.3c-0.5,0.4-1.1,0.8-1.8,1l-0.8,0.3c-0.2,1.1-0.3,2.3-0.2,3.4
        C605.5,347.5,606.3,348.4,607.7,348.5z M605.4,330.1v-0.6c0-0.8,0.2-1.6,0.6-2.4c0.2-0.4,0.5-0.8,0.9-1.1s0.9-0.6,1.4-0.8
        c0.2-0.1,0.3-0.1,0.5-0.1c0.4,0,0.8,0.2,1,0.6c0.4,0.5,0.8,1,1,1.6c-0.4,0.1-0.7,0.3-1.1,0.6c-0.3,0.3-0.6,0.6-0.9,1
        c-0.5,0.7-1,1.3-1.5,1.9c-0.4,0.6-0.8,0.9-1.2,0.9h-0.1C605.8,331.6,605.6,331.1,605.4,330.1z M609,337c0.4-0.9,0.4-1.5-0.1-1.9
        c-0.3-0.2-0.8,0.2-1.3,1.3c-0.5,1-1,2.3-1.4,3.6c0.3-0.2,0.6-0.4,0.8-0.6C607.9,338.7,608.6,337.9,609,337z"/>
    <path d="M639.2,348.5c0.7,0,1.5-0.2,2.4-0.8c0.8-0.6,1.7-1.3,2.5-2.3c1.3-1.4,2.4-2.9,3.3-4.4c1-1.6,1.6-2.8,1.8-3.4
        c0.3,0,0.6,0,0.8,0c0.3,0,0.5,0.1,0.8,0.3c-0.2,0.7-0.8,2-1.9,4c-1.1,2-2.5,3.7-4.1,5.3c-1.1,1.1-2.3,1.9-3.5,2.6
        c-0.9,0.5-1.8,0.7-2.7,0.7c-0.4,0-0.8,0-1.2-0.1c-2.2-0.5-3.9-1.1-5.1-2c-1.2-0.9-2-1.9-2.4-2.9c-0.3-0.7-0.4-1.4-0.4-2.1
        c0-1,0.3-2,0.8-3.1c0.9-1.8,2.1-3.4,3.8-4.6c0.9-0.7,1.8-1.3,2.9-1.7c1-0.4,2-0.7,3.1-0.8h0.1c1,0,1.6,0.5,1.9,1.6
        c0.3,1.1,0.2,2.3-0.3,3.5c-0.2,0.5-0.5,1.1-0.8,1.6s-0.8,0.9-1.3,1.3c-0.5,0.4-1.1,0.8-1.8,1l-0.8,0.3c-0.3,1.5-0.3,2.9,0,4.2
        S638,348.4,639.2,348.5z M640.4,337c0.4-0.9,0.4-1.5-0.1-1.9c-0.4-0.3-0.9,0.4-1.7,2c-0.5,1-0.8,1.9-1.1,2.9
        c0.3-0.2,0.6-0.4,0.8-0.6C639.4,338.7,640.1,337.8,640.4,337z"/>
    <path d="M655.6,337.2c0.2-1.9,0.6-3.5,1.4-4.6c0.3-0.4,0.5-0.7,0.9-0.9c0.3-0.2,0.7-0.3,1.2-0.4h0.1c0.9,0,1.7,0.2,2.4,0.7
        s1.2,1.1,1.7,1.8c0.4,0.7,0.8,1.4,1,2.3c0.3,0.8,0.5,1.7,0.6,2.6c0.3,2.1,0.5,4.1,0.6,5.9c0,1.8,0.3,2.8,0.6,2.8
        c0.3,0,0.8-0.6,1.5-1.7s1.3-2.3,1.9-3.6c0.4-0.8,0.7-1.6,1-2.3c0.3-0.8,0.5-1.3,0.6-1.6c0.2,0,0.5-0.1,0.8-0.1c0.3,0,0.5,0,0.8,0.2
        c-0.2,0.6-0.6,1.7-1.2,3.2c-0.6,1.5-1.3,2.9-2.1,4.2c-0.5,0.9-1.1,1.6-1.7,2.3c-0.6,0.6-1.2,0.9-1.8,0.9c-1,0-1.8-0.3-2.5-0.8
        s-1.2-1.1-1.6-1.8c-0.4-0.7-0.8-1.5-1-2.4c-0.3-0.8-0.4-1.7-0.6-2.6c-0.3-2.1-0.5-4.1-0.5-5.9c0-1.8-0.3-2.7-0.7-2.7
        c-0.6,0.1-1.1,1.1-1.3,3s-0.4,4-0.5,6.1c-0.1,1.8-0.1,3.4-0.1,4.8c0,1.5-0.1,2.3-0.1,2.6c-0.2,0.4-0.6,0.5-1.1,0.5
        c-0.4,0-0.8-0.1-1.3-0.2c-1.3-0.4-2-0.9-2.3-1.6c0-0.3-0.2-0.9-0.6-1.9c-0.3-1-0.7-2.2-1.2-3.4c-0.5-1.5-1.1-3-1.6-4.4
        s-0.8-2.4-0.9-2.8c0.3-0.4,1.2-0.8,2.5-1.2c1.4-0.4,2.4-0.2,3.2,0.6c0.3,0.5,0.6,1.5,0.9,3.1c0.3,1.5,0.5,2.6,0.7,3.3
        C655.3,340.4,655.4,339.1,655.6,337.2z"/>
    <path d="M690.6,342.2c0.4,2.6,0.9,4.9,1.4,6.7s1,2.8,1.4,2.8c0.9,0,1.9-0.8,3-2.4c1.1-1.7,2-3.4,2.9-5.3c0.6-1.3,1.1-2.4,1.5-3.4
        c0.4-1.1,0.7-1.9,0.9-2.3c0.3-0.1,0.5-0.1,0.8-0.1l0.9,0.1c-0.3,1-1,2.6-1.9,4.9c-0.9,2.3-2,4.5-3.4,6.4c-0.9,1.3-2,2.3-3.1,3.1
        c-0.9,0.7-1.9,1-3,1c-0.2,0-0.4,0-0.7-0.1c-1.8-0.3-3.2-0.9-4.4-1.9s-2.1-2.4-2.8-3.9c-1-2.4-1.6-5.3-1.6-8.5V339
        c0-3.2,0.3-6.4,0.9-9.5c0.4-1.7,0.8-3.4,1.3-4.9s1-3,1.6-4.3c0.4-0.8,0.8-1.3,1.3-1.6c0.5-0.3,0.9-0.5,1.4-0.5h0.1
        c1,0,1.9,0.5,2.8,1.5c0.9,1,1.5,2,1.9,3.1c0.2,0.5,0.3,1.3,0.3,2.1s-0.1,1.9-0.3,2.9c-0.4,2-1.1,4.2-2.2,6.5c-0.5,1-1,1.9-1.7,2.8
        l0.1,0.6C690.2,339.3,690.4,340.8,690.6,342.2z M692.2,325.1c0-2-0.2-3.1-0.6-3.4c-1-0.7-1.6,0.2-1.8,2.7c-0.3,2.4-0.3,5.4-0.1,8.9
        c0,0.6,0.1,1.2,0.1,1.8c0.5-1.2,1-2.4,1.4-3.6C691.8,329.2,692.1,327.1,692.2,325.1z"/>
    <path d="M708.6,334.3c0,0.3-0.2,0.4-0.4,0.4c-0.8-0.5-1.5-0.8-2.1-0.8c-0.5,0-1,0.2-1.3,0.6c-0.4,0.4-0.7,1-0.8,1.8
        c-0.2,0.8-0.2,1.7-0.2,2.6c0,1.4,0.2,2.7,0.6,3.9s0.7,1.8,1,1.9c0.4,0.1,0.9-0.4,1.4-1.6c0.5-1.2,1-2.4,1.4-3.8
        c0.3-1.1,0.6-2.2,0.9-3.1s0.4-1.5,0.4-1.8c0.4-1.9,1.2-3,2.6-3.1c0.3-0.1,0.6-0.1,0.9-0.1c0.8,0,1.3,0.2,1.4,0.7
        c0.2,0.4,0.3,1.5,0.3,3.5s0.1,4,0.2,6c0.1,1.7,0.3,3.1,0.5,4.4c0.2,1.3,0.5,2,1,2c0.5,0,1.1-0.5,1.8-1.8c0.7-1.2,1.4-2.5,1.9-3.9
        c0.4-0.9,0.7-1.8,1-2.6c0.3-0.9,0.5-1.5,0.6-1.9c0.3-0.1,0.5-0.1,0.8-0.1s0.5,0.1,0.8,0.2c-0.2,0.8-0.6,2-1.1,3.8
        c-0.5,1.7-1.2,3.2-2.1,4.7c-0.5,1-1.1,1.8-1.8,2.4c-0.6,0.6-1.3,0.9-2,0.9h-0.1c-1.5-0.1-2.8-0.6-3.8-1.6c-1-0.9-1.7-1.9-2.3-2.9
        c-0.3-0.5-0.5-1-0.7-1.5s-0.3-0.8-0.4-1.1c-0.2,0.9-0.6,1.7-1.1,2.4c-0.5,0.8-1.5,1.2-3.1,1.2c-0.9,0-1.6-0.2-2.2-0.6
        s-1-0.8-1.4-1.4c-0.4-0.6-0.6-1.3-0.7-2.1c0-0.3-0.1-0.7-0.1-1c0-0.5,0-0.9,0.1-1.4c0.2-1.5,0.7-3,1.6-4.4s1.8-2.2,2.9-2.6
        c0.6-0.2,1.2-0.2,1.8,0c0.6,0.2,1.3,0.6,1.9,1.3C708.7,333.8,708.7,334,708.6,334.3z"/>
    <path d="M739.2,336.8c0,1,0.1,2.1,0.3,3.3c0.2,1.8,0.4,3.4,0.7,5.1c0.3,1.6,0.6,2.5,0.9,2.6c0.3,0.1,0.7-0.3,1-1.2
        c0.3-0.8,0.6-1.9,0.9-3.1c0.3-1.4,0.6-2.9,0.9-4.3c0.2-1.4,0.4-2.3,0.4-2.6c0.1-0.6,0.2-1,0.4-1.3c0.1-0.3,0.3-0.4,0.4-0.4
        c0.3-0.1,0.6,0.2,0.9,0.9l0.8,1.7c0.2,1.5,1.1,2.2,2.6,2.1c1.5-0.1,2.5-0.7,2.9-1.8c0.2-0.1,0.4-0.1,0.6-0.1
        c0.2,0.1,0.5,0.2,0.8,0.3c-0.1,0.8-0.6,1.4-1.4,2s-1.8,0.9-2.9,1c-0.7,0-1.4,0-2.1-0.3c-0.7-0.3-1.2-0.7-1.7-1.3
        c-0.1,0.7-0.3,2-0.6,3.9c-0.3,1.9-0.8,3.4-1.6,4.5c-0.3,0.4-0.6,0.7-0.9,0.9c-0.4,0.3-0.8,0.4-1.2,0.4h-0.1c-1.7,0-3.1-0.4-4.2-1.1
        s-1.9-1.5-2.6-2.6c-1-1.8-1.6-3.9-1.6-6.2v-0.6c0.1-2.6,0.3-4.5,0.6-5.9c0.2-0.5,0.6-0.7,1.1-0.7c0.5,0,1.1,0.2,1.9,0.6
        c1.5,1,2.4,1.6,2.6,1.8C739.1,335.1,739.2,335.8,739.2,336.8z"/>
    <path d="M759.2,348.5c0.7,0,1.5-0.2,2.4-0.8c0.8-0.6,1.7-1.3,2.5-2.3c1.3-1.4,2.4-2.9,3.3-4.4c1-1.6,1.6-2.8,1.8-3.4
        c0.3,0,0.6,0,0.8,0c0.3,0,0.5,0.1,0.8,0.3c-0.2,0.7-0.8,2-1.9,4c-1.1,2-2.5,3.7-4.1,5.3c-1.1,1.1-2.3,1.9-3.5,2.6
        c-0.9,0.5-1.8,0.7-2.7,0.7c-0.4,0-0.8,0-1.2-0.1c-2.2-0.5-3.9-1.1-5.1-2c-1.2-0.9-2-1.9-2.4-2.9c-0.3-0.7-0.4-1.4-0.4-2.1
        c0-1,0.3-2,0.8-3.1c0.9-1.8,2.1-3.4,3.8-4.6c0.9-0.7,1.8-1.3,2.9-1.7c1-0.4,2-0.7,3.1-0.8h0.1c1,0,1.6,0.5,1.9,1.6
        c0.3,1.1,0.2,2.3-0.3,3.5c-0.2,0.5-0.5,1.1-0.8,1.6s-0.8,0.9-1.3,1.3c-0.5,0.4-1.1,0.8-1.8,1l-0.8,0.3c-0.3,1.5-0.3,2.9,0,4.2
        S758.1,348.4,759.2,348.5z M760.5,337c0.4-0.9,0.4-1.5-0.1-1.9c-0.4-0.3-0.9,0.4-1.7,2c-0.5,1-0.8,1.9-1.1,2.9
        c0.3-0.2,0.6-0.4,0.8-0.6C759.4,338.7,760.1,337.8,760.5,337z"/>
    <path d="M777.4,337.8c-0.2-0.3-0.3-0.6-0.4-0.9c0.3-0.3,0.5-0.9,0.6-1.9c0.1-0.9-0.3-1.3-1-1c-0.5,0.2-0.9,0.9-1.3,2.2
        c-0.3,1.3-0.4,2.7-0.4,4.2c0,1.8,0.3,3.5,0.8,5.1c0.5,1.5,1.4,2.1,2.6,1.8c0.6-0.2,1.2-0.5,1.8-0.9c0.6-0.5,1.2-1,1.8-1.6
        c1-1.1,2-2.4,2.8-3.7c0.8-1.4,1.3-2.4,1.5-3.1c0.3-0.1,0.5-0.2,0.8-0.2c0.3,0,0.5,0.1,0.8,0.2c-0.2,0.9-0.8,2.4-1.9,4.6
        s-2.6,3.8-4.3,5.1c-0.8,0.6-1.5,1-2.4,1.3c-0.5,0.1-0.9,0.2-1.4,0.2c-0.4,0-0.8,0-1.2-0.1c-2.3-0.5-4-1.3-5.3-2.3s-2.2-2.1-2.8-3.3
        c-0.4-0.8-0.6-1.7-0.6-2.6v-0.4c0-0.8,0.1-1.5,0.3-2.1c0.5-2,1.6-3.6,3.3-4.9c1.1-0.8,2.3-1.3,3.5-1.3c0.6,0,1.3,0.1,1.9,0.3
        c1.3,0.4,2,1.4,2.1,2.8c0.2,1.5,0,2.5-0.6,3.1C777.9,338.1,777.6,338,777.4,337.8z"/>
    <path d="M786,335.6c0.5-0.5,0.9-0.8,1.4-0.9c0.6-0.3,1.1-0.4,1.7-0.4c0.3,0,0.7,0,1,0.1c0.9,0.3,1.3,0.6,1.4,1.1c0,0.3,0,1-0.1,2.1
        c-0.1,1.1-0.2,2.4-0.3,3.7c-0.1,1.6-0.1,3.1-0.1,4.4s0.3,2.1,0.9,2.1s1.3-0.6,2.1-1.7c0.9-1.1,1.7-2.3,2.5-3.6
        c0.5-0.9,1-1.7,1.4-2.5s0.7-1.4,0.9-1.9c0.3,0,0.5,0,0.8,0c0.3,0,0.5,0.1,0.8,0.3c-0.3,0.8-0.9,2-1.8,3.6c-0.8,1.6-1.8,3.1-2.9,4.5
        c-0.7,0.9-1.5,1.6-2.3,2.2c-0.6,0.4-1.1,0.6-1.7,0.6c-0.2,0-0.3,0-0.5-0.1c-4-1-6.3-2.5-7-4.5c-0.3-0.8-0.4-1.6-0.4-2.6
        c0-1.5,0.4-3.1,1.1-4.9C785.2,336.6,785.6,336.1,786,335.6z M787.6,329.4c0-0.6,0.4-1.1,1.3-1.4c0.5-0.2,1-0.3,1.5-0.3
        c0.4,0,0.7,0,1.1,0.1c0.7,0.3,1.1,0.9,1.3,1.9c0,0.3,0.1,0.5,0.1,0.7c0,0.5-0.1,0.8-0.4,0.8c0,0-0.1,0-0.1-0.1
        c-1-0.2-2.1-0.4-3.1-0.4c-1,0-1.5-0.4-1.6-1.1C787.6,329.6,787.6,329.5,787.6,329.4z"/>
</g>
<g>
    <path fill="#F2910A" d="M1198.3,25.1c0.2-2.6,1.4-5.9,3.8-8.6c0.7-0.8,2-1.1,2.9-1.8c3-2.1,6.4-2.8,9.9-3.4
        c4.5-0.9,8.5,0.5,12.1,2.8c2.1,1.3,3.8,3.3,5,5.8c1.5,3.1,1.6,6.2,1.3,9.6c-0.4,4.2-3,7.3-4.6,10.9c-0.1,0.2-0.4,0.4-0.7,0.5
        c-0.4,0.2-0.8,0.4-1.1,0.6c-3.3,2.3-7.2,2.9-11.1,3.2c-0.5,0-0.9-0.1-1.4-0.2c-1.9-0.6-3.9-1-5.8-1.9c-2.5-1.2-4.9-2.7-6.7-4.8
        C1199.1,34.3,1198.4,30.4,1198.3,25.1z M1200.4,26.8c0,5.2,1,7.4,4.5,10.7c0.5,0.5,1,0.9,1.5,1.4c1.8,1.9,4.4,2.6,6.7,3.3
        c1.8,0.5,4,0.9,5.7,0.5c3.1-0.8,6.6-1.4,8.6-4.4c1-1.5,1.9-3.1,2.8-4.6c2.1-3.8,1.8-7.7,0.5-11.6c-1.7-4.9-1.8-4.9-6.3-7.4
        c-1.3-0.7-2.8-1.3-4.3-1.6c-2.5-0.4-5-0.2-7.4,0.6c-1.1,0.4-2.4,0.4-3.5,1c-2.3,1.3-4.4,2.7-6.6,4.1c-0.1,0.1-0.2,0.2-0.2,0.3
        C1201.6,21.8,1199.9,24.2,1200.4,26.8z"/>
    <path fill="#F2910A" d="M1236.6,19.5c-0.4-0.9-0.8-1.6-1.2-2.5c3.4-1.5,6.6-2.9,10-4.4c0.6,1.5,1.1,3,1.8,4.6
        C1243.7,18,1240.2,18.7,1236.6,19.5z"/>
    <path fill="#F2910A" d="M1234.1,41.5c3.3,2.1,6.3,4.1,9.4,6.2c-1.5,1.2-2.9,2.3-4.4,3.5c-1.9-2.5-3.9-4.9-5.7-7.5
        C1233.2,43.3,1233.8,42.3,1234.1,41.5z"/>
    <path fill="#F2910A" d="M1195.1,21.9c-3.2-0.8-6.3-1.5-9.5-2.3c0.9-1.6,1.7-3.2,2.5-4.8c2.5,1.5,5,3,7.5,4.5
        C1195.5,20.2,1195.3,21,1195.1,21.9z"/>
    <path fill="#F2910A" d="M1195.4,30.9c-3.3,1.1-6.4,2.2-9.7,3.4c-0.1-1.8-0.2-3.4-0.4-5.1c3.2-0.2,6.3-0.3,9.5-0.5
        C1195.1,29.4,1195.2,30,1195.4,30.9z"/>
    <path fill="#F2910A" d="M1197.5,3.2c1.2,2.7,2.5,5.2,3.5,7.8c0.2,0.5-0.7,1.4-1,2.1c-2.3-2.3-4.3-4.4-6.3-6.5
        C1194.7,5.6,1196,4.5,1197.5,3.2z"/>
    <path fill="#F2910A" d="M1246.8,36.2c-3.2-1.4-6.2-2.7-9.3-4.1c0.2-0.6,0.4-1.2,0.7-1.9c3.3,0.4,6.6,0.8,9.9,1.3
        C1247.6,33.1,1247.2,34.5,1246.8,36.2z"/>
    <path fill="#F2910A" d="M1214.5,8.7c-0.7,0.1-1.5,0.3-2.4,0.5c-0.8-2.9-1.7-5.7-2.5-8.7c1.6-0.2,3.2-0.3,4.9-0.5
        C1214.5,2.9,1214.5,5.7,1214.5,8.7z"/>
    <path fill="#F2910A" d="M1228.1,10.3c-0.5-0.3-1-0.5-1.5-0.9c1.1-1.9,2.1-3.8,3.1-5.6c1.6-2.8,1.6-2.8,4.7-2
        c0.4,0.1,0.7,0.2,1.4,0.4C1233.2,5,1230.7,7.6,1228.1,10.3z"/>
    <path fill="#F2910A" d="M1207,55.7c-1.5-0.4-2.9-0.8-4.3-1.3c1.6-2.8,3.1-5.6,4.7-8.4c0.4,0.2,0.8,0.5,1.1,0.6
        c0.8,0.3,0.9,0.7,0.6,1.5C1208.4,50.6,1207.7,53.1,1207,55.7z"/>
    <path fill="#F2910A" d="M1191.8,43.7c2.4-1.6,4.6-3.1,6.9-4.7c0.6,0.5,1.2,1,1.8,1.5c-2.4,2.3-4.8,4.5-7.2,6.8
        C1192.9,46.3,1192.4,45,1191.8,43.7z"/>
    <path fill="#F2910A" d="M1220.9,47.9c1.1,3,2,5.6,2.9,8.2c-1.5,0.6-2.9,1.1-4.4,1.7c-0.2-2.9-0.4-5.7-0.4-8.6
        C1219.1,48.9,1220.2,48.4,1220.9,47.9z"/>
    <path fill="#F2910A" d="M1209.1,30.7c0.7,0.5,1.3,1,2,1.4c2.4,1.5,5.2,2.1,7.9,1.7c1.6-0.2,3.3-1.3,4.1-3c0.8-1.6,1.3-3.4,1.9-5.1
        c2.2,1.4,2.3,1.4,1.4,3.7c-0.7,1.7-1.6,3.2-2.5,4.8c-0.2,0.3-0.6,0.6-1,0.7c-0.7,0.3-1.5,0.5-2.1,0.9c-3,1.6-5.9,1.1-8.7-0.6
        c-0.5-0.3-1-0.6-1.5-0.9C1208.5,33.2,1208.5,33.2,1209.1,30.7z"/>
    <path fill="#F2910A" d="M1221.8,20.8c-0.1,1.2-1,2.4-2,2.3c-1.7,0-2.9-1.2-2.8-2.8c0.1-1.1,1.5-2.1,2.8-2.1
        C1221.1,18.3,1221.8,19.3,1221.8,20.8z"/>
    <path fill="#F2910A" d="M1212.6,22.7c0,1.3-1.1,2.5-2.3,2.6c-1.1,0-2.2-1.3-2.2-2.8c0-1.3,1-2.4,2.2-2.4
        C1211.6,20.1,1212.6,21.2,1212.6,22.7z"/>
</g>
<g>
    <path fill="#283996" d="M1094.8,301.7c0,0.6,0,0.8,0,1c-0.2,2,1.1,4.7-1.3,5.8c-2.5,1.2-5.3,1.9-8.1,2c-2.5,0.1-5-0.8-7.4-1.4
        c-2.2-0.5-5.1-5.3-4-8.5c0.9-2.6,2.4-5,3.7-7.6c0,0-0.6-0.2-1.1-0.2c-1.7,0-3.3,0.2-5,0.2c-4.8,0.2-8.8-3-9.7-7.7
        c-0.8-4.1,2.8-9.1,6.8-10c3.6-0.9,6.8-0.1,10.6,1.4c-0.6-1-0.7-1.5-1-1.7c-4.7-3.7-3.7-8.1-1.5-12.1c2.2-4.1,5.6-6,10.7-5.9
        c3.8,0.1,6.2,1.9,8.8,3.9c0.5,0.4,0.7,1.3,0.7,2.1c0.1,2.2,0,4.4,0,7.1c2.4-1,4.4-1.8,6.4-2.6c2.4-1,8.5,0.6,10.2,2.7
        c0.1,0.2,0.3,0.4,0.4,0.6c3.8,3.1,3.4,7.2,2.6,11.2c-0.4,1.9-1.5,3.5-3.8,3.6c-1.4,0.1-2.8,0.4-4.8,0.6c1.1,0.7,1.8,1.3,2.5,1.7
        c3.4,2.2,4.9,5.2,4.5,9.3c-0.4,3.8-5.5,8.3-9.2,8.3c-1.1,0-2.2,0-3.3,0C1099.7,305.4,1097.4,304.3,1094.8,301.7z M1091.6,294.8
        c0.7,0.3,1.5,0.4,2,0.8c0.8,0.6,1.4,1.5,2,2.3c4.7,5.5,8.7,4.9,13.9,1.5c1.1-0.7,1.8-4.5,0.9-5.6c-2.8-3.6-5.5-7.9-11.1-7.9
        c0-1.1,0-1.9,0-2.9c0.7,0.1,1.2,0.1,1.7,0.2c1,0.2,2.1,0.8,3,0.6c2.7-0.4,5.6-0.7,8-1.9c1-0.5,1.1-3.1,1.2-4.8
        c0.3-3-2.7-6.3-5.7-6.4c-4.4-0.2-8.2,1.3-11.2,4.6c-0.5,0.5-1.4,0.6-2.1,0.8c-0.2-0.7-0.5-1.4-0.5-2c0.1-2.8,0.4-5.7,0.4-8.5
        c0-1.9-2.9-5.3-4.6-5.8c-3.9-1.1-6.8,1.2-8.9,3.5c-1.9,2.1-2.4,5.2-0.6,8.2c1.2,2,2,4.3,3.1,6.4c0.7,1.3,0.5,2.2-0.6,2.7
        c-1.5-0.8-2.7-1.7-4.1-2.1c-3.1-0.8-6.3-0.5-9.4,0.4c-1.8,0.5-4.3,4.8-3.8,6.6c0.7,2.7,4.6,5.3,7.5,5c2.2-0.2,4.4-0.3,6.6-0.6
        c1.8-0.2,2.9,0.3,3.2,2.2c-0.7,0.7-1.3,1.5-2.1,2.2c-3.3,3-3.2,6.6-2,10.4c0.2,0.7,0.6,1.9,1,2c2.5,0.5,5.1,1.4,7.4,1
        c2-0.3,4.4-1.7,4.6-4.5C1091.8,300.6,1091.6,298,1091.6,294.8z"/>
    <path fill="#283996" d="M1092.1,328.7c1.7-0.9,2.8-1.3,3.8-1.9c2.7-1.6,5.3-1.1,7.7,0.7c1.4,1.1,3.5,2.4,3.6,3.7
        c0,2.8-0.8,5.7-1.9,8.4c-0.4,1.1-2.4,1.5-3.4,2c1.3,2.1,2.8,4.2,3.7,6.5c1.2,3.1,0.9,6.4-1.1,9c-0.9,1.2-3.1,2-4.8,2.1
        c-2.1,0.2-4.1-0.8-5.3-2.9c-0.5-0.8-1.2-1.5-1.7-2.1c-1,1.5-1.9,2.9-3,4.3c-3.3,4-11.9,3.1-15.2,0.7c-4.9-3.6-6.8-10.4-0.9-14.7
        c0.2-0.1,0.3-0.4,0.6-0.8c-3.6-0.7-6.8-1.7-8.6-5.4c-1.2-2.5-1.8-4.9-1.4-7.5c0.5-3.4,4.1-5.5,10.5-6.1c-0.1-1.1-0.2-2.1-0.3-3.2
        c-0.3-3,0.8-4.6,3.5-5.9c6.9-3.3,14.4,2.1,14.3,10C1092.1,326.3,1092.1,327.2,1092.1,328.7z M1090.7,336.6c0,0.3,0,0.5,0.1,0.8
        c-0.7,0-1.5,0.2-2.2,0c-1.7-0.5-4.7,0.7-5,2.1c-0.4,1.6,0.8,3.9,2.1,4c2.1,0.3,4-1.1,4.4-3c0.2-0.9,0.7-1.7,1.2-2.8
        c1.7,3,1.5,4.7-0.5,6.8c-1.3,1.5-4.2,2-6,1.1c-6.2-3-7.4-2-10.5,2.4c-1.5,2.1-1.3,4.1-0.1,6.3c1.4,2.5,3.7,3.2,6.1,3.4
        c2.1,0.2,4.5,0.1,6.4-0.8c3.5-1.6,4.9-4.6,4.2-8.5c-0.1-0.4,0.3-1,0.5-1.5c0.3,0.3,0.8,0.6,1,1c0.3,0.6,0.6,1.3,0.7,2
        c0.4,2.4,1.6,4.3,3.8,5.3c1.5,0.7,3.5,2.2,4.9,0.4c3.7-4.9,0.5-12.5-5.6-13.7c-0.9-0.2-1.7-1-3-1.8c3-0.4,5.2-0.4,7.3-0.9
        c3.2-0.9,4.4-4.2,3.3-7.6c-0.7-2.1-4.2-4.1-6.8-2.4c-1.6,1-3.2,1.9-4.9,2.9c-2-0.7-2.9-2-2.8-4.2c0-1.9-0.5-3.9-1-5.8
        c-0.9-3.2-4.4-5.3-7.4-4.2c-1.5,0.6-3.3,2.1-3.7,3.5c-0.5,1.9,0,4.2,1.8,5.8c1.6,1.5,3,3.2,4.5,4.9c-1.1,0.7-1.9,1.3-2.4,1.7
        c-1.3-1.6-2.2-3.5-3.6-4.4c-1.6-1.1-3.9-1.9-5.7-1.7c-2.5,0.3-4.4,1.7-4.3,5.1c0.1,2,0.5,3.4,1.8,5c1.7,2.1,3.6,3.1,6.3,2.9
        c1.1-0.1,2.2,0.1,3.3,0.3c1.6,0.3,2.3-0.3,2.7-1.8c0.3-1.1,0.8-2.3,1.6-3C1086.4,333.8,1087.3,334,1090.7,336.6z"/>
    <path fill="#283996" d="M1137.3,322.2c-4.9-3.8-5-7.1-2.8-11.6c0.7-1.4,2.4-2.6,4-3.1c6.4-2.2,13.7,2.6,13.8,9.3
        c0,2.1,0.3,4.1,0.5,6.1c0.3,3.7-0.5,7.1-3.4,9.8c0.8,0.5,1.3,0.8,1.8,1.1c2.2,1.2,3.3,3.3,2.9,5.8c-0.6,4.2-1.4,8-5.4,10.7
        c-3.1,2.1-6.4,2.6-9.7,2c-2.7-0.5-6.1-0.9-7.7-4c-0.2-0.3-0.9-0.4-1.4-0.3c-0.9,0.1-1.9,0.3-2.8,0.6c-4.5,1.7-8.2-0.5-10.8-3.4
        c-1.7-1.9-1.8-5.2-2.5-7.8c-0.1-0.4,0.2-0.9,0.3-1.4c0.4-2.6,0.8-5.2,4.3-6c-0.9-0.4-1.7-0.8-2.6-1.1c-3.8-1.1-5.4-3.9-6.4-7.4
        c-0.6-2.3,1-3.7,2-5.3c2.2-3.6,4.2-4.2,8.4-3.6c4.8,0.7,8.8,2.6,11.9,6.2c2.9,3.4,2.6,5.8-0.8,8.7c-0.5,0.5-1.1,0.9-1.8,1.5
        c-0.6-0.5-1.2-1-1.7-1.4c0-0.2,0-0.4,0.1-0.5c3.7-3.7,3.4-5.8-1.2-8.5c-2.8-1.6-5.6-2.9-9-2.4c-2.1,0.3-3.6,3-3.4,5.1
        c0.5,5,4.2,6.4,8.1,7.6c1.8,0.6,3.7,0.7,5.5,1.1c-0.1,1.8-1,2-2.4,1.7c-3.2-0.7-6.3,0.5-7.3,2.6c-1.8,3.8-1.1,7.1,1.7,9.6
        c3,2.7,6.4,2.2,9.8,1.7c0.4-0.1,0.7-0.7,1-1.2c0.6-1.1,1-2.3,1.6-3.7c0.8,0.3,1.5,0.6,2.1,0.8c0,0.3,0.1,0.5,0.1,0.6
        c-0.7,7,0.1,6.1,5.7,7.4c2.8,0.7,5.1-0.4,7.4-1.5c0.5-0.2,1-0.8,1.2-1.3c1-2.3,1.9-4.7,2.7-7.1c0.7-2.1-0.1-3.6-2.3-3.9
        c-1.9-0.3-3.8-0.3-6-0.5c-0.3-1.4,0.3-2.4,2.1-3.1c4.4-1.6,5.9-6.4,3.8-10.5c-0.5-1.1-0.6-2.6-0.5-3.9c0.1-5.1-3.2-7.9-8.1-6.7
        c-2.2,0.5-4.3,4.8-3.7,7.8C1136.8,319.7,1137,320.8,1137.3,322.2z"/>
    <path fill="#283996" d="M1137.3,327.7c0.9,0.8,1.8,1.7,2.8,2.5c1.9,1.4,1.3,3.3,1.1,5c-0.3,2.2-1.9,4-4,4.6
        c-2.8,0.8-4.6-1.3-6.2-3.1c-1.5-1.6-0.7-3.4,0.1-5.3c1.2-3,3.8-3.7,6.4-4.5C1137.5,327.2,1137.4,327.5,1137.3,327.7z M1132.9,334.7
        c0,1.5,1.6,3.1,3,3c1.2-0.1,2.9-2.3,2.9-3.9c0-1.4-1.6-3.4-2.7-3.4C1134.6,330.5,1132.8,332.9,1132.9,334.7z"/>
    <path fill="#283996" d="M1097.1,285.9c0,0.5,0.1,1.5,0,2.5c-0.4,3.2-2.9,5.2-6.1,4.9c-2-0.2-4,0-5.6-1.8c-1.7-2-3.1-5.2-2.3-6.9
        c2.1-4.3,4.3-5.6,8.3-4.9c0.2,0,0.5,0,0.7,0.1C1096.1,280.7,1097.5,281.3,1097.1,285.9z M1090.5,290.1c2.9-0.1,4.3-1.4,4.3-3.9
        c-0.1-3-1.2-4.1-3.9-4.1c-2.5,0-4.8,2.1-4.8,4.3C1086.1,288.9,1087.7,290.2,1090.5,290.1z"/>
</g>
<g>
    <path fill="#283996" d="M897.5,30.8c0.2-3.6,0.4-6.8,0.6-10c2.5,0,4.9,0,7.3,0c1,0,0.9,0.7,0.9,1.4c0.1,5.9,0.2,11.8,0.3,17.7
        c0,1.1,0.3,1.9,0.9,2.7c2.5,3.1,4.9,6.3,6.4,10.1c1.1,2.9,0.4,4.4-2.6,5.2c-1.1,0.3-2.1,0.6-3.2,0.9c-1,0.3-1.3,0.8-1.3,1.8
        c-0.1,5.9-0.2,11.7-0.4,17.6c-0.1,2.7-0.4,5.5-0.6,8.3c-18.7-0.1-37.1,0.3-55.8-0.8c0-2.4,0.1-4.8,0-7.1
        c-0.2-6.8-0.5-13.6-0.6-20.4c0-1.3-0.5-2-1.7-2.3c-0.9-0.2-1.8-0.6-2.6-1.1c-1.6-1-2.1-2.3-1.3-3.9c0.7-1.4,1.7-2.9,2.8-3.9
        c7.7-7.1,15.5-14.1,23.3-21.2c2-1.8,4-3.7,6.1-5.4c0.8-0.7,1.7-1.2,2.6-1.6c2.4-1.2,4.8-1,6.8,0.9c3.7,3.3,7.3,6.7,10.9,10.1
        C896.5,29.9,896.9,30.3,897.5,30.8z M879.7,65.2c5-0.7,9.7-0.3,14.4,0.4c0.3,0,0.7,0.7,0.7,1.1c0.2,2.9,0.3,5.8,0.3,8.6
        c0,2.9,0,5.8,0,8.8c2.8,0,5.3,0,7.8,0c0.2,0,0.6-0.5,0.7-0.8c0.2-2,0.4-4,0.5-6c0.2-6,0.3-12.1,0.4-18.1c0-0.5-0.2-1.1-0.5-1.5
        c-6.2-8.9-13.7-16.6-22-23.5c-1.2-1-2.4-1.9-3.6-2.8c-0.3,0.2-0.4,0.3-0.5,0.4c-9.1,7.4-17.4,15.8-25.7,24.1
        c-0.3,0.3-0.5,1-0.5,1.5c0.2,6.3,0.4,12.6,0.6,18.8c0.1,2.4,0.2,4.9,0.4,7.6c9,0,17.8,0,26.6,0C879.4,77.6,879.5,71.5,879.7,65.2z
         M904.5,39.1c0.1-0.1,0.2-0.1,0.3-0.2c0-5.5,0-10.9,0-16.5c-1.8,0-3.5,0-5.3,0c-0.3,3.3-0.6,6.6-0.1,9.9c0,0.2,0.1,0.3,0.2,0.5
        C901.2,34.9,902.9,37,904.5,39.1z"/>
    <path fill="#283996" d="M857.7,70c0-4.7,0-9,0-13.5c4.8-1,9.5-0.7,14.4-0.3c0,4.6,0,9.1,0,13.8C867.3,70,862.6,70,857.7,70z
         M870,68.2c-0.1-1.5-0.1-2.7-0.2-4c-1.5,0-2.8,0-4.2,0c0,1.4,0,2.7,0,4C867.1,68.2,868.5,68.2,870,68.2z M869.5,62
        c0.5-3.8,0.5-3.9-3.1-4.1c-0.3,0-0.6,0-0.9,0c0,1.4,0,2.7,0,4.1C866.9,62,868.2,62,869.5,62z M859.8,57.9c-0.1,1.4-0.2,2.7-0.3,4.1
        c1.4,0,2.6,0,3.8,0c0-1.4,0-2.8,0-4.1C862.1,57.9,861,57.9,859.8,57.9z M859.6,64.2c-0.1,4.5-0.4,3.8,3.5,4c0.1,0,0.1-0.1,0.3-0.1
        c0-1.3,0-2.6,0-3.9C862.1,64.2,860.9,64.2,859.6,64.2z"/>
</g>
<g>
    <g>
        <path fill="#FFC52C" d="M487.5,76.4c-8,0-15.9,0.1-23.9-0.1c-3.2-0.1-6.3-0.7-9.4-1.3c-3.7-0.7-6-3.1-7.2-6.6
            c-1.5-4.1-1.9-8.4-1.8-12.7c0-6.2,0.3-12.3,0.5-18.5c0.1-5.9,0.2-11.9,0.3-17.8c0-1.5,0.1-2.9,0.3-4.4c0.3-2.2,1.6-3.4,3.7-3.8
            c4.9-0.8,9.9-0.7,14.8,0.2c2.3,0.4,2.8,1.2,2.7,3.5c0,1,0.6,1,1.2,1.1c3.6,0.1,7.1,0.3,10.7,0.2c9.2-0.3,18.5-0.9,27.7-1.1
            c3.2-0.1,6.5,0.6,9.7,1c0.7,0.1,1.3,0.4,1.9,0.6c1.3,0.5,2.1,1.4,2.2,2.7c0.4,3.7,1,7.4,1.2,11.2c0.6,7.9,1,15.9,1.4,23.9
            c0.2,4.1,0.3,8.1-0.6,12.1c-1.2,5.6-4.6,8.5-10.4,8.7c-8.4,0.3-16.7,0.6-25.1,0.9C487.5,76.3,487.5,76.3,487.5,76.4z M486.2,73.3
            c0-0.2,0-0.3,0-0.5c5.5,0,10.9,0.1,16.4,0c3.5-0.1,6.9-0.6,10.4-1.1c3.4-0.5,6-2.1,6.9-5.6c0.4-1.3,0.7-2.7,0.7-4
            c0.3-13.2-0.5-26.2-2.4-39.3c-0.4-2.9-1.5-3.9-4.5-4.2c-7.6-0.8-15.2-0.7-22.8-0.1c-8.4,0.6-16.7,1.2-25.2,0.4
            c-1.2-0.1-1.6-0.5-1.5-1.6c0-0.3,0-0.7,0-1c0.2-2.2,0-2.6-2.2-2.6c-3.6,0-7.2,0.1-10.8,0.4c-1.7,0.1-2.4,0.9-2.5,2.7
            c-0.2,3.1-0.2,6.3-0.2,9.4c-0.2,9.8-0.4,19.5-0.5,29.3c0,4.2,0.2,8.4,1.7,12.5c0.7,1.8,1.9,3.2,3.7,3.6c3.6,0.7,7.2,1.6,10.8,1.8
            C471.5,73.5,478.9,73.3,486.2,73.3z"/>
        <path fill="#FFC52C" d="M455.2,44.3c0.2-12.2,14.8-18,23.9-12.1c4.8,3.2,7.7,7.4,7.6,13.4c-0.1,7.1-5.1,12.8-12.1,14
            c-5,0.8-9.6-0.1-13.8-2.9c-3.3-2.2-4.9-5.3-5.3-9.1C455.3,46.5,455.3,45.4,455.2,44.3z M470.8,56.6c0-0.1,0-0.1,0.1-0.2
            c1.2-0.1,2.5-0.2,3.7-0.4c3.6-0.8,6.8-2.3,8.2-6.1c2.3-6.1-1.4-14.2-7.6-15.8c-5.2-1.3-9.7-0.8-13.6,3c-5.6,5.6-4,15.6,3.3,18.2
            C466.8,55.9,468.8,56.1,470.8,56.6z"/>
        <path fill="#FFC52C" d="M504.5,39.3c-1.4-0.2-3.1-0.4-4.8-0.7c-2.4-0.5-3.9-2-4.2-4.5c-0.2-1.9-0.4-3.9-0.3-5.8
            c0.1-2.2,1.1-3.6,3.2-3.9c3.8-0.7,7.7-1,11.5-0.4c2,0.3,3.3,1.5,3.9,3.4c0.7,2.4,0.9,4.9,0.5,7.4c-0.4,2.3-1.8,3.5-4,3.8
            C508.6,38.9,506.7,39,504.5,39.3z M505.1,36.3c1.5-0.2,2.9-0.2,4.3-0.5c1.6-0.3,2.4-1.1,2.4-2.7c-0.1-1.7-0.5-3.4-0.9-5
            c-0.3-1.1-1.2-1.6-2.2-1.6c-1.5,0-2.9,0-4.4,0.1c-1.4,0.1-2.9,0.3-4.3,0.5c-1.2,0.2-2,1-1.9,2.2c0.1,1.4,0.3,2.8,0.6,4.2
            c0.3,1.3,1.2,2.1,2.5,2.3C502.4,36,503.8,36.1,505.1,36.3z"/>
        <path fill="#FFC52C" d="M470.1,37.1c5.5,0,9.9,5.5,8.6,10.4c-1,3.8-5,5.9-9.1,4.8c-5.2-1.4-7.7-6.2-6.1-11.3
            c0.9-2.8,3.3-3.4,5.8-3.8C469.7,37.1,470,37.1,470.1,37.1z"/>
    </g>
</g>
<g>
    <path fill="#951556" d="M76.5,222c-2.6-0.8-5.3-1.3-7.7-2.4c-6.7-3.2-11.1-8.4-11.5-16c-0.3-4.9,1.9-9,4.9-12.7
        c3.8-4.7,8.9-7,14.7-7.8c9-1.2,17.6,0.6,25.6,4.9c4,2.1,7.4,5.2,8.6,10c0.1,0.3,0.8,0.7,1.3,0.7c2.6,0.3,5.2,0.5,7.8,0.9
        c8.3,1.5,15.4,7,16.9,16c0.7,4.2-0.2,8.1-1.8,11.9c-2.1,4.9-5.6,8-10.7,9.4c-1,0.3-1.6,0.9-1.8,1.8c-0.6,2.2-1,4.4-1.5,6.6
        c-0.2,0.7-0.6,1.9-0.9,1.9c-0.9,0-2-0.3-2.5-0.9c-1-1.2-1.9-2.6-2.5-4c-1-2.3-2.2-3.5-5.1-3.1c-4,0.6-8,0-11.8-1.6
        c-4.5-2-6.8-6.3-6-11.1c0.1-0.6,0.2-1.3,0.3-1.9c-2-0.6-3.3-0.1-4.7,1.7c-1.1,1.6-2.1,3.3-3.2,4.8c-1.4,1.9-2.9,3.5-5,4.5
        c-1.4,0.6-2.8,1-4.2,0c-1.4-1.1-1.4-2.6-1.1-4.1C75.1,228.2,75.9,225,76.5,222z M81.8,185.2c-0.9,0.1-2.1,0.1-3.3,0.3
        c-6.6,0.8-12.1,3.5-15.9,9.2c-2.1,3.2-3.3,6.6-2.6,10.5c0.9,4.7,4.1,7.7,7.9,10.2c2.6,1.7,5.5,2.2,8.4,2.7c3.6,0.7,4.2,1.6,3.1,5.1
        c-0.4,1.1-0.8,2.2-1.1,3.3c-0.4,1.5-0.9,3.1-1.1,4.6c-0.1,0.6,0.3,1.8,0.6,1.9c0.6,0.2,1.7-0.1,2.1-0.6c1.1-1.2,2-2.5,3-3.9
        c1.4-2,2.8-4.1,4.2-6.1c0.3-0.4,1-0.7,1.5-0.7c1.5-0.2,3.1-0.1,4.6-0.3c3.7-0.4,7.2-1.6,10.2-3.9c4.6-3.5,5.9-8.2,5.5-13.8
        c-0.5-6.4-3.3-11.3-9.2-14.2C94.2,186.7,88.3,185.4,81.8,185.2z M111.9,201.5c0,0.8,0,1.3,0,1.9c0.1,4.2-0.5,8.1-2.6,11.8
        c-2.7,4.6-6.8,7.2-11.9,8.6c-0.5,0.1-1.1,0.3-1.3,0.7c-1.5,4.5-1.2,9.2,5,11.2c4.1,1.3,8.3,1,12.5,0.1c1.2-0.3,1.9,0,2.4,1.1
        c0.5,1.2,1,2.4,1.5,3.5c0.2,0.5,0.6,1,0.9,1.5c0.1,0,0.3,0,0.4,0c0.3-0.7,0.7-1.4,0.9-2.2c0.3-1.2,0.6-2.5,0.8-3.8
        c0.1-0.7,0.3-1,1.1-1.1c2.3-0.3,4.5-1.1,6.4-2.6c5.1-4.2,6.6-9.8,6.1-16.2c-0.4-4.6-2.6-8.3-6.5-10.7
        C122.9,202.2,117.5,201.6,111.9,201.5z"/>
</g>
<g>
    <path fill="#E84545" d="M37,10.7c1.4,0.3,3.1,0.5,4.7,1.2c2.3,1,2.8,3.2,1.2,5.2c-1.5,1.7-3.1,3.3-4.7,5c-1.3,1.4-1.4,1.6-0.3,3.2
        c0.8,1.2,1.8,2.3,2.9,3.2c1.5,1.2,2.3,1,4,0c2.4-1.5,4.7-3,7.3-4.1c3.3-1.4,5.6,0.3,5.4,3.9c-0.3,6.3-3.5,10.9-8.9,14
        c-3.6,2.1-7.6,3-11.7,3.3c-0.7,0.1-1.5,0.4-1.9,0.8c-3.1,3.2-6.3,6.4-9.3,9.7c-3.2,3.5-6.4,7-10.6,9.4c-2.2,1.3-4.7,1.9-7.3,2
        c-5.4,0.1-8-3.6-7.6-8.6c0.4-3.9,2.1-7.3,4.8-10c3.6-3.6,7.4-7,11-10.5c1.7-1.6,3.2-3.2,4.9-4.8c0.6-0.6,0.7-1.3,0.5-2.1
        c-1.9-8.2,3.1-17.9,11.4-19.9C34,11.1,35.3,10.9,37,10.7z M5.4,57.3c0,2.3,1.8,4.2,4,4.3c2.9,0.1,5.6-2.3,5.6-4.9
        c0-2.2-2.2-3.9-5.1-4C7,52.7,5.4,54.3,5.4,57.3z"/>
</g>
<g>
    <path fill="#E84545" d="M645.2,81c-0.4-4.7,0.9-8.9,3.1-13c9-16.5,17.9-33.1,26.9-49.7c2.2-4,5.3-5.5,9.5-4.9c4.3,0.6,8.5,4.1,9,8
        c0.2,1.7-0.2,3.8-0.9,5.4c-2.5,5.7-5.2,11.3-8,16.9c-5.3,10.7-10.7,21.2-16,31.9c-2.6,5.2-6.6,9.2-10.6,13.2
        c-2.7,2.8-5.5,5.5-9,7.4c-2.3,1.2-3.3,0.7-3.4-1.9C645.6,89.8,645.4,85.4,645.2,81z M651.4,76c7.6-14.4,15.1-28.7,22.7-43.1
        c-1.3-0.7-2.4-1.2-3.6-1.9c-7.3,13.9-14.5,27.6-21.8,41.4C650.9,72.9,650.8,74.8,651.4,76z M681.9,36.9c-0.2,0.3-0.3,0.5-0.4,0.6
        c-6.2,11.7-12.4,23.4-18.6,35.1c-0.9,1.8-1.7,3.7-2.4,5.6c-0.2,0.5,0,1.8,0.2,1.8c0.7,0.2,1.7,0.2,2.2-0.2c1-0.8,1.9-1.8,2.5-2.8
        c3.4-6.4,6.7-12.9,9.9-19.4c3.2-6.4,6.4-12.9,9.5-19.4C683.7,37.8,682.9,37.4,681.9,36.9z M688.3,31.9c1-2.8,2.1-5.5,2.7-8.2
        c0.7-3-1-5.7-4-7.1c-3.2-1.5-6.3-1.1-8.3,1.4c-1.6,2-2.8,4.4-4.3,6.7C679.2,27.1,683.6,29.4,688.3,31.9z M676,34.2
        c-1.1,2.2-2,4.3-3.1,6.4c-5.7,10.8-11.5,21.6-17.3,32.3c-0.8,1.4-0.6,2.6,0.5,4.2c1.1-1.4,2.3-2.6,3.1-4
        c6.2-11.3,12.4-22.5,18.6-33.8c0.6-1.1,1.2-2.3,1.8-3.5C678.3,35.3,677.3,34.8,676,34.2z M657.5,78.9c-3,1.8-3,1.8-4.5-1.5
        c-0.6,0.5-1.2,1.1-1.8,1.6c-1.2,0.9-1.8,0.8-2.4-0.6c-0.3-0.7-0.5-1.4-0.9-2.5c0,4.3,0,8.1,0,11.9c0,0.2,0.3,0.5,0.6,0.6
        c1.4,0.7,2.7,1.3,4.4,2.1c2.3-2.5,4.8-5.1,7-7.3C659,81.7,658.3,80.4,657.5,78.9z"/>
    <path fill="#E84545" d="M650.3,99.7c0.7,0.3,1.9,0.8,2.9,1.5c1.5,1.1,2.9,1.1,4.2,0c2.3-2.1,5.2-1.6,7.5,0.5
        c0.1,0.1,0.2,0.1,0.2,0.2c2.8,2.5,2.8,2.5,5.5,0c3.4-3.2,8-2.7,9.9,1.2c0.2,0.5,0,1.2,0,1.9c-0.6-0.1-1.2-0.3-1.8-0.4
        c-0.1,0-0.2-0.2-0.3-0.3c-2.5-2.9-4-2.5-6.5-0.1c-0.3,0.3-0.5,0.5-0.8,0.8c-2.5,2.4-3.9,2.4-6.4,0c-0.3-0.3-0.6-0.6-0.9-0.9
        c-1.7-1.5-3.1-1.7-4.9-0.3c-1.9,1.5-3.8,1.6-5.7,0.2c-0.3-0.2-0.6-0.3-0.9-0.4c-1.8-1.1-3.6-1.1-5.3,0.3c-0.4,0.4-1.3,0.2-2,0.3
        c0.1-0.6,0-1.4,0.3-1.9C646.3,100.4,648,100,650.3,99.7z"/>
</g>
<g>
    <g>
        <path fill="#951556" d="M1320.3,350.9c1.1,0.8,2.2,1.5,3.2,2.3c0.8,0.7,1.6,1.6,2.1,2.5c0.5,0.8,0.4,1.7-0.6,2.3
            c-1.8,1-1.8,1.2-1.2,3.1c0.4,1.2,0,2-1.1,2.4c-0.9,0.4-1.9,0.8-2.9,0.8c-4.3,0.1-8.7,0.1-13,0.1c-2.1,0-4.3-0.4-6.4-0.5
            c-0.4,0-1.1,0.4-1.1,0.6c-0.1,2.6-0.5,5.2,0.7,7.7c0.4,0.8,0.6,1.7,0.7,2.6c0.1,0.8-0.6,1.2-1.1,0.5c-1.2-1.4-2.4-1.4-3.7-0.4
            c-0.1,0.1-0.3,0.1-0.4,0.1c-0.5-0.1-1-0.3-1.5-0.5c0.2-0.4,0.4-0.9,0.7-1.1c1.3-0.7,1.8-1.9,1.9-3.2c0.2-2.1,0.3-4.1,0.3-6.2
            c0-0.3-0.4-0.7-0.7-0.8c-2.5-0.8-5-1.6-7.5-2.4c-1-0.3-2-0.5-3.1-0.8c-0.4,1.9-0.8,3.5-1.1,5.2c-0.3,1.4-0.2,2.7,0.3,4
            c0.3,0.8,0.1,1.8,0.1,2.6c0,0.3-0.5,0.6-0.7,0.9c-0.2-0.3-0.6-0.5-0.7-0.8c-0.3-0.6-0.5-1.2-0.7-2c-0.7,0.7-1.2,1.3-1.9,1.7
            c-0.4,0.2-1.1,0.1-1.6,0.1c0.1-0.5,0-1.1,0.2-1.6c0.1-0.4,0.6-0.6,0.9-0.9c0.6-0.9,1.3-1.8,1.6-2.8c0.6-2.2,0.9-4.5,1.5-6.7
            c0.2-0.8,0-1.2-0.6-1.6c-1.1-0.8-2.2-1.7-3.2-2.6c-6-5.2-9.7-11.9-11.8-19.5c-0.7-2.6-1.9-4.2-4.5-5.3c-2.8-1.2-5.4-3.1-8.1-4.7
            c0-0.2,0-0.3,0-0.5c0.9-0.6,1.8-1.4,2.8-1.8c2.1-0.9,4.3-1.6,6.5-2.4c1-0.4,1.6-0.8,1.8-2.1c0.3-2.6,1.4-5.1,2.8-7.3
            c2.3-3.5,5.8-5,9.7-5.7c4.3-0.8,8.7-1.1,12.9,0.5c5.7,2.1,8.7,6.5,9.8,12.2c0.8,4.2,1,8.6,1.4,12.9c0.1,0.9,0.4,1.2,1.2,1.5
            c2.8,1,5.7,2,8.3,3.4c3.4,1.9,5.9,4.8,8.2,8c1.7,2.5,1.4,3.7-1.6,4.7C1319.4,350.1,1319.8,350.5,1320.3,350.9z M1308.3,337.7
            c-1.8-0.8-3.7-1.2-5.7-1.6c-1.2-0.3-1.9-0.9-2.2-2c-0.2-1-0.2-2-0.3-2.9c-0.1-4.5-0.7-9-2.1-13.3c-2-6.1-6-9.1-12.4-9.4
            c-3.8-0.2-7.4,0.6-10.8,2c-3.2,1.3-4.7,4.1-5.6,7.1c-1.3,4.2-1.1,8.5-0.3,12.8c1.2,6.2,3.1,12.2,6.7,17.5
            c4.3,6.4,10.4,10.2,17.6,12.3c7,2.1,14.2,2.5,21.5,2.1c1.8-0.1,3.5-0.5,5.2-0.8c0.3,0,0.6-0.2,0.7-0.4c0.1-0.2-0.2-0.5-0.3-0.8
            c0,0-0.1-0.1-0.1-0.1c-0.4-0.6-0.9-1.3-1.3-1.9c0.7-0.4,1.4-0.8,2.2-1.2c0.3-0.1,0.7-0.1,1-0.2c0.9-0.3,1-0.8,0.4-1.5
            c-0.4-0.4-0.9-0.8-1.4-1.2c-1.7-1.2-3.4-2.4-5-3.6c-1.4-1.1-1.2-2,0.5-2.6c0.5-0.2,1-0.3,1.6-0.5
            C1315.4,343.5,1312.7,339.7,1308.3,337.7z M1265.5,326.8c-0.1-0.9-0.1-1.8-0.2-2.8c-2.2,0.6-4.3,1.1-6.4,1.7
            c0,0.1-0.1,0.2-0.1,0.4c2.3,1.3,4.5,2.5,7,3.9C1265.6,328.6,1265.6,327.7,1265.5,326.8z"/>
        <path fill="#951556" d="M1306,355.5c0.7,0,1.5,0.2,2.1,0c0.7-0.2,1.7-0.7,2-1.3c0.5-0.9,0.1-1.9-0.7-2.7c-0.4-0.3-0.7-0.6-1.1-0.9
            c-0.9-0.9-0.9-1.3,0.2-2c2.4-1.6,2.5-2.5,0.5-4.5c-1.4-1.4-2.9-2.8-4.4-4.1c-0.7-0.6-1.8-1.2-2.5-0.3c-0.7,0.9,0.3,1.7,0.9,2.3
            c1,1,2.2,1.8,3.2,2.8c0.5,0.5,0.9,1.2,1.4,2c-1,0.4-1.8,0.7-2.6,1.1c-1.5,0.9-1.6,1.8-0.1,2.8c0.5,0.3,1,0.6,1.5,1
            c0.2,0.2,0.4,0.7,0.3,1c-0.1,0.2-0.6,0.4-0.9,0.5c-0.3,0.1-0.7,0.1-1,0.1c-1.7,0.3-1.7,0.4-1.3,1.9c0.3,1.2-0.1,1.6-1.6,1.3
            c-3.5-0.9-6.8-2.2-9.6-4.5c-3.2-2.5-5.2-5.8-6.5-9.5c-0.4-1.1-0.8-2.2-1.4-3.2c-0.2-0.3-0.7-0.4-1.1-0.7c-0.2,0.4-0.5,0.7-0.5,1.1
            c0,0.9-0.1,1.8,0.1,2.6c1.6,4.9,3.8,9.3,8.4,12.3c3.3,2.1,6.7,4,10.7,4.6c0,0,0.1,0,0.1,0C1305.5,359.8,1306.6,358.6,1306,355.5z"
            />
        <path fill="#951556" d="M1279.8,316.4c4.4,0.1,7.5,2.9,7.4,6.8c-0.1,3.4-3.2,6.1-7,6.1c-3.5,0-5.9-2.9-5.9-6.8
            C1274.3,318.9,1276.6,316.4,1279.8,316.4z M1280.3,326.9c2.3-0.1,4.2-1.5,4.3-4.2c0.1-2.3-2-4.2-4.6-4.2c-2.1,0-3.6,1.8-3.6,4.3
            C1276.4,325.1,1278.1,327,1280.3,326.9z"/>
        <path fill="#951556" d="M1278.3,322.8c0,1.2,1.3,2.4,2.6,2.4c1.4,0,2.4-1,2.4-2.2c0-1.3-1.6-2.6-3.1-2.5
            C1279.1,320.5,1278.3,321.4,1278.3,322.8z"/>
    </g>
    <path fill="none" stroke="#F2910A" stroke-width="4.2964" stroke-miterlimit="10" d="M1255.2,289.3c0.4-2.3-0.7-3.9-2.3-5.1
        c-6.3-4.5-11-10.6-15.2-17c-2.1-3.2-3.7-6.7-5.1-10.3c-2.1-5.6-1.4-11.1,1.6-16.3c1.2-2.1,2.6-4.1,3.6-6.3
        c5.1-10.8,5.5-21.7,0.2-32.5c-2.7-5.5-7.6-9-13.1-11.4c-13.8-6.1-28.3-7.8-43.2-7c-6.5,0.4-12.8,1.5-18.8,3.9
        c-6.7,2.5-11.5,6.9-14,13.7c-5.9,16-7.1,32.3-3,49c1.5,5.9,4.1,11.3,8.5,15.7c2.7,2.7,5.9,4.8,9.8,5.5c6.7,1.3,13.5,2.6,20.3,3.4
        c7.9,1,15.6-0.2,23.2-2.2c2-0.5,4.1-0.8,6.2-1.4c2.2-0.6,4.1-0.2,6,1c6.2,4,12.4,8,18.7,11.9C1243.5,287.1,1249,289.1,1255.2,289.3
        z"/>
    <g>
        <path fill="#951556" d="M1208.7,232.4c0-5.2,0-10,0-15.1c-7,2.2-14.2,2.9-21.4,2.2c0,3,0,6,0,9c0,2.2,0.2,4.5,0.2,6.7
            c0.1,7.9-8.8,15.2-16.6,13.5c-3.9-0.8-5.7-4.5-3.9-8c1.8-3.6,5-5.3,8.9-5.7c2.9-0.3,5.9-0.1,8.9-0.1c0-1.9,0-4.3,0-6.6
            c-0.1-5.5-0.2-11.1-0.3-16.6c0-2.1,0.2-2.3,2.3-2.1c6.9,0.6,13.3-1.5,19.6-4.1c0.9-0.4,1.8-0.7,2.7-1.1c1.4-0.6,2.1,0,2.3,1.3
            c0.1,0.6,0.1,1.2,0.1,1.8c0,8.6,0,17.2-0.1,25.8c-0.1,5.1-2.4,9.1-6.3,12.3c-1.7,1.4-3.8,2-6.1,1.5c-3.1-0.6-4.5-2.6-4.1-5.7
            c0.7-4.7,5.1-8.7,10-8.9C1206.1,232.4,1207.3,232.4,1208.7,232.4z M1209,207.6c-7.3,2.8-14.5,4.6-22.1,4.8c0,0.5-0.1,0.8-0.1,1.1
            c0,0.7-0.1,1.5,0.1,2.1c0.2,0.5,0.8,1.2,1.2,1.2c6.7,0.5,13.3-0.2,19.7-2.3c0.5-0.1,1.1-0.7,1.1-1.1
            C1209.1,211.5,1209,209.7,1209,207.6z M1184,238.2c-4.1-1.1-8-1.3-11.7,0.7c-1,0.5-1.9,1.3-2.6,2.1c-1.8,2.2-0.9,4.5,1.9,5.1
            c4.1,0.9,11.1-3.1,12.4-7C1184,238.9,1184,238.7,1184,238.2z M1208.1,234.6c-1.1,0.1-2.1,0.1-3.1,0.3c-3.4,0.7-6.1,2.5-7.5,5.8
            c-1,2.5-0.1,3.7,2.6,3.6C1204,244.1,1208.1,239.3,1208.1,234.6z"/>
    </g>
</g>
<g>
    <path fill="#951556" d="M1092.7,77.2c-1.7,0.1-3.3,0.8-4.1,0.2c-1.6-1.1,0.5-2.1,0.6-3.4c-0.7-0.8-1.5-1.7-2.4-2.5
        c-0.3-0.3-0.8-0.5-1.2-0.5c-4.6,0.5-8.6-1.2-11.7-4.2c-3.5-3.3-6.6-7.2-9.7-10.8c-0.5-0.6-0.9-1.5-1.1-2.3
        c-0.1-0.5,0.1-1.5,0.3-1.6c0.5-0.2,1.4-0.1,1.7,0.3c1.3,1.3,2.5,2.8,3.7,4.2c1.3,1.4,2.6,2.6,4,3.9c0.2-0.2,0.4-0.3,0.6-0.5
        c-0.3-0.6-0.5-1.4-1-1.9c-1.6-2.1-3.3-4.1-4.8-6.3c-0.5-0.7-0.4-1.7-0.5-2.6c0.8,0.3,1.7,0.5,2.3,1.1c1.6,1.6,3,3.4,4.5,5.1
        c0.5,0.5,1.1,0.9,1.8,1.2c-1-4-5.1-6.1-5.9-10.3c3.7,1,5,4.9,8.3,6.6c-0.2-0.5-0.4-1.1-0.8-1.6c-1.2-1.6-2.4-3.2-3.5-4.8
        c-0.4-0.5-0.8-1-0.9-1.5c-0.1-0.7,0-1.4,0.1-2.1c0.7,0.2,1.5,0.3,2,0.7c0.9,0.9,1.7,2,2.5,3.1c2.9,3.8,6,7.5,8.7,11.5
        c1.5,2.2,2.1,5.1,3.4,7.5c0.9,1.7,2.3,3.1,3.4,4.6c1.4-0.6,2.2-2.4,3.7-0.9c1.4,1.4,0.2,2.5-0.8,3.7c2.1,2.1,4.2,4.1,6.2,6.1
        c9.1,8.6,18.2,17.2,27.2,25.9c1.4,1.3,2.1,3.5,2.7,5.4c0.7,2.3,1,4.6,1.6,7.5c-5.3-1.1-10.3-0.9-13.7-5.3
        c-7.3-9.5-14.5-18.9-21.8-28.4C1096.4,81.9,1094.4,79.4,1092.7,77.2z M1128,112.6c0.2-2.3-2.5-5.2-4.9-5.2
        C1123.2,109.5,1126,112.4,1128,112.6z"/>
</g>
<g>
    <path fill="#25A55F" d="M145.4,123c2.2-2.1,5.5-2.4,8.6-3.3c6.9-1.9,13-5.4,18.5-10c0.6-0.5,1.2-1,1.4-1.6c0.7-1.6,2.1-2.1,3.5-2.5
        c8.4-2.5,16.1-0.1,21.4,7.3c5.8,8,9.1,17,9,27.1c0,2.4-0.4,4.9-1,7.3c-1.1,4.5-3.9,7.9-7.5,10.6c-6.8,5-14.6,7.7-22.9,9.2
        c-1,0.2-1.7-0.1-2.3-1c-4.7-7-9.6-13.9-14-21.1c-3-4.9-7-8.7-11.3-12.2c-2.3-1.9-4.7-3.6-7-5.5c-1.4-1.1-1.4-1.5,0.2-2.4
        C143,124.4,144,123.8,145.4,123z M152.1,122.1c2,5.1,3.9,10.2,6,15.3c2.5,6,5.9,11.4,9.5,16.7c2.3,3.4,4.7,6.8,7.1,10.2
        c0.6,0.9,1.4,1.1,2.5,0.9c5.1-1,10.1-2.4,14.8-4.8c3.4-1.8,6.8-3.8,9.5-6.6c1.4-1.5,2.1-3.2,1.2-5.2c-2-4.3-3.8-8.7-6.2-12.7
        c-3.4-5.7-7.3-11-11.2-16.4c-2.4-3.3-5.1-6.5-7.7-9.7c-0.4-0.5-0.9-0.8-1.3-1.1C169.4,115.5,161.2,119.4,152.1,122.1z M204.5,148.2
        c0.1-0.5,0.3-0.9,0.3-1.3c1.8-10.4,0.2-20.2-5.1-29.4c-2.4-4.1-5.4-7.6-9.7-9.6c-4.2-2-8.4-2-12.8-0.5c0.8,0.7,1.4,1.4,2.1,1.9
        c0.3,0.2,0.8,0.4,1.2,0.3c4.1-1,7.7,0,10.9,2.6c2.6,2.1,4.4,4.9,5.8,8c2.7,5.8,4.2,11.7,3.1,18.1c0,0.2,0,0.5,0.1,0.7
        C201.7,142,203.1,145,204.5,148.2z M198.5,135.1c0-0.2,0.1-0.4,0.1-0.7c-0.1-6.7-2.1-12.8-5.8-18.3c-1.3-1.9-3-3.4-5-4.3
        c-2-1-4.2-1.2-6.2-0.6C187.1,119.3,192.8,127.2,198.5,135.1z M143.1,126.4c4.1,3.3,8.1,6.5,12.2,9.7c-1.7-4.6-3.4-9.1-5.1-13.8
        C147.8,123.8,145.4,125.1,143.1,126.4z"/>
    <path fill="#25A55F" d="M174.5,170.6c1.3-0.3,2.3-0.6,3.3-0.9c9.8-2.5,18.7-7,26.2-13.9c1.5-1.3,2.7-2.9,4-4.3
        c0.9-1,1.7-1.2,2.5-0.2c1.2,1.5,2.2,3.2,3.1,4.9c0.2,0.5-0.2,1.6-0.7,2c-1.3,1.3-2.7,2.5-4.1,3.4c-9,5.8-18.5,10.7-28.7,14
        c-2.2,0.7-2.2,0.7-3.4-1.4C175.9,173.1,175.3,172,174.5,170.6z M209.3,153.2c-9,9.6-19.8,15.7-32.5,18.5c0.2,0.4,0.4,0.7,0.4,0.9
        c0.5,1.4,1.4,1.6,2.7,1.2c2.6-0.9,5.2-1.5,7.7-2.5c8-3.3,15.2-7.9,22.2-13c2.1-1.5,1.8-0.8,0.6-3.1
        C210.1,154.6,209.7,153.9,209.3,153.2z"/>
    <path fill="#25A55F" d="M160,108c2.9-1.2,5.7-2.5,8.7-3.5c1.2-0.4,2.6-0.4,3.9-0.1c1.8,0.3,2.2,1.4,0.8,2.7
        c-1.8,1.7-3.7,3.2-5.7,4.6c-3.5,2.4-7.3,4.3-11.5,5.2c-1,0.2-2,0.3-2.9,0.3c-1.9-0.1-2.5-1.5-1.3-2.9c1.1-1.2,2.4-2.3,3.8-3.3
        c1.4-1,3-1.7,4.5-2.6C160.1,108.3,160,108.2,160,108z M153.8,115.3c4.1,0.6,16.2-6.4,18-9.2C168.3,105.4,155.3,111.9,153.8,115.3z"
        />
    <path fill="#25A55F" d="M198.5,135.1c-5.7-7.9-11.3-15.9-17-23.9c2.1-0.6,4.2-0.4,6.2,0.6c2.1,1,3.8,2.4,5,4.3
        c3.7,5.5,5.7,11.6,5.8,18.3C198.5,134.7,198.5,135,198.5,135.1z"/>
    <path fill="#25A55F" d="M143.1,126.4c2.3-1.3,4.7-2.6,7.1-4c1.7,4.6,3.4,9.2,5.1,13.8C151.2,132.9,147.2,129.7,143.1,126.4z"/>
    <path fill="#25A55F" d="M172.4,142.7c-2.6-5.3-5.2-10.6-7.7-15.9c-0.7-1.5-1-3.1-1.3-4.7c-0.3-1.2,0.1-2.1,1.4-2.7
        c2.4-1.3,4.7-1.2,6.7,0.6c1.8,1.7,3.6,3.5,4.9,5.6c3.9,6.1,7.6,12.3,11.2,18.6c1.5,2.6,2.5,5.5,2.9,8.5c0.4,3.4-1,5.8-3.9,7.5
        c-0.9,0.5-1.7,0.3-2.3-0.4c-1.7-2.1-3.5-4.1-5-6.4c-2.2-3.6-4.2-7.3-6.3-11C172.7,142.6,172.6,142.7,172.4,142.7z M168.4,131.7
        c0.7-0.4,1.2-0.8,1.9-1c0.4-0.1,0.9,0.2,1.3,0.4c-0.2,0.3-0.3,0.8-0.6,1c-0.4,0.4-1,0.6-1.4,0.9c-0.2,0.1-0.3,0.4-0.4,0.6
        c0.1,0.1,0.2,0.2,0.3,0.3c0.5-0.3,0.9-0.7,1.4-0.8c0.5-0.1,1,0.2,1.5,0.3c-0.2,0.4-0.4,0.9-0.7,1.2c-0.4,0.4-0.9,0.6-1.4,0.9
        c0.3,0.5,0.5,0.9,0.9,1.5c1.6-0.9,3.1-1.8,4.7-2.6c0.6-0.4,1.4-0.6,1.8,0.1c0.1,0.2-0.5,1.1-0.9,1.3c-1.5,1-3.1,1.8-4.7,2.7
        c0.3,0.6,0.5,0.9,0.7,1.2c0.6-0.4,1.2-0.9,1.8-1.1c0.4-0.1,0.9,0.2,1.4,0.3c-0.2,0.4-0.3,0.8-0.6,1.1c-0.3,0.3-0.9,0.4-1.2,0.7
        c-0.2,0.2-0.3,0.6-0.4,1c0.1,0.1,0.3,0.1,0.4,0.2c0.4-0.2,0.7-0.6,1.1-0.6c0.4,0,0.9,0.2,1.4,0.3c-0.2,0.4-0.3,0.8-0.5,1.1
        c-0.3,0.3-0.8,0.5-1.1,0.7c0.3,1,0.8,1,1.5,0.6c1.6-0.9,3.1-1.8,4.8-2.6c0.4-0.2,1.1,0.2,1.6,0.3c-0.2,0.4-0.4,0.9-0.7,1.2
        c-0.6,0.5-1.2,0.8-1.9,1.1c-1.2,0.7-2.4,1.4-3.6,2c0.6,1,1.1,1.9,1.5,2.7c0.5-0.3,0.9-0.7,1.4-0.8c0.6-0.1,1.2,0,1.7,0
        c-0.3,0.5-0.5,1-0.9,1.4c-0.3,0.3-0.8,0.5-1.4,0.8c0.4,0.5,0.6,0.7,0.8,1.1c0.5-0.3,0.8-0.6,1.2-0.6c0.5,0,1,0.2,1.5,0.3
        c-0.2,0.4-0.4,0.9-0.7,1.2c-0.3,0.3-0.7,0.4-1.1,0.6c0,0.2,0.1,0.3,0.1,0.5c0.4,0,0.9,0.1,1.2,0c0.9-0.6,1.8-1.4,2.8-1.9
        c0.4-0.2,1.1,0,1.7,0.1c-0.2,0.4-0.4,1-0.8,1.3c-1,0.9-2.2,1.6-3.3,2.5c0.4,0.5,0.6,0.8,0.9,1.1c0.8-0.5,1.5-1.1,2.3-1.4
        c0.4-0.2,0.9,0.2,1.4,0.3c-0.2,0.4-0.3,0.8-0.6,1.1c-0.5,0.5-1.2,0.8-1.8,1.2c1.2,1.2,1.7,1.2,2.7,0.2c1.1-1.1,1.5-2.6,1.2-4.1
        c-0.6-2.5-1.1-5.2-2.2-7.5c-3.1-6-6.3-11.9-9.8-17.7c-1.5-2.5-3.6-4.7-5.6-6.8c-0.9-1-2.2-1.5-3.7-1.3c-1.9,0.2-2.5,1.4-1.8,3.3
        c0.3-0.2,0.6-0.4,0.9-0.4c0.6,0,1.2,0.1,1.9,0.2c-0.3,0.4-0.6,1-1,1.3c-0.4,0.4-1,0.6-1.5,0.9c0.1,0.2,0.2,0.3,0.2,0.5
        c0.4-0.2,0.8-0.3,1.1-0.5c0.7-0.4,1.4-0.6,1.8,0.1c0.1,0.2-0.5,1-0.9,1.4c-0.4,0.4-0.9,0.7-1.4,1c0.1,0.1,0.2,0.2,0.2,0.3
        c1.2-0.7,2.4-1.3,3.5-2c0.6-0.4,1.4-0.7,1.8,0.1c0.1,0.2-0.4,1.1-0.8,1.4c-1.2,0.9-2.5,1.7-3.7,2.5
        C167.9,130.9,168.1,131.2,168.4,131.7z"/>
</g>
<g>
    <path fill="#F2910A" d="M1329.8,143c0.9,3-1.1,6.9-4.4,8.6c-2.2,1.2-4.6,1.4-6.8,0.6c-4.3-1.4-8.5-3-12.7-4.6
        c-5.2-2-10.3-4.1-15.4-6.2c-1.3-0.5-2.5-1.2-3.6-1.9c-5.5-3.2-11-6.2-16.3-9.7c-2.4-1.6-4.5-3.8-6.4-6c-1.8-2.2-1.3-4.6,0.7-6.6
        c2.1-2.1,4.8-2.9,7.7-2.9c8.7-0.1,17,1.6,25,5.1c9.3,4.1,18.3,8.6,25.8,15.6C1326.1,137.5,1328.5,140,1329.8,143z M1288.3,118.4
        c0.1,0.9,0.1,1.4,0.1,1.9c0,2.3-0.7,4.1-2.8,5.3c-0.4,0.2-1,0.1-1.4,0.2c0-0.5-0.2-1.2,0-1.5c1.1-1.7,0.9-3.6,0.7-5.4
        c-0.1-1-0.5-1.5-1.6-1.6c-2.9-0.3-5.7-0.7-8.6-0.9c-1.9-0.1-3.9,0-5.7,0.4c-3.4,0.8-4.4,4.5-2.1,7c0.9,1,2,2,3.2,2.7
        c7.2,4.3,14.5,8.6,21.8,12.8c0.6,0.4,1.3,0.6,2,0.8c6.9,1.7,12.9,5.2,19.4,7.9c2.9,1.2,6.1,1.7,9.3,2c3.7,0.4,6.4-4.7,4.2-7.6
        c-3.3-4.5-7.9-7.4-12.2-10.9c-0.8,4.7-2.1,6.3-5.1,6.7c0.1-0.7,0.1-1.3,0.3-1.8c0.3-0.8,1-1.6,1-2.5c0.2-1.6,0.7-4.1-0.2-4.8
        c-2.3-2-5.3-3.3-8.2-5.1c0.1,5.4-2.9,9-6.3,7.8c0.6-0.8,1.1-1.5,1.6-2.2c1.4-1.8,2.1-3.8,1.5-6.1c-0.1-0.5-0.5-1.1-1-1.3
        C1295.2,121,1291.9,119.7,1288.3,118.4z"/>
</g>
<g>
    <path fill="#951556" d="M163,332.5c-2.9,0-5.7,0-8.5,0c-3,0-4.2-1.2-4.2-4.1c0-9.3,0-18.6,0-27.8c0-3,1.2-4.1,4.2-4.2
        c0.8,0,1.7,0,2.5,0c1.7,0,3.3,0.5,4.1-2.1c0.6-2.2,3-2.1,5-1.8c2.1,0.3,3,1.8,3.3,3.9c2.2,0,4.4,0,6.6,0c1.3-3.6,1.8-3.9,5.7-3.9
        c1.3,0,2.5,0,3.8,0c3.7,0,4.4,0.5,5.5,4c7.5,0,15,0,22.8,0c0-1,0-2,0-3c0.1-2.2,1.1-3.4,2.9-3.5c1.8,0,2.8,1.2,2.8,3.4
        c0,1,0,1.9,0,3.1c3.9,0,7.7-0.1,11.4,0c1.9,0.1,3.7,0.5,5.6,0.8c0.4,0,0.7-0.2,1.1-0.3c1.3-0.2,2.6-0.5,3.9-0.4
        c1.6,0.2,2.5,1.3,2.6,3c0.1,2,0.1,4,0.1,6c0,6.1,0,12.2,0,18.3c0,4.3-1.2,5.4-5.5,4.8c-0.3,0-0.6,0-1-0.1c0,11.9,0,23.8,0,35.7
        c-30.8,0-61.4,0-92.3,0c0-3.2,0.1-6.5,0-9.7c0-0.8-0.7-1.7-0.9-2.5c-0.2-1-0.7-2.2-0.3-3c0.3-0.7,1.5-1.2,2.4-1.6
        c0.4-0.2,1.1,0,1.6,0c19.9,0,39.8,0,59.7,0c0.7,0,1.4,0,2.2,0c0-7.7,0-15.3,0-23c-10.6,0-21.2,0-32.1,0c0,1.4,0,2.8,0,4.2
        c-0.1,2.6-1.3,3.9-3.9,3.9c-2.9,0-5.9,0-9,0c0,1.2,0,2.3,0,3.6c0.5-0.4,0.8-0.7,1.3-1.1c0,1,0,1.6,0,2.5c-0.5-0.3-0.8-0.5-1.4-0.8
        c0,2.5,0,4.9,0,7.4c-0.6-2-1.1-3.9-1.7-5.8c-0.2-0.1-0.4-0.1-0.6-0.2c-0.1,0.4-0.3,0.8-0.4,1.2c-0.2-0.1-0.3-0.2-0.5-0.3
        c0-0.7,0-1.4,0-2.3c0.4,0.2,0.7,0.5,1.2,0.8C163,335.9,163,334.3,163,332.5z M236,347.2c0-0.4,0.1-0.6,0.1-0.9
        c0-15.4,0-30.7,0-46.1c0-2-0.6-2.5-2.7-2.5c-7.1,0-14.2,0-21.3,0c-19.1,0-38.2,0-57.3,0c-2.5,0-3,0.4-3,2.9c0,9.1,0,18.2,0,27.3
        c0,2.4,0.4,2.8,2.9,2.8c5.4,0,10.7,0,16.1,0c5.9,0,5.4,0.4,5.4-5.4c0-2.4,0.4-2.8,2.8-2.8c9.9,0,19.9,0,29.8,0c2.5,0,2.9,0.4,2.9,3
        c0,6.6,0,13.1,0,19.7c0,0.6,0.1,1.3,0.1,1.9C220,347.2,227.9,347.2,236,347.2z M147.1,362.5c29.8,0,59.3,0,88.9,0
        c0-3.2,0-6.2,0-9.3c-29.7,0-59.2,0-88.9,0C147.1,356.3,147.1,359.3,147.1,362.5z M236,349c-0.8,0-1.4,0-2,0c-8.5,0-17-0.1-25.5-0.1
        c-20.2,0-40.4,0-60.5,0c-0.6,0-1.3-0.1-1.8,0.2c-0.4,0.2-0.8,0.8-0.8,1.2c0,0.3,0.6,0.8,1,1c0.3,0.2,0.8,0,1.2,0
        c28.8,0,57.6,0,86.4,0c0.6,0,1.3,0,1.9,0C236,350.4,236,349.8,236,349z M237.8,312.4c0,4.2,0,8.3,0,12.5c0,1.5,0.5,2.2,2.1,2.2
        c1.5,0,2.7-0.3,2.7-2.1c0-8.3,0-16.6,0-24.9c0-1.9-1.2-2.1-2.7-2.1c-1.5,0-2.2,0.6-2.1,2.2C237.9,304.2,237.8,308.3,237.8,312.4z
         M177.9,296.2c3.8,0,7.5,0,11.1,0c-0.1-1.6-0.9-2.3-2.3-2.3c-2.2-0.1-4.4-0.1-6.7,0C178.8,293.9,177.9,294.6,177.9,296.2z
         M162,296.2c1.9,0,3.6,0,5.4,0c0.1-1.8-1-2.3-2.4-2.4C163.5,293.8,162.2,294.2,162,296.2z M217.8,296.2c0-1.3,0.1-2.5,0-3.6
        c-0.1-0.4-0.8-1.2-1-1.1c-0.5,0.1-1.2,0.7-1.3,1.1c-0.2,1.1-0.1,2.3-0.1,3.6C216.3,296.2,216.9,296.2,217.8,296.2z"/>
    <path fill="#951556" d="M177.9,296.2c0-1.6,0.9-2.3,2.2-2.3c2.2-0.1,4.4-0.1,6.7,0c1.4,0,2.2,0.8,2.3,2.3
        C185.3,296.2,181.7,296.2,177.9,296.2z"/>
    <path fill="#951556" d="M162,296.2c0.2-2,1.5-2.5,3.1-2.4c1.4,0.1,2.4,0.6,2.4,2.4C165.6,296.2,163.9,296.2,162,296.2z"/>
    <path fill="#951556" d="M217.8,296.2c-0.9,0-1.5,0-2.4,0c0-1.2-0.1-2.4,0.1-3.6c0.1-0.4,0.8-1,1.3-1.1c0.2-0.1,0.9,0.7,1,1.1
        C217.9,293.8,217.8,294.9,217.8,296.2z"/>
    <path fill="#951556" d="M214.3,310c0-4,3.2-7.2,7.2-7.3c3.9,0,7.3,3.3,7.3,7.2c0,3.9-3.3,7.3-7.2,7.3
        C217.6,317.3,214.3,314,214.3,310z M227.1,310c0-3.1-2.5-5.6-5.6-5.6c-3.1,0-5.7,2.7-5.7,5.8c0.1,3.1,2.7,5.6,5.7,5.5
        C224.8,315.6,227.1,313.1,227.1,310z"/>
    <path fill="#951556" d="M226.3,323c2.5,0,4.5,1.9,4.5,4.4c0,2.5-1.9,4.5-4.4,4.5c-2.4,0-4.4-1.9-4.4-4.3
        C221.9,325.1,223.8,323.1,226.3,323z M226.4,324.6c-1.5,0-2.9,1.4-2.8,2.9c0.1,1.5,1.5,2.8,3,2.8c1.4-0.1,2.7-1.5,2.6-2.9
        C229.1,325.9,227.8,324.6,226.4,324.6z"/>
</g>
<g>
    <path fill="#25A55F" d="M290.5,49.7c-0.5-7.5-0.9-14.8-1.4-22.3c-6.7-0.3-13.6,1.2-20.3-1c0.4,4.1,0.7,8.2,1.1,12.3
        c0.4,4.6,0.9,9.2,1.2,13.9c0.4,6.2-7.6,13.3-13.4,11.9c-3.7-0.9-5.4-3.9-4.3-7.5c1.2-4.1,5-6.7,10.1-7c1.5-0.1,3,0,4.6,0
        c-0.3-4.4-0.7-8.9-1-13.4c-0.4-4.9-0.7-9.7-1.1-14.6c-0.1-1.8,0.5-2.3,2.4-1.9c4.1,0.7,8.3,1.5,12.4,2c2.9,0.3,5.8-0.2,8.4-1.5
        c1.9-0.9,2.5-0.5,2.5,1.5c0,3.7-0.2,7.5,0.1,11.2c0.4,5.6,1,11.3,1.7,16.9c0.9,6.7-3.8,13.7-10.2,14.6c-4.7,0.7-7.5-2.4-6.2-7
        c1.6-5.5,5.9-8.6,11.6-8.2C289.3,49.6,289.8,49.7,290.5,49.7z"/>
</g>
</svg>
