<svg xmlns="http://www.w3.org/2000/svg" width="1327.5" height="395.7" viewBox="0 0 1327.5 395.7">
  <g fill="#FFF">
    <path id="numero-8_2_" d="M965.4 193.6c2.8 3.4 4.7 7.1 5.8 10.8.8 2.7 1.2 5.4 1.2 8.2v1c-.1 3-.7 6-1.8 8.8-1.9 5.1-5.3 9.5-10.2 13-4.6 3.1-10 4.7-16.3 4.7h-1.7c-7.3-.3-13.1-1.7-17.4-4.2-4.2-2.4-7.2-5.5-9-9.2-1.1-2.3-1.8-4.8-2-7.5-.1-.9-.2-1.8-.2-2.7 0-1.8.2-3.6.5-5.3.9-5.1 2.8-9.9 5.8-14.3 3-4.6 6.6-8 10.7-10.2-3.2-1.2-6.1-3.8-8.5-7.8s-3.8-8.3-4.2-12.8c-.2-2.4-.1-4.8.5-7.2.6-2.3 1.6-4.5 3-6.5 1.8-2.4 4.4-4.4 7.8-5.8 3.3-1.4 7.7-2.2 13-2.2h.3c4.2 0 7.8.7 10.7 2s5.2 3.1 7 5.3c1.4 1.8 2.6 3.7 3.3 5.8.8 2.1 1.2 4.3 1.2 6.5.2 4.2-.7 8.2-2.7 12-1.9 3.9-4.6 6.7-8.2 8.3 4.7 2.8 8.5 5.8 11.4 9.3zm-28.9 4.3c-1.3 1.7-2.6 3.5-3.7 5.5-2.1 3.8-3.7 7.9-4.8 12.3-.4 2.3-.7 4.4-.7 6.3 0 2 .2 3.8.7 5.5.6 1.7 1.4 3.1 2.7 4.2 1.2 1.2 2.8 2.1 4.8 2.5 1 .2 1.9.3 2.8.3 2.9 0 5.3-1 7.3-3 2.7-2.7 4.4-6.1 5.2-10.3.2-1.4.3-2.9.3-4.5v-2.6c-.2-2.6-.8-5.1-1.7-7.5-.9-2.3-2.1-4.6-3.5-6.7-1.6-2.1-3.4-4-5.7-5.7-1.2.9-2.5 2.2-3.7 3.7zm7.5-48.4c-1.8 0-3.3.3-4.5 1s-2.2 1.6-3 2.8c-.7 1.2-1.1 2.6-1.3 4.2-.1.7-.2 1.4-.2 2.2 0 1 .1 2 .3 3 .4 3.2 1.7 6.4 3.7 9.5 1.9 3.1 4.3 5.2 7.2 6.3 3.2-1.9 5.8-5.4 7.8-10.5 1.1-2.8 1.7-5.3 1.7-7.5 0-2.1-.4-4-1.3-5.7-.8-1.6-1.9-2.8-3.5-3.8-1.7-1-3.9-1.5-6.7-1.5h-.2z"/>
    <path id="numero-1_2_" d="M893 162.7c.6 6.2 1.2 13.3 1.8 21.4.6 6.5 1.1 12.9 1.5 19.4.6 6.5.9 12.1 1.2 16.8.1 2.6.2 4.8.3 6.8v1.2c0 1.3-.1 2.3-.2 3-.2.6-.6 1.1-1 1.5.7.1 1.2.2 1.7.2 1.2.3 2.9.4 5 .2 2-.1 3 .7 3 2.5 0 .6-1.3 1-4 1.3-2.7.4-5.8.8-9.3 1.2l-3 .3c-.1 0-.2.1-.3.2-2.6 1.7-4.6 2.5-6 2.5-1.2 0-2.1-.6-2.7-1.7-.1-.1-.2-.3-.3-.5h-.5c-4.2.2-6.8.3-7.7.3.1-.8-.1-1.8-.5-3.2-.2-.3-.3-.6-.3-.8 0-.9.6-1.7 1.8-2.3.7.1 1.8.1 3.5 0h2c-.1-1.1-.3-2.3-.5-3.7-.7-4.2-1.2-8.9-1.5-14-.6-9.6-.7-19.9-.3-30.9.3-11.1.7-20.6 1.2-28.5-1.1 1.3-2.4 2.7-3.8 4-1.3 1.4-2.8 2.9-4.3 4.3-.8-.3-1.4-1.3-1.8-3-.2-.4-.3-.9-.3-1.5 0-1 .3-1.9 1-2.7 1.6-1.1 3.7-3 6.3-5.7 2.8-2.7 4.7-4.7 5.7-6 .7 1 2.5 1.7 5.5 2s5.1 1.7 6.2 4.2c-.3 1.1 0 4.9.6 11.2z"/>
    <path id="numero-0_2_" d="M835.9 146.7c4.4.2 8.2 1.3 11.2 3.3 3.1 1.9 5.6 4.4 7.3 7.7 3 5.1 4.6 11.3 4.7 18.7v1.3c0 6.9-.9 13.8-2.7 20.7-1.9 7.2-4.6 14-8 20.4-3.4 6.3-7.3 11.3-11.7 14.8-2.3 1.8-4.8 3.1-7.3 4-1.6.4-3.1.7-4.5.7-1.1 0-2.2-.1-3.2-.3-4.2-.9-7.9-2.5-11-4.8-3.2-2.3-6-5.2-8.2-8.7-3.6-5.3-6-11.6-7.3-18.8-.8-4.6-1.2-9.2-1.2-13.8 0-2.6.1-5.1.3-7.7.4-3.7 1.1-7.3 2-10.8.9-3.6 2-6.9 3.3-10 2.7-5.7 6.1-10.2 10.2-13.5 3.4-2.7 7.3-4 11.7-4 1 0 2 .1 3 .2.7.4 1.3 1.1 2 1.8 1.3-1 2.7-1.4 4.2-1.3 1.6-.1 3.3 0 5.2.1zm-13.8 13.7c-2 .9-3.6 2.3-4.8 4.2-2 3-3.2 7.1-3.5 12.2-.4 5.1-.3 10.5.3 16 1 8.5 2.9 16.2 5.7 23.4 2.7 7.2 5.3 11.1 7.8 11.7 3.9.9 7.5-1.4 10.8-7s5.9-12.3 7.8-20.2c.8-3.3 1.4-6.7 2-10.2.4-3.4.7-6.8.8-10 .2-6.1-.3-11.5-1.7-16.2-1.3-4.6-3.6-7.4-6.7-8.5-1.3-.3-3.3-.6-6-.7-2.2 0-3.9.2-5 .7.3 1.9.2 3.3-.5 4.3-2.6-.6-5-.5-7 .3z"/>
    <path id="numero-2_2_" d="M734.3 222.6c1.2-3.1 2.8-6.3 4.7-9.5 2.1-3.3 4.5-6.6 7.2-9.8s5.4-6.4 8.2-9.5c5.1-5.6 9.6-10.6 13.5-15s5.3-7.8 4.2-10c-1.1-2.3-2.5-4.2-4.2-5.5-1.7-1.2-3.5-2.1-5.5-2.5-4.4-1.1-9-.7-13.5 1.3-4.4 2-7 3.8-7.7 5.3-1.2 2.6-.7 5.3 1.7 8.3 2.4 2.9 4.4 3.6 5.8 2.2.6.6 1.2 1.2 1.8 2 .6.9.8 2 .7 3.3-1.2 2.3-3.7 3.4-7.5 3.2-3.8-.3-6.7-2.2-8.8-5.7-1.1-1.8-1.7-4.1-1.8-7v-.6c0-2.7.7-5.8 2-9.3 1.7-4.6 5.4-8.6 11.3-12.2 4.1-2.6 8.3-3.9 12.7-4 1.8 0 3.6.2 5.3.7 3.3.8 6.5 2.6 9.5 5.3s5.6 6.7 7.7 12c1.9 4.8 2.5 9.3 1.8 13.7-.6 4.3-1.9 8.5-4 12.3-2.6 4.7-5.7 9-9.5 13s-7.2 7.7-10.3 11c-1.7 1.9-3.2 3.7-4.5 5.3-1.2 1.7-2.1 3.2-2.7 4.7 2.9.2 6.3 1.1 10.2 2.7 3.9 1.7 7.5 3.1 10.8 4.2 1.9.6 3.6.9 5.2 1.2 1.6.2 2.8.1 3.8-.3.9 1.4 1.3 3 1.3 4.7.1.1.2.3.2.5-.1 1.6-.7 3.2-1.7 4.8-.6.1-1.2.2-1.8.2-2 0-4.8-.6-8.3-1.7-4.9-1.6-10.2-3-16-4.3-3.1-.8-6.3-1.4-9.5-1.8s-6.3-.6-9.2-.3c-1 .2-1.8.1-2.5-.5s-1.3-1.5-1.8-2.8c-.3-3.3.1-6.4 1.2-9.6z"/>
    <path id="letra-s_2_" d="M669.3 194.4c-.1-.8-.1-1.4 0-2 1-.9 1.9-2.5 2.8-4.8.9-2.4.7-3.7-.7-3.7-.9 0-2.4.6-4.7 1.7-2.1 1.2-3.2 3.1-3.3 5.5-.1.9.2 1.8 1 2.8.8.9 1.8 1.8 3 2.8 2.2 1.9 4.9 3.9 8 6 2.6 1.7 4.8 3.4 6.7 5.2 1.4-.9 2.9-1.8 4.5-2.7 5.7-3.1 8.9-6.1 9.7-8.8.8-.1 1.6-.1 2.3 0 .9 0 1.6.2 2 .5-.8 2.3-2.5 4.7-5.2 7-2.8 2.2-5.8 4.5-9.2 6.7-.3.2-.7.4-1.2.7l1 1.7c.7 1.2 1 2.4 1 3.7-.2 2.4-.8 4.7-1.7 6.8s-2 4-3.3 5.7c-1.4 1.7-3.1 3.1-5 4.3-1.8 1.2-3.6 2.2-5.5 2.8-2 .7-3.9 1.1-5.7 1.2-1.3 0-2.6-.2-3.8-.7-2.8-.9-4.2-3.1-4.3-6.7-.1-2.6 1.1-5.1 3.5-7.7 1.9-1.9 4.2-3.8 6.8-5.7-.3-.9-.7-1.7-1.2-2.5-1.1-1.7-2.3-3.3-3.7-4.8l-7.2-8.7c-2.3-2.8-3.5-6.5-3.5-11v-.2c0-2.4 1.5-5 4.5-7.5 2.2-1.9 4.7-2.8 7.3-2.8 1 0 2 .2 3 .5 5.6 1.3 8.8 3.9 9.8 7.7 1 3.9-1.1 6.8-6.3 8.8-.7-.5-1.2-1.1-1.4-1.8zm-5.5 39c1.9.8 3.5.2 4.8-1.7.7-1 1.1-2.4 1.3-4.3.2-1.7.1-3.8-.5-6.5-4.2 2.8-6.7 5.5-7.5 8.2-.6 2.1 0 3.6 1.9 4.3z"/>
    <path id="letra-e_4_" d="M631.9 226.6c1.9.1 4-.6 6.3-2.2 2.2-1.6 4.4-3.6 6.7-6 3.3-3.7 6.3-7.6 8.8-11.8 2.7-4.3 4.2-7.4 4.7-9.2.8-.1 1.5-.1 2.2 0 .8 0 1.4.3 2 .8-.4 1.9-2.2 5.4-5.2 10.7-2.9 5.2-6.6 10-11 14.2-2.9 2.9-6 5.2-9.3 6.8-2.4 1.2-4.8 1.8-7.2 1.8-1.1 0-2.2-.1-3.2-.3-5.9-1.2-10.4-3-13.5-5.3-3.2-2.3-5.3-5-6.3-7.8-.7-1.8-1.1-3.6-1.2-5.5 0-2.7.7-5.5 2.2-8.3 2.3-4.9 5.7-9 10-12.3 2.3-1.9 4.9-3.4 7.7-4.5 2.7-1.1 5.4-1.8 8.2-2h.3c2.7 0 4.4 1.4 5.2 4.2.8 2.9.6 6-.7 9.3-.6 1.4-1.3 2.8-2.2 4.2-.9 1.3-2 2.5-3.3 3.5-1.3 1.1-2.9 2-4.8 2.7l-2 .7c-.7 4.1-.7 7.8 0 11.2.6 3.1 2.5 4.9 5.6 5.1zm3.3-30.9c1.1-2.4 1-4.1-.3-5-1-.7-2.5 1.1-4.5 5.3-1.2 2.6-2.2 5.2-2.8 7.8.8-.4 1.5-.9 2.2-1.5 2.6-2 4.4-4.2 5.4-6.6z"/>
    <path id="letra-r_2_" d="M590.2 197.6c.8.6 1.3 1.3 1.7 2.3.4.9.7 1.9.8 3.2.2 1.7.3 3.6.2 5.7l-.7 6c-.6 3.9-1 7.3-1.3 10.3-.3 3.1.1 4.8 1.3 5 1.4.1 3.4-1.4 5.8-4.7 2.6-3.2 5.1-6.9 7.5-11 1.6-2.8 2.9-5.6 4.2-8.3 1.2-2.7 2.1-5 2.7-7 .9-.1 1.7-.2 2.3-.2.8 0 1.4.3 2 1-1.3 4.1-3.2 8.8-5.7 14.2-2.6 5.3-5.6 9.9-9.2 13.7-1.9 2-3.9 3.6-6.2 4.8-2.2 1.3-4.6 2-7.2 2h-.2c-3.2 0-5.8-.5-7.7-1.5-2-.9-3.5-2.2-4.5-3.8-2.2-3.8-2.4-8.6-.5-14.5 1.9-5.8 4.1-10.3 6.5-13.7-.9-.1-2.7-.1-5.5.2s-5.4 0-7.8-1c-1.3-.6-2.4-1.4-3.3-2.5-1-1.1-1.6-2.7-1.8-4.7-.3-2.1-.5-4.1-.5-5.8 0-4.2.8-7.3 2.5-9.3 1.9-2.2 4.4-3.3 7.7-3.3.9 0 1.8.1 2.8.3 1.3.2 2.4.7 3.3 1.5.8.8 1.4 1.7 1.8 2.8 1.1 3.3.8 7.3-1 12-.8 2-1.6 3.7-2.3 5 1 .2 2 .3 3 .2 2.3-.4 5.4 0 9.3 1.1zm-12.2-15c.2-2.3-.2-3.7-1.2-4-1.1-.2-2.2 2-3.2 6.7-1.1 4.8-1.1 7.6 0 8.5.3.3.7.6 1 .8.7-1.3 1.3-2.9 1.8-4.7.9-2.4 1.4-4.9 1.6-7.3z"/>
    <path id="letra-e_1_" d="M546.8 226.6c1.9.1 4-.6 6.3-2.2 2.2-1.6 4.4-3.6 6.7-6 3.3-3.7 6.3-7.6 8.8-11.8 2.7-4.3 4.2-7.4 4.7-9.2.8-.1 1.5-.1 2.2 0 .8 0 1.4.3 2 .8-.4 1.9-2.2 5.4-5.2 10.7-2.9 5.2-6.6 10-11 14.2-2.9 2.9-6 5.2-9.3 6.8-2.4 1.2-4.8 1.8-7.2 1.8-1.1 0-2.2-.1-3.2-.3-5.9-1.2-10.4-3-13.5-5.3-3.2-2.3-5.3-5-6.3-7.8-.7-1.8-1.1-3.6-1.2-5.5 0-2.7.7-5.5 2.2-8.3 2.3-4.9 5.7-9 10-12.3 2.3-1.9 4.9-3.4 7.7-4.5 2.7-1.1 5.4-1.8 8.2-2h.3c2.7 0 4.4 1.4 5.2 4.2.8 2.9.6 6-.7 9.3-.6 1.4-1.3 2.8-2.2 4.2-.9 1.3-2 2.5-3.3 3.5-1.3 1.1-2.9 2-4.8 2.7l-2 .7c-.7 4.1-.7 7.8 0 11.2.6 3.1 2.5 4.9 5.6 5.1zm3.4-30.9c1.1-2.4 1-4.1-.3-5-1-.7-2.5 1.1-4.5 5.3-1.2 2.6-2.2 5.2-2.8 7.8.8-.4 1.5-.9 2.2-1.5 2.5-2 4.4-4.2 5.4-6.6z"/>
    <path id="letra-l2_2_" d="M499.1 209.8c1.1 7 2.3 13 3.7 17.8 1.3 4.9 2.6 7.3 3.8 7.3 2.4 0 5.1-2.2 8-6.5 2.9-4.4 5.4-9.1 7.7-14 1.6-3.3 2.9-6.4 4-9.2 1.1-2.9 1.9-5 2.3-6.2.7-.2 1.4-.3 2.2-.3l2.3.3c-.9 2.7-2.6 7.1-5 13.2-2.3 6.2-5.4 11.9-9.2 17-2.4 3.4-5.2 6.2-8.3 8.3-2.4 1.8-5.1 2.7-8 2.7-.6 0-1.2-.1-1.8-.2-4.7-.7-8.6-2.4-11.7-5.2-3.1-2.8-5.6-6.3-7.3-10.5-2.8-6.5-4.2-14-4.2-22.7v-.5c0-8.6.8-17 2.5-25.4 1-4.6 2.2-9 3.5-13.2s2.8-8.1 4.3-11.5c1-2.1 2.1-3.6 3.3-4.3 1.2-.9 2.5-1.3 3.8-1.3h.2c2.6.1 5 1.4 7.3 4 2.4 2.6 4.1 5.3 5 8.3.4 1.4.7 3.3.7 5.7s-.2 5-.7 7.8c-1 5.3-2.9 11.1-5.8 17.3-1.2 2.7-2.7 5.2-4.5 7.5l.3 1.7c.5 4.3 1.1 8.3 1.6 12.1zm4.2-45.6c.1-5.3-.4-8.4-1.7-9.2-2.6-1.8-4.2.6-4.8 7.2-.7 6.5-.7 14.3-.2 23.7.1 1.6.2 3.1.2 4.7 1.4-3.1 2.7-6.3 3.7-9.5 1.7-6 2.7-11.7 2.8-16.9z"/>
    <path id="letra-l1_2_" d="M451.6 209.8c1.1 7 2.3 13 3.7 17.8 1.3 4.9 2.6 7.3 3.8 7.3 2.4 0 5.1-2.2 8-6.5 2.9-4.4 5.4-9.1 7.7-14 1.6-3.3 2.9-6.4 4-9.2 1.1-2.9 1.9-5 2.3-6.2.7-.2 1.4-.3 2.2-.3l2.3.3c-.9 2.7-2.6 7.1-5 13.2-2.3 6.2-5.4 11.9-9.2 17-2.4 3.4-5.2 6.2-8.3 8.3-2.4 1.8-5.1 2.7-8 2.7-.6 0-1.2-.1-1.8-.2-4.7-.7-8.6-2.4-11.7-5.2-3.1-2.8-5.6-6.3-7.3-10.5-2.8-6.5-4.2-14-4.2-22.7v-.5c0-8.6.8-17 2.5-25.4 1-4.6 2.2-9 3.5-13.2s2.8-8.1 4.3-11.5c1-2.1 2.1-3.6 3.3-4.3 1.2-.9 2.5-1.3 3.8-1.3h.2c2.6.1 5 1.4 7.3 4 2.4 2.6 4.1 5.3 5 8.3.4 1.4.7 3.3.7 5.7s-.2 5-.7 7.8c-1 5.3-2.9 11.1-5.8 17.3-1.2 2.7-2.7 5.2-4.5 7.5l.3 1.7c.5 4.3 1 8.3 1.6 12.1zm4.1-45.6c.1-5.3-.4-8.4-1.7-9.2-2.6-1.8-4.2.6-4.8 7.2-.7 6.5-.7 14.3-.2 23.7.1 1.6.2 3.1.2 4.7 1.4-3.1 2.7-6.3 3.7-9.5 1.8-6 2.7-11.7 2.8-16.9z"/>
    <path id="letra-a_2_" d="M400.5 188.6c-.1.8-.5 1.2-1.2 1.2-2.2-1.3-4.1-2.1-5.5-2.2-1.4 0-2.6.5-3.5 1.5-1.1 1.1-1.8 2.7-2.2 4.8-.4 2.2-.6 4.5-.5 6.8.1 3.7.6 7.1 1.5 10.3s1.8 4.9 2.7 5c1.1.3 2.3-1.1 3.7-4.3 1.3-3.1 2.6-6.5 3.7-10.2.9-3 1.7-5.8 2.3-8.3.7-2.6 1.1-4.1 1.2-4.7 1-5.1 3.3-7.9 6.8-8.3.8-.2 1.6-.3 2.3-.3 2.1 0 3.3.6 3.7 1.8.4 1 .7 4.1.7 9.3s.2 10.6.5 16c.2 4.4.7 8.3 1.3 11.7.6 3.4 1.4 5.2 2.7 5.3 1.4.1 3.1-1.4 4.8-4.7 1.9-3.1 3.6-6.6 5.2-10.3 1-2.4 1.9-4.8 2.7-7 .8-2.3 1.3-4.1 1.7-5.2.7-.2 1.3-.3 2-.3s1.3.2 2 .5c-.6 2.1-1.6 5.4-3 10-1.4 4.4-3.3 8.6-5.5 12.5-1.4 2.6-3.1 4.7-4.8 6.5-1.7 1.6-3.4 2.3-5.3 2.3h-.5c-4.1-.2-7.5-1.6-10.2-4.2-2.6-2.4-4.6-5.1-6-7.8-.8-1.4-1.4-2.8-1.8-4s-.8-2.2-1-3c-.6 2.3-1.5 4.5-2.8 6.5-1.3 2.1-4.1 3.2-8.2 3.2-2.3-.1-4.3-.6-5.8-1.5-1.6-.9-2.8-2.1-3.7-3.7-1-1.7-1.6-3.6-1.8-5.7-.1-.9-.2-1.8-.2-2.7 0-1.2.1-2.4.3-3.7.6-4.1 1.9-8 4.2-11.7 2.2-3.7 4.8-6 7.7-6.8 1.6-.4 3.1-.4 4.7 0 1.7.6 3.3 1.7 5 3.5.3.6.3 1.2.1 1.9z"/>
    <path id="letra-t_2_" d="M355.1 178.4c.3 4.1.7 8.5 1.2 13 .2 3.4.6 6.9 1 10.3.3 3.3.7 6.6 1 9.8.8 5.7 1.6 10.5 2.3 14.3.9 3.8 1.9 5.6 3 5.5 2-.1 4.3-2.1 6.8-5.8 2.4-3.8 4.7-7.9 6.7-12.3 1.3-2.9 2.5-5.6 3.5-8.2s1.7-4.4 2.2-5.7c.6 0 1.2.1 2 .2.7 0 1.3.3 1.8.8-.3 1.7-1.6 5.2-3.7 10.5s-4.6 10.3-7.5 15c-2 3.1-4 5.7-6 7.7-1.9 1.8-3.7 2.7-5.5 2.7h-.8c-6.3-1-11.5-3.1-15.3-6.3-3.9-3.3-6.8-7.3-8.7-12-1.6-3.9-2.6-8.1-3.2-12.5-.3-3.1-.5-6.2-.5-9.3 0-1.4.1-2.8.2-4.2.2-5 .7-9.9 1.5-14.7-2.9-.1-5.9-.2-9-.3-1.3-.1-2-.3-2-.5-.1-.1.2-.3 1-.7 1.9-.8 3.2-1.3 3.8-1.7.3-.6 1.6-.9 3.8-1h3.2l1.3-5.3c2-7.7 3.7-13.2 5.2-16.5.7-1.4 1.4-2.2 2.2-2.2.7 0 1.4.6 2.2 1.8 1.7 2.4 3.2 4.2 4.7 5.3.2 1.7.6 5.9 1 12.7.1 1.3.2 2.7.2 4 1 .2 2.1.5 3.2.8 2.3.9 4.6 1.3 6.7 1.3.1.4.2 1 .2 1.7v.3c-.1.9-.8 1.3-2.2 1.3h-7.5v.2z"/>
  </g>
  <g opacity=".6" fill="#FFF">
    <path d="M1269.9 30.5c.2-2.5 1.4-5.8 3.8-8.6.7-.8 2-1.1 2.9-1.8 2.9-2.1 6.3-2.7 9.8-3.4 4.5-.9 8.4.5 12 2.8 2.1 1.3 3.8 3.3 5 5.7 1.5 3.1 1.6 6.1 1.3 9.5-.4 4.2-2.9 7.3-4.6 10.8-.1.2-.4.4-.7.5-.4.2-.8.4-1.1.6-3.3 2.3-7.1 2.9-11 3.1-.5 0-.9-.1-1.4-.2-1.9-.6-3.9-1-5.7-1.9-2.5-1.2-4.8-2.6-6.7-4.8-2.9-3.2-3.5-7.1-3.6-12.3zm2.1 1.7c0 5.2.9 7.3 4.4 10.6.5.5 1 .9 1.5 1.4 1.8 1.9 4.3 2.5 6.7 3.2 1.8.5 3.9.9 5.7.5 3.1-.8 6.5-1.4 8.5-4.4 1-1.5 1.9-3 2.7-4.6 2.1-3.7 1.8-7.7.5-11.5-1.7-4.8-1.8-4.9-6.2-7.3-1.3-.7-2.8-1.3-4.3-1.6-2.4-.4-4.9-.2-7.3.6-1.1.4-2.4.4-3.4 1-2.3 1.2-4.4 2.7-6.6 4.1-.1.1-.2.2-.2.3-.8 2.7-2.5 5.1-2 7.7z"/>
    <path d="M1307.9 24.9c-.4-.9-.8-1.6-1.2-2.5 3.3-1.5 6.6-2.9 9.9-4.4.6 1.5 1.1 3 1.7 4.6-3.5.8-6.9 1.6-10.4 2.3z"/>
    <path d="M1305.3 46.7c3.2 2.1 6.3 4.1 9.4 6.1-1.5 1.2-2.9 2.3-4.4 3.5-1.9-2.5-3.9-4.9-5.6-7.4-.3-.4.4-1.4.6-2.2z"/>
    <path d="M1266.7 27.3c-3.2-.8-6.2-1.5-9.5-2.3.9-1.6 1.7-3.1 2.5-4.7l7.5 4.5c-.1.8-.3 1.6-.5 2.5z"/>
    <path d="M1267 36.2c-3.2 1.1-6.3 2.2-9.6 3.3-.1-1.8-.2-3.3-.4-5 3.2-.2 6.3-.3 9.4-.5.3.7.4 1.4.6 2.2z"/>
    <path d="M1269.1 8.8c1.2 2.7 2.5 5.1 3.4 7.7.2.5-.6 1.4-1 2.1-2.2-2.3-4.2-4.4-6.3-6.5 1.1-.9 2.4-2.1 3.9-3.3z"/>
    <path d="M1317.9 41.4c-3.1-1.4-6.1-2.7-9.2-4.1.2-.6.4-1.2.7-1.9 3.3.4 6.5.8 9.8 1.2-.4 1.8-.8 3.2-1.3 4.8z"/>
    <path d="M1285.9 14.2c-.7.1-1.4.3-2.3.5-.8-2.9-1.7-5.6-2.5-8.6 1.6-.2 3.2-.3 4.9-.4-.1 2.8-.1 5.6-.1 8.5z"/>
    <path d="M1299.5 15.8c-.5-.3-.9-.5-1.5-.9 1-1.9 2.1-3.7 3.1-5.6 1.6-2.8 1.6-2.8 4.6-2 .4.1.7.2 1.3.4-2.6 2.8-5 5.5-7.5 8.1z"/>
    <path d="M1278.5 60.8c-1.5-.4-2.8-.8-4.3-1.2 1.6-2.8 3.1-5.5 4.7-8.3.4.2.8.5 1.1.6.8.3.8.7.6 1.5-.7 2.3-1.3 4.8-2.1 7.4z"/>
    <path d="M1263.5 48.9c2.3-1.6 4.5-3.1 6.8-4.7l1.8 1.5c-2.4 2.3-4.7 4.5-7.1 6.7-.4-.9-1-2.2-1.5-3.5z"/>
    <path d="M1292.3 53.1c1.1 3 2 5.5 2.9 8.1-1.5.6-2.8 1.1-4.4 1.7-.2-2.9-.4-5.7-.4-8.5.1-.4 1.2-.8 1.9-1.3z"/>
    <path d="M1280.6 36c.7.5 1.3 1 2 1.4 2.4 1.5 5.1 2.1 7.8 1.7 1.6-.2 3.3-1.3 4-2.9.8-1.6 1.3-3.3 1.9-5 2.2 1.4 2.3 1.4 1.4 3.7-.7 1.6-1.6 3.2-2.5 4.7-.2.3-.6.6-1 .7-.7.3-1.4.5-2.1.9-3 1.5-5.9 1.1-8.7-.6l-1.5-.9c-1.9-1.2-1.9-1.2-1.3-3.7z"/>
    <path d="M1293.2 26.2c-.1 1.2-1 2.3-2 2.3-1.6 0-2.9-1.2-2.8-2.8.1-1.1 1.5-2.1 2.8-2 1.3 0 2 1 2 2.5z"/>
    <path d="M1284 28.1c0 1.3-1.1 2.5-2.3 2.5-1.1 0-2.1-1.3-2.2-2.7 0-1.3 1-2.4 2.2-2.4 1.4 0 2.3 1.1 2.3 2.6z"/>
  </g>
  <g opacity=".6" fill="#FFF">
    <path d="M1268.7 287.5v1c-.2 2 1.1 4.7-1.3 5.8-2.5 1.1-5.3 1.9-8 2-2.4.1-4.9-.8-7.4-1.4-2.1-.5-5.1-5.3-3.9-8.4.9-2.6 2.4-5 3.7-7.6 0 0-.6-.2-1.1-.2-1.6 0-3.3.2-4.9.2-4.7.2-8.7-2.9-9.6-7.6-.8-4 2.8-9 6.7-9.9 3.5-.9 6.7-.1 10.5 1.4-.6-1-.7-1.5-1-1.7-4.7-3.7-3.6-8-1.5-12 2.2-4 5.6-6 10.6-5.8 3.7.1 6.2 1.9 8.8 3.8.5.4.7 1.3.7 2 .1 2.2 0 4.4 0 7 2.3-.9 4.3-1.8 6.3-2.6 2.4-1 8.5.6 10.1 2.7.1.2.3.4.4.6 3.8 3 3.4 7.1 2.6 11.1-.4 1.9-1.5 3.4-3.7 3.6-1.4.1-2.8.4-4.8.6 1.1.7 1.7 1.2 2.5 1.7 3.3 2.2 4.9 5.2 4.4 9.2-.4 3.8-5.4 8.3-9.1 8.2h-3.3c-2.8 0-5-1.1-7.7-3.7zm-3.1-6.8c.7.3 1.5.4 2 .8.8.6 1.4 1.5 2 2.3 4.6 5.5 8.6 4.8 13.7 1.5 1.1-.7 1.7-4.5.9-5.5-2.8-3.6-5.5-7.9-11-7.8v-2.8c.7.1 1.2.1 1.7.2 1 .2 2 .8 3 .6 2.7-.4 5.5-.7 7.9-1.9 1-.5 1-3.1 1.2-4.7.3-3-2.6-6.3-5.6-6.4-4.3-.2-8.1 1.2-11.1 4.5-.5.5-1.4.5-2.1.8-.2-.7-.5-1.4-.5-2 .1-2.8.3-5.6.4-8.4 0-1.9-2.9-5.3-4.5-5.7-3.9-1.1-6.7 1.2-8.9 3.5-1.9 2.1-2.3 5.2-.6 8.1 1.2 2 2 4.3 3.1 6.3.7 1.3.5 2.2-.6 2.6-1.5-.8-2.7-1.7-4-2.1-3.1-.8-6.2-.5-9.3.4-1.8.5-4.3 4.7-3.8 6.5.7 2.7 4.6 5.2 7.5 5 2.2-.2 4.4-.3 6.6-.6 1.7-.2 2.8.3 3.2 2.1-.7.7-1.3 1.5-2.1 2.2-3.2 2.9-3.2 6.5-2 10.3.2.7.6 1.9 1 2 2.4.5 5 1.4 7.4 1 2-.3 4.4-1.7 4.5-4.4.1-2.7 0-5.3 0-8.4z"/>
    <path d="M1266.1 314.3c1.7-.8 2.8-1.3 3.8-1.9 2.7-1.6 5.3-1.1 7.6.7 1.4 1 3.5 2.4 3.5 3.6 0 2.8-.8 5.7-1.9 8.3-.4 1-2.4 1.4-3.4 2 1.2 2.1 2.8 4.1 3.7 6.4 1.2 3.1.9 6.4-1.1 8.9-.9 1.2-3.1 1.9-4.8 2.1-2.1.2-4.1-.8-5.3-2.8-.5-.8-1.2-1.5-1.6-2-1 1.5-1.9 2.9-3 4.2-3.2 3.9-11.8 3-15.1.6-4.9-3.6-6.7-10.3-.9-14.6.2-.1.3-.4.6-.8-3.6-.7-6.8-1.7-8.5-5.3-1.2-2.4-1.8-4.8-1.4-7.4.5-3.4 4.1-5.5 10.4-6.1-.1-1.1-.2-2.1-.3-3.2-.3-3 .8-4.6 3.4-5.9 6.8-3.3 14.3 2 14.2 9.9.1.9.1 1.8.1 3.3zm-1.4 7.8v.8c-.7 0-1.5.2-2.2 0-1.7-.5-4.6.7-5 2-.4 1.6.8 3.8 2 4 2.1.3 4-1.1 4.3-3 .2-.9.7-1.7 1.2-2.8 1.7 3 1.5 4.6-.5 6.8-1.3 1.4-4.1 2-5.9 1.1-6.1-3-7.3-2-10.4 2.3-1.5 2-1.3 4.1-.1 6.2 1.4 2.5 3.7 3.2 6.1 3.4 2.1.2 4.4.1 6.3-.8 3.5-1.6 4.9-4.6 4.1-8.5-.1-.4.3-1 .5-1.5.3.3.8.6 1 1 .3.6.6 1.3.7 2 .4 2.4 1.6 4.3 3.8 5.3 1.5.7 3.4 2.2 4.8.4 3.7-4.8.5-12.4-5.5-13.5-.9-.2-1.7-1-3-1.8 3-.4 5.2-.4 7.2-.9 3.1-.8 4.4-4.1 3.3-7.5-.7-2.1-4.1-4-6.8-2.4-1.6 1-3.2 1.9-4.8 2.9-2-.7-2.8-2-2.8-4.2 0-1.9-.5-3.9-1-5.8-.9-3.1-4.3-5.3-7.3-4.2-1.5.6-3.3 2.1-3.7 3.5-.5 1.9 0 4.1 1.7 5.8 1.6 1.5 2.9 3.2 4.5 4.9-1 .7-1.9 1.3-2.4 1.7-1.3-1.6-2.2-3.5-3.6-4.4-1.6-1-3.8-1.9-5.7-1.7-2.5.3-4.4 1.7-4.2 5 .1 2 .5 3.4 1.7 5 1.7 2.1 3.6 3 6.2 2.9 1.1-.1 2.2.1 3.3.3 1.6.3 2.2-.3 2.7-1.8.3-1.1.8-2.3 1.6-2.9 3.6-2.4 4.5-2.2 7.9.4z"/>
    <path d="M1310.8 307.8c-4.9-3.7-5-7-2.8-11.5.7-1.4 2.4-2.6 3.9-3.1 6.4-2.2 13.6 2.6 13.7 9.2 0 2.1.3 4 .5 6 .3 3.7-.5 7-3.3 9.7.8.4 1.3.8 1.8 1.1 2.2 1.1 3.2 3.3 2.9 5.8-.6 4.1-1.4 8-5.3 10.6-3.1 2.1-6.4 2.5-9.6 2-2.7-.5-6-.9-7.6-4-.2-.3-.9-.4-1.4-.3-.9.1-1.9.3-2.8.6-4.5 1.6-8.1-.5-10.7-3.4-1.7-1.8-1.8-5.1-2.5-7.8-.1-.4.2-.9.3-1.4.4-2.6.8-5.2 4.3-6-.9-.4-1.7-.8-2.6-1.1-3.7-1.1-5.4-3.9-6.3-7.4-.6-2.3 1-3.7 2-5.3 2.2-3.6 4.1-4.2 8.4-3.6 4.7.7 8.7 2.6 11.8 6.2 2.9 3.4 2.6 5.7-.8 8.6-.5.5-1.1.9-1.8 1.4-.6-.5-1.1-1-1.7-1.4 0-.2 0-.4.1-.5 3.7-3.7 3.4-5.7-1.2-8.4-2.7-1.6-5.6-2.9-8.9-2.4-2.1.3-3.6 3-3.4 5 .5 4.9 4.2 6.4 8.1 7.6 1.8.5 3.7.7 5.5 1-.1 1.8-1 2-2.4 1.7-3.2-.7-6.2.5-7.2 2.6-1.8 3.8-1 7 1.7 9.5 3 2.7 6.3 2.2 9.7 1.7.4-.1.7-.7 1-1.2.6-1.1 1-2.3 1.6-3.6.8.3 1.4.5 2.1.8 0 .3.1.5.1.6-.7 6.9.1 6.1 5.7 7.4 2.8.6 5.1-.4 7.4-1.5.5-.2 1-.8 1.2-1.3 1-2.3 1.9-4.6 2.7-7 .7-2.1-.1-3.5-2.3-3.9-1.9-.3-3.8-.3-6-.5-.3-1.4.3-2.4 2.1-3.1 4.3-1.6 5.8-6.3 3.8-10.4-.5-1.1-.6-2.6-.5-3.8.1-5-3.2-7.8-8-6.6-2.2.5-4.2 4.7-3.7 7.7-.1 1.2.2 2.3.4 3.7z"/>
    <path d="M1310.9 313.3c.9.8 1.8 1.7 2.8 2.4 1.8 1.4 1.3 3.3 1.1 5-.3 2.2-1.8 3.9-3.9 4.6-2.7.8-4.5-1.3-6.1-3-1.4-1.6-.7-3.4.1-5.2 1.2-2.9 3.8-3.6 6.3-4.5-.2.2-.3.4-.3.7zm-4.4 6.9c0 1.5 1.6 3.1 3 3 1.2-.1 2.8-2.3 2.9-3.9 0-1.4-1.6-3.4-2.7-3.3-1.5 0-3.3 2.4-3.2 4.2z"/>
    <path d="M1271.1 271.8c0 .5.1 1.5 0 2.5-.4 3.2-2.9 5.2-6.1 4.9-2-.2-4 0-5.6-1.8-1.7-1.9-3-5.2-2.2-6.8 2-4.2 4.3-5.6 8.2-4.9.2 0 .5 0 .7.1 4 .8 5.3 1.5 5 6zm-6.6 4.2c2.9-.1 4.3-1.4 4.2-3.9-.1-2.9-1.2-4.1-3.9-4-2.5 0-4.8 2.1-4.7 4.2 0 2.5 1.6 3.7 4.4 3.7z"/>
  </g>
  <g opacity=".6" fill="#FFF">
    <path d="M861.1 13c.2-3.5.4-6.8.6-9.9h7.3c1 0 .9.7.9 1.3.1 5.8.2 11.7.3 17.5 0 1 .3 1.8.9 2.7 2.5 3.1 4.9 6.3 6.3 10 1.1 2.9.4 4.3-2.6 5.1-1.1.3-2.1.6-3.2.9-1 .3-1.3.8-1.3 1.8-.1 5.8-.2 11.6-.4 17.4-.1 2.7-.4 5.4-.6 8.2-18.5-.1-36.8.3-55.3-.8 0-2.4.1-4.7 0-7.1-.2-6.7-.5-13.5-.6-20.2 0-1.3-.5-1.9-1.7-2.3-.9-.2-1.8-.6-2.6-1.1-1.6-.9-2.1-2.3-1.3-3.9.7-1.4 1.6-2.8 2.8-3.9 7.7-7.1 15.4-14 23.1-21l6-5.4c.8-.7 1.7-1.2 2.6-1.6 2.4-1.2 4.8-.9 6.8.8 3.7 3.3 7.2 6.6 10.8 10 .2.6.6.9 1.2 1.5zm-17.7 34.1c4.9-.7 9.6-.3 14.2.4.3 0 .7.7.7 1.1.2 2.9.3 5.7.3 8.6v8.7h7.7c.2 0 .6-.5.7-.8.2-2 .4-4 .5-6 .2-6 .3-11.9.4-17.9 0-.5-.2-1.1-.5-1.5-6.2-8.8-13.5-16.5-21.8-23.3-1.2-1-2.4-1.9-3.6-2.8-.3.2-.4.3-.5.4-9 7.4-17.2 15.7-25.5 23.9-.3.3-.5 1-.5 1.5.2 6.2.4 12.5.6 18.7.1 2.4.2 4.8.4 7.5h26.3c.4-6.3.5-12.3.6-18.5zM868 21.2c.1-.1.2-.1.3-.2V4.6H863c-.3 3.2-.6 6.5-.1 9.8 0 .2.1.3.2.5 1.7 2.1 3.3 4.2 4.9 6.3z"/>
    <path d="M821.6 51.8V38.4c4.8-1 9.4-.7 14.2-.3v13.6c-4.6.1-9.3.1-14.2.1zm12.3-1.8c-.1-1.4-.1-2.7-.2-3.9h-4.2V50h4.4zm-.5-6.1c.5-3.8.4-3.8-3.1-4.1h-.9v4.1h4zm-9.6-4c-.1 1.4-.2 2.7-.3 4h3.8v-4h-3.5zm-.3 6.2c-.1 4.5-.4 3.8 3.4 4 .1 0 .1-.1.3-.1v-3.9h-3.7z"/>
  </g>
  <g opacity=".6" fill="#FFF">
    <path d="M329.4 72.1c-7.9 0-15.8.1-23.7-.1-3.1-.1-6.3-.7-9.4-1.3-3.7-.7-5.9-3.1-7.2-6.6-1.5-4.1-1.9-8.3-1.8-12.6 0-6.1.3-12.2.5-18.3l.3-17.7c0-1.4.1-2.9.3-4.3.3-2.1 1.6-3.4 3.6-3.7 4.9-.8 9.8-.6 14.6.2 2.3.4 2.8 1.2 2.7 3.5 0 1 .6 1 1.2 1.1 3.5.1 7.1.3 10.6.2 9.2-.3 18.3-.9 27.5-1.1 3.2-.1 6.4.6 9.6 1 .7.1 1.3.4 1.9.6 1.3.4 2 1.3 2.2 2.7.4 3.7 1 7.4 1.2 11.1.6 7.9 1 15.8 1.4 23.6.2 4 .2 8-.6 12-1.2 5.6-4.6 8.4-10.3 8.6-8.3.3-16.6.6-24.8.8.2.1.2.2.2.3zm-1.3-3.1v-.5c5.4 0 10.8.1 16.3 0 3.4-.1 6.9-.6 10.3-1.1s5.9-2.1 6.9-5.6c.4-1.3.6-2.7.7-4 .3-13-.5-26-2.3-38.9-.4-2.9-1.5-3.9-4.4-4.2-7.5-.8-15.1-.7-22.6-.1-8.3.6-16.6 1.2-24.9.4-1.2-.1-1.6-.5-1.5-1.6v-1c.2-2.1 0-2.6-2.2-2.6-3.6 0-7.1.1-10.7.4-1.7.1-2.4.9-2.5 2.7-.2 3.1-.2 6.2-.2 9.3-.2 9.7-.4 19.4-.5 29.1 0 4.2.2 8.4 1.7 12.4.7 1.8 1.8 3.2 3.7 3.6 3.5.7 7.1 1.6 10.7 1.7 7 .2 14.3 0 21.5 0z"/>
    <path d="M297.4 40.3c.2-12.1 14.6-17.9 23.6-12 4.8 3.1 7.6 7.3 7.5 13.2-.1 7-5.1 12.7-12 13.8-4.9.8-9.5-.1-13.7-2.8-3.3-2.1-4.9-5.3-5.3-9.1.1-1 0-2-.1-3.1zm15.4 12.1c0-.1 0-.1.1-.2 1.2-.1 2.5-.2 3.7-.4 3.6-.8 6.7-2.3 8.1-6 2.3-6.1-1.4-14.1-7.5-15.7-5.1-1.3-9.7-.8-13.5 3-5.6 5.6-3.9 15.5 3.3 18 1.9.6 3.9.9 5.8 1.3z"/>
    <path d="M346.3 35.3c-1.4-.2-3.1-.4-4.7-.7-2.4-.5-3.8-2-4.1-4.4-.2-1.9-.3-3.8-.3-5.7.1-2.2 1.1-3.5 3.2-3.9 3.8-.7 7.6-1 11.4-.4 2 .3 3.3 1.5 3.9 3.4.7 2.4.9 4.8.5 7.3-.4 2.2-1.8 3.4-3.9 3.8-2 .2-3.8.3-6 .6zm.5-3c1.5-.2 2.9-.2 4.2-.5 1.6-.3 2.4-1.1 2.3-2.7-.1-1.7-.5-3.3-.9-5-.3-1.1-1.1-1.6-2.2-1.6-1.4 0-2.9 0-4.3.1s-2.9.3-4.3.5c-1.2.2-1.9 1-1.9 2.2.1 1.4.3 2.8.6 4.1.3 1.3 1.2 2.1 2.5 2.3 1.4.3 2.7.4 4 .6z"/>
    <path d="M312.2 33.1c5.5 0 9.8 5.4 8.5 10.3-1 3.8-5 5.8-9 4.7-5.1-1.4-7.7-6.1-6-11.2.9-2.8 3.3-3.4 5.7-3.8h.8z"/>
  </g>
  <path opacity=".6" fill="#FFF" d="M19.1 286.8c-2.6-.8-5.3-1.2-7.7-2.4-6.6-3.2-11-8.3-11.4-15.9-.3-4.8 1.9-8.9 4.9-12.6 3.7-4.6 8.8-7 14.5-7.8 8.9-1.2 17.4.6 25.3 4.8 4 2.1 7.3 5.2 8.5 9.9.1.3.8.7 1.2.7 2.6.3 5.2.5 7.7.9 8.3 1.5 15.3 6.9 16.7 15.8.7 4.1-.2 8-1.8 11.8-2.1 4.9-5.5 8-10.6 9.3-1 .3-1.6.9-1.8 1.8-.6 2.2-1 4.4-1.5 6.6-.2.7-.6 1.9-.9 1.9-.9 0-2-.3-2.5-.9-1-1.2-1.9-2.5-2.5-4-1-2.3-2.2-3.5-5.1-3.1-3.9.6-7.9 0-11.6-1.6-4.5-1.9-6.8-6.2-6-11 .1-.6.2-1.3.3-1.9-2-.6-3.3-.1-4.6 1.7-1.1 1.6-2.1 3.2-3.2 4.8-1.3 1.8-2.9 3.5-5 4.5-1.4.6-2.8 1-4.1 0-1.4-1-1.4-2.6-1-4.1.8-3 1.6-6.2 2.2-9.2zm5.3-36.4c-.9.1-2.1.1-3.3.3-6.5.8-12 3.5-15.7 9.1-2.1 3.1-3.3 6.6-2.6 10.4.9 4.7 4.1 7.6 7.9 10.1 2.5 1.6 5.4 2.2 8.3 2.7 3.6.7 4.1 1.6 3 5-.4 1.1-.8 2.2-1.1 3.3-.4 1.5-.9 3-1.1 4.6-.1.6.2 1.8.6 1.9.6.2 1.6-.1 2.1-.6 1.1-1.2 2-2.5 2.9-3.8 1.4-2 2.8-4.1 4.2-6.1.3-.4 1-.7 1.5-.7 1.5-.2 3.1-.1 4.6-.3 3.7-.4 7.2-1.6 10.1-3.9 4.5-3.5 5.9-8.2 5.5-13.7-.5-6.4-3.2-11.2-9.1-14.1-5.5-2.7-11.4-4-17.8-4.2zm29.8 16.1v1.8c.1 4.1-.5 8.1-2.6 11.7-2.7 4.6-6.8 7.2-11.8 8.5-.5.1-1.1.3-1.2.7-1.5 4.5-1.2 9.2 4.9 11.1 4.1 1.3 8.3 1 12.4.1 1.2-.3 1.9 0 2.4 1 .5 1.2 1 2.4 1.5 3.5.2.5.6 1 .9 1.5h.4c.3-.7.7-1.4.9-2.2.3-1.2.6-2.5.8-3.7.1-.7.3-1 1.1-1.1 2.3-.3 4.5-1.1 6.3-2.6 5.1-4.2 6.6-9.8 6-16-.4-4.6-2.6-8.2-6.5-10.6-4.6-2.9-10-3.6-15.5-3.7z"/>
  <path opacity=".6" fill="#FFF" d="M386.7 317.8c1.4.3 3.1.5 4.6 1.2 2.3 1 2.8 3.2 1.2 5.1-1.5 1.7-3.1 3.3-4.7 4.9-1.3 1.4-1.4 1.6-.3 3.1.8 1.2 1.8 2.3 2.9 3.2 1.5 1.2 2.3 1 3.9 0 2.3-1.4 4.7-3 7.2-4.1 3.2-1.4 5.5.3 5.4 3.8-.3 6.2-3.4 10.8-8.8 13.9-3.6 2.1-7.5 2.9-11.6 3.2-.7.1-1.4.4-1.9.8-3.1 3.1-6.2 6.3-9.2 9.6-3.2 3.4-6.4 6.9-10.5 9.3-2.2 1.3-4.6 1.9-7.2 1.9-5.4.1-8-3.6-7.5-8.6.4-3.9 2.1-7.2 4.8-10 3.5-3.6 7.3-6.9 10.9-10.4 1.6-1.6 3.2-3.2 4.8-4.7.6-.6.7-1.3.5-2.1-1.9-8.1 3.1-17.8 11.3-19.7 1.3-.1 2.6-.2 4.2-.4zm-31.3 46.1c0 2.3 1.8 4.2 4 4.3 2.9.1 5.6-2.3 5.6-4.9 0-2.2-2.2-3.9-5.1-3.9s-4.5 1.6-4.5 4.5z"/>
  <g opacity=".6" fill="#FFF">
    <path d="M842.8 366.8c-.4-5.2 1-10 3.5-14.6 10.1-18.4 20-37 30.1-55.5 2.4-4.5 5.9-6.2 10.6-5.5 4.8.7 9.5 4.5 10.1 8.9.3 1.9-.2 4.2-1 6-2.8 6.4-5.8 12.7-8.9 18.9-5.9 11.9-12 23.7-17.9 35.6-2.9 5.8-7.4 10.2-11.8 14.7-3.1 3.1-6.2 6.1-10.1 8.2-2.6 1.4-3.6.8-3.8-2.1-.3-4.7-.6-9.7-.8-14.6zm6.9-5.5c8.4-16 16.9-32.1 25.3-48.1-1.5-.8-2.6-1.4-4-2.1-8.2 15.5-16.2 30.8-24.4 46.2 2.6.5 2.5 2.5 3.1 4zm34-43.7c-.2.3-.4.5-.5.7-6.9 13-13.8 26.1-20.7 39.1-1 2-1.9 4.1-2.7 6.2-.2.6 0 2 .2 2 .8.2 1.9.2 2.4-.2 1.1-.9 2.1-2 2.8-3.2 3.8-7.2 7.5-14.4 11.1-21.6s7.1-14.4 10.7-21.6c-1.2-.4-2.1-.9-3.3-1.4zm7.3-5.6c1.1-3.2 2.3-6.1 3-9.1.8-3.3-1.1-6.4-4.4-7.9-3.6-1.7-7-1.3-9.2 1.6-1.8 2.3-3.1 4.9-4.8 7.5 5.2 2.6 10.1 5.1 15.4 7.9zm-13.8 2.6c-1.2 2.5-2.3 4.8-3.5 7.1-6.4 12-12.8 24.1-19.3 36.1-.8 1.6-.6 2.9.6 4.7 1.3-1.6 2.6-2.9 3.4-4.4 7-12.6 13.8-25.2 20.7-37.8.7-1.3 1.3-2.6 2-3.9-1.3-.6-2.5-1.2-3.9-1.8zm-20.6 49.9c-3.3 2-3.3 2-5-1.7-.7.6-1.3 1.2-2 1.8-1.3 1.1-2 .9-2.7-.6-.3-.8-.6-1.6-1-2.7v13.3c0 .2.4.6.6.7 1.5.8 3.1 1.5 4.9 2.4 2.6-2.7 5.4-5.7 7.8-8.2-1-1.9-1.8-3.4-2.6-5z"/>
    <path d="M848.5 387.7c.8.4 2.2.8 3.3 1.7 1.7 1.2 3.2 1.3 4.7 0 2.6-2.3 5.8-1.8 8.4.6.1.1.2.2.3.2 3.2 2.8 3.2 2.8 6.2 0 3.8-3.6 9-3 11.1 1.4.3.6 0 1.4 0 2.1-.7-.2-1.4-.3-2-.5-.1 0-.3-.2-.4-.4-2.7-3.2-4.4-2.8-7.3-.1l-.9.9c-2.8 2.7-4.3 2.7-7.1 0l-1-1c-1.9-1.7-3.5-1.9-5.5-.3-2.2 1.7-4.2 1.7-6.4.3-.3-.2-.6-.3-1-.5-2.1-1.2-4-1.3-5.9.4-.5.4-1.5.3-2.3.4.1-.7 0-1.5.3-2.1 1-2.3 2.9-2.8 5.5-3.1z"/>
  </g>
  <g opacity=".6" fill="#FFF">
    <path d="M224.8 296c.1-.2.1-.3.1-.4 1.2-3.8 3.2-5.4 6.7-5.3 3.2.1 6.2 2.4 7 5.7.3 1.3 1 1.4 2 1.5 3.7.4 7.5.7 11.2 1.3 3.4.6 4.7 2.2 4.8 5.6.3 10.3.7 20.6.7 30.8 0 5.3-.6 10.6-.9 16 0 .3-.1.5-.1.8-.8 3.6-1.5 4.5-5.2 4.6-8.1.2-16.2.3-24.3.1-5.1-.1-10.2-.6-15.3-1-2.1-.2-3-1-3.5-3.1-1.1-4-1.3-8.2-1.1-12.3.3-10.6.8-21.2 1.2-31.9.1-1.8.3-3.7.4-5.5.4-4.4 3.3-6.4 7-6.8 2.3-.2 4.6-.2 6.9-.2.8.1 1.6.1 2.4.1zm30.2 30v-1.9c0-4.7.2-9.3.1-14 0-2.1-.2-4.3-.7-6.3-.5-2.4-2.1-3.2-4.4-3.2-.8 0-1.1.3-1.2 1.1-.1 1-.3 1.9-.5 2.9-.3 1.8-.5 1.9-2.2 1.9l-25.8-.9c-1.3 0-2.1-.6-2.5-1.7-.5-1.2-1-2.5-1.5-3.7-.9-2-2.1-2.2-3.8-.8-.5.4-.9 1-1 1.6-.4 1.4-.7 2.8-.8 4.3-.3 4.6-.5 9.1-.7 13.7-.3 7.5-.7 14.9-.7 22.4 0 3.4.7 6.9 1.2 10.3.3 1.7 1 2 2.7 2.1 2.4.1 4.9.2 7.3.3 10.1.6 20.3 1.1 30.4.2 2.8-.3 3.1-.5 3.5-3.3v-.4c1.2-8.3.8-16.5.6-24.6zm-7.9-26.2c-9.9-.6-19.6-1.2-29.6-1.8.8 1.8 1.4 3.1 1.9 4.5.3.7.7.9 1.4.9 3.6.1 7.2.3 10.9.4 4.9.2 9.8.3 14.8.5.2-1.5.4-2.8.6-4.5zm-10.5-2.7c-.7-3.2-3.1-4.9-6.2-4.4-2.1.3-3.3 1.8-3 3.7 3 .2 6.1.4 9.2.7z"/>
    <path d="M245 348c-8-.5-16-1.1-24-1.6-.6 0-1.5-.6-1.5-.9 0-.9.8-1.1 1.7-1.1l16.5 1.2c3 .2 6.1.2 9.1.3.3 0 .8-.1 1 .1.4.3.8.8 1.2 1.2-.4.3-.7.7-1.2.8H245z"/>
    <path d="M231.6 327.4l15.9 1.2c.3 0 .6 0 .9.2.3.1.4.4.7.7-.3.2-.5.6-.8.7-.4.1-.8 0-1.3 0-4.6 0-9.3-.1-13.9-.1l-11.4-.3c-.3 0-.6 0-.9-.2-.7-.3-.9-.9-.1-1.3.4-.2 1-.4 1.4-.4h9.5v-.5z"/>
    <path d="M230.4 311.1c6.4.4 11.9.7 17.3 1.1.6 0 1.3.1 1.9.3.3.1.6.5.9.8-.3.3-.6.7-.9.8-.9.2-1.8.2-2.7.2-3.4-.2-6.7-.4-10.1-.6-4.1-.2-8.3-.5-12.4-.7-.6 0-1.4.1-1.4-.9 0-.9.7-1 1.5-1h5.9z"/>
    <path d="M247.9 337.5c-.9.3-1.7.7-2.6.8-3.4.1-6.9.2-10.4.1-4-.1-8.1-.2-12.1-.4-.6 0-1.3-.2-1.8-.5-.3-.1-.6-.6-.6-.8 0-.3.4-.6.8-.7.4-.1.8-.1 1.3-.1 5 .1 10.1.2 15.1.4 3 .1 6 .2 8.9.4.5 0 .9.2 1.3.3.1.1.1.3.1.5z"/>
    <path d="M246.1 322.6c-7.6-.5-15.3-1-23-1.6-.8-.1-2 0-1.9-1.2.2-1.2 1.3-.9 2.2-.8 7.8.6 15.5 1.9 23.3 1.6.6 0 1.2 0 1.8.2.3.1.7.5.7.7 0 .3-.4.7-.7.8-.7.1-1.4.2-2.4.3z"/>
    <path d="M217.8 321.2c-1.3 0-2.3-1-2-1.6s1-1.1 1.7-1.2c.8-.1 1.6.4 1.5 1.4 0 .8-.5 1.4-1.2 1.4z"/>
    <path d="M219.9 311.3c-.1 1.3-.4 2.1-1.4 2.1s-1.5-.7-1.5-1.6c0-1 .8-1.5 1.6-1.4.5 0 1 .6 1.3.9z"/>
    <path d="M218 328.1c-.2 1.3-.4 2.2-1.5 2.1-.5 0-1.1-.9-1.2-1.4-.1-.9.5-1.6 1.4-1.6.5 0 1 .7 1.3.9z"/>
    <path d="M215.7 337.8c-.9 0-1.5-.7-1.3-1.5.1-.6.8-1.5 1.3-1.6 1-.2 1.2.9 1.3 1.7 0 .8-.4 1.3-1.3 1.4z"/>
    <path d="M216.7 345.8c-.3.2-.7.7-1.3.9-.8.2-1.6-.7-1.5-1.6 0-.8.5-1.3 1.3-1.2 1-.1 1.5.5 1.5 1.9z"/>
  </g>
  <g opacity=".6" fill="#FFF">
    <path d="M1015.5 366.3c-3-1-3.3-2.2-1.6-4.6 2.2-3.1 4.7-6 8.1-7.9 2.6-1.4 5.4-2.4 8.2-3.4.8-.3 1.1-.6 1.2-1.5.4-4.3.6-8.6 1.4-12.8 1.1-5.6 4.1-10 9.7-12.1 4.2-1.5 8.4-1.3 12.8-.5 3.9.8 7.3 2.3 9.6 5.7 1.5 2.2 2.5 4.6 2.8 7.2.1 1.2.8 1.7 1.7 2 2.2.8 4.4 1.5 6.5 2.4 1 .4 1.9 1.2 2.8 1.8v.5c-2.7 1.6-5.2 3.4-8 4.6-2.5 1.1-3.7 2.7-4.4 5.2-2.1 7.5-5.7 14.1-11.7 19.3-1 .9-2.1 1.8-3.2 2.6-.6.4-.8.8-.6 1.6.5 2.2.9 4.4 1.5 6.6.3 1 1 1.9 1.6 2.8.2.4.7.6.9.9.2.5.1 1 .2 1.6-.5 0-1.2.2-1.6-.1-.6-.4-1.1-1-1.9-1.6-.3.8-.5 1.4-.7 2-.1.3-.5.5-.7.8-.2-.3-.7-.6-.7-.9-.1-.9-.2-1.8.1-2.6.5-1.3.6-2.6.3-4-.4-1.7-.7-3.3-1.1-5.2-1.1.3-2.1.5-3.1.8-2.5.8-5 1.6-7.4 2.4-.3.1-.7.5-.7.8 0 2 .1 4.1.3 6.1.1 1.3.5 2.5 1.9 3.2.3.2.5.7.7 1.1-.5.2-1 .3-1.5.5-.1 0-.3 0-.4-.1-1.4-.9-2.6-1-3.7.4-.6.7-1.2.2-1.1-.5.1-.9.3-1.8.7-2.5 1.2-2.5.8-5.1.7-7.7 0-.2-.7-.6-1.1-.6-2.1.1-4.2.5-6.4.5-4.3.1-8.6 0-12.9-.1-1 0-2-.4-2.9-.8-1-.4-1.4-1.3-1.1-2.4.6-1.9.5-2.1-1.2-3.1-1-.6-1.1-1.5-.6-2.3.5-.9 1.3-1.8 2.1-2.5 1-.9 2.1-1.5 3.2-2.3.4-.5.8-.9 1.3-1.3zm.7-2.3c.7.2 1.1.4 1.6.5 1.7.6 1.9 1.5.5 2.6-1.6 1.3-3.3 2.4-5 3.6-.5.4-1 .7-1.4 1.2-.5.6-.4 1.2.4 1.5.3.1.7.1 1 .2.7.4 1.4.8 2.2 1.1-.4.6-.8 1.3-1.3 1.9 0 0-.1 0-.1.1-.1.3-.4.5-.3.7.1.2.4.4.7.4 1.7.3 3.4.6 5.2.8 7.2.5 14.3.1 21.3-2 7.1-2.2 13.2-5.9 17.4-12.2 3.5-5.3 5.4-11.2 6.6-17.3.8-4.2 1-8.5-.3-12.7-1-3-2.4-5.8-5.6-7.1-3.4-1.3-7-2.1-10.7-1.9-6.4.3-10.3 3.3-12.3 9.3-1.4 4.3-2 8.7-2.1 13.2 0 1-.1 2-.3 2.9-.2 1.1-.9 1.8-2.2 2-1.9.4-3.9.8-5.6 1.6-4.2 2-6.9 5.8-9.7 9.6zm52-17.3c2.5-1.4 4.7-2.6 6.9-3.9 0-.1-.1-.2-.1-.4-2.1-.5-4.1-1.1-6.3-1.7-.1 1.1-.1 1.9-.2 2.8-.1 1-.2 1.9-.3 3.2z"/>
    <path d="M1028.3 372c-.7 0-1.5.2-2.1 0-.7-.2-1.7-.7-2-1.3-.5-.9-.1-1.9.7-2.6.4-.3.7-.6 1.1-.9.9-.9.9-1.2-.2-2-2.4-1.6-2.5-2.4-.5-4.5 1.4-1.4 2.9-2.8 4.4-4.1.7-.6 1.8-1.2 2.5-.3.7.9-.3 1.6-.9 2.2-1 .9-2.2 1.8-3.2 2.7-.5.5-.9 1.2-1.4 1.9 1 .4 1.8.7 2.6 1.1 1.5.8 1.5 1.8.1 2.8-.5.3-1 .6-1.5 1-.2.2-.4.7-.3 1 .1.2.6.4.9.5s.7.1 1 .1c1.6.3 1.7.4 1.3 1.9-.3 1.2.1 1.6 1.6 1.3 3.5-.9 6.7-2.2 9.6-4.4 3.2-2.5 5.2-5.7 6.5-9.5.4-1.1.8-2.1 1.4-3.1.2-.3.7-.4 1.1-.6.2.4.5.7.5 1.1 0 .8.1 1.7-.1 2.5-1.6 4.9-3.8 9.3-8.3 12.2-3.3 2.1-6.7 3.9-10.6 4.6h-.1c-3.6.7-4.7-.5-4.1-3.6z"/>
    <path d="M1059.8 339.4c0 3.9-2.4 6.7-5.8 6.7-3.8 0-6.9-2.7-7-6.1-.1-3.8 3-6.7 7.3-6.7 3.2 0 5.5 2.5 5.5 6.1zm-2.2.2c0-2.5-1.5-4.2-3.6-4.2-2.6 0-4.6 1.9-4.5 4.2.1 2.7 2 4.1 4.3 4.1 2.2.1 3.8-1.8 3.8-4.1z"/>
    <path d="M1055.8 339.6c0 1.2-1.3 2.4-2.6 2.4-1.4 0-2.4-1-2.3-2.2 0-1.3 1.5-2.6 3-2.5 1.1 0 1.9 1 1.9 2.3z"/>
  </g>
  <path opacity=".6" fill="none" stroke="#FFF" stroke-width="4.2579" stroke-miterlimit="10" d="M1074.1 321.5c-.4-2.3.7-3.9 2.3-5.1 6.3-4.5 10.9-10.5 15.1-16.8 2.1-3.2 3.7-6.7 5-10.2 2.1-5.6 1.4-11-1.5-16.2-1.2-2.1-2.5-4.1-3.5-6.2-5-10.7-5.5-21.5-.2-32.2 2.7-5.5 7.5-8.9 12.9-11.3 13.7-6.1 28-7.8 42.8-6.9 6.4.4 12.6 1.5 18.7 3.8 6.6 2.5 11.4 6.9 13.8 13.5 5.9 15.9 7.1 32.1 3 48.5-1.5 5.8-4 11.2-8.4 15.6-2.7 2.7-5.9 4.7-9.7 5.5-6.7 1.3-13.4 2.6-20.1 3.4-7.8 1-15.5-.2-23-2.2-2-.5-4.1-.8-6.1-1.4-2.2-.6-4-.2-5.9 1-6.1 4-12.3 8-18.5 11.8-5.1 3.2-10.6 5.2-16.7 5.4z"/>
  <path opacity=".6" fill="#FFF" d="M1156.5 265.1v-15c-7 2.2-14 2.9-21.2 2.2v8.9c0 2.2.2 4.4.2 6.6.1 7.9-8.8 15.1-16.4 13.4-3.8-.8-5.6-4.5-3.8-8 1.8-3.5 5-5.3 8.8-5.7 2.9-.3 5.8-.1 8.8-.1v-6.6l-.3-16.5c0-2.1.2-2.3 2.2-2.1 6.9.6 13.2-1.5 19.4-4.1.9-.4 1.8-.7 2.6-1.1 1.4-.6 2 0 2.3 1.3.1.6.1 1.2.1 1.8 0 8.5 0 17.1-.1 25.6-.1 5-2.4 9-6.2 12.2-1.7 1.4-3.8 2-6 1.5-3.1-.6-4.5-2.5-4-5.7.7-4.7 5.1-8.6 9.9-8.8 1.1.1 2.3.2 3.7.2zm.3-24.6c-7.2 2.8-14.4 4.6-21.9 4.7 0 .5-.1.8-.1 1 0 .7-.1 1.5.1 2.1.2.5.8 1.2 1.2 1.2 6.7.5 13.2-.2 19.6-2.3.4-.1 1-.7 1.1-1.1.1-1.7 0-3.5 0-5.6zm-24.8 30.4c-4-1.1-7.9-1.3-11.6.7-1 .5-1.9 1.3-2.6 2.1-1.8 2.1-.9 4.5 1.9 5.1 4.1.9 11-3 12.3-7v-.9zm23.9-3.6c-1.1.1-2.1.1-3.1.3-3.4.7-6 2.5-7.4 5.8-1 2.4-.1 3.7 2.6 3.5 3.8-.2 7.9-5 7.9-9.6z"/>
  <path opacity=".6" fill="#FFF" d="M1056.5 48.6c-1.6-.6-3.3-.6-3.8-1.4-1-1.6 1.3-1.7 1.9-2.8-.3-1-.7-2.1-1.2-3.2-.2-.4-.5-.8-.9-.9-4.3-1.4-7.3-4.5-9-8.5-1.9-4.4-3.1-9.1-4.5-13.7-.2-.8-.2-1.7-.1-2.5.1-.5.6-1.3.9-1.3.5 0 1.3.5 1.5.9.7 1.7 1.1 3.5 1.7 5.3.6 1.7 1.3 3.4 2 5.2.3-.1.5-.1.8-.2 0-.7 0-1.5-.1-2.1-.6-2.6-1.3-5.1-1.8-7.7-.1-.8.3-1.7.6-2.5.6.6 1.4 1.2 1.6 1.9.8 2.1 1.4 4.3 2.1 6.5.2.7.6 1.3 1.2 1.8.6-4-2.1-7.6-1.2-11.6 2.9 2.4 2.6 6.5 4.9 9.3 0-.6.1-1.2 0-1.7-.4-1.9-.9-3.8-1.3-5.8-.1-.6-.3-1.2-.2-1.8.1-.7.6-1.3.9-1.9.5.5 1.3.9 1.5 1.5.5 1.2.7 2.5 1 3.8 1.1 4.6 2.5 9.2 3.3 13.9.5 2.6-.2 5.4 0 8.1.1 1.9.8 3.8 1.3 5.6 1.5 0 3-1.2 3.7.7.7 1.8-.8 2.3-2.2 3 1.1 2.7 2.1 5.4 3.2 8 4.8 11.5 9.7 22.9 14.3 34.4.7 1.8.5 4 .3 6-.2 2.3-.9 4.6-1.6 7.4-4.3-3.1-9-4.9-10.3-10.3-2.8-11.5-5.6-23-8.4-34.4-.6-3.2-1.4-6.3-2.1-9zm17.9 46.2c1.1-2-.2-5.7-2.4-6.7-.8 2 .6 5.7 2.4 6.7z"/>
  <g opacity=".6" fill="#FFF">
    <path d="M104.7 119.7c2.9-.7 5.9.6 9 1.4 6.9 1.7 13.8 1.7 20.8.4.7-.1 1.5-.3 2-.7 1.4-1.1 2.8-.8 4.2-.4 8.5 2 13.9 7.8 14.9 16.7 1.1 9.8-.5 19.2-5.5 27.7-1.2 2.1-2.8 4-4.4 5.8-3.1 3.3-7.2 4.9-11.7 5.5-8.4 1-16.4-.5-24.3-3.2-1-.3-1.4-.9-1.5-2-.6-8.3-1.4-16.7-1.7-25-.2-5.7-1.8-10.9-3.8-16.1-1.1-2.7-2.3-5.4-3.3-8.2-.7-1.7-.5-1.9 1.3-2 1.2.1 2.4.1 4 .1zm6.2 2.5c-.8 5.4-1.6 10.7-2.3 16.1-.8 6.3-.4 12.7 0 19 .3 4.1.8 8.1 1.2 12.2.1 1.1.7 1.7 1.7 2 4.9 1.6 9.9 2.9 15.1 3 3.8.1 7.7.1 11.4-1.1 1.9-.6 3.4-1.7 3.5-3.9.4-4.7 1-9.4.9-14-.2-6.5-.9-13-1.6-19.5-.4-4.1-1.3-8.1-1.9-12.1-.1-.6-.4-1.1-.6-1.5-9.3 2.5-18.2 1.8-27.4-.2zm32.4 48.1c.4-.4.7-.7.9-1 6.6-8.1 10.1-17.3 10-27.8 0-4.7-.9-9.2-3.7-13.1-2.6-3.7-6.3-5.8-10.8-6.7.3 1 .5 1.9.9 2.7.1.4.5.8.9.9 4 1.1 6.6 3.8 8.1 7.5 1.2 3.1 1.4 6.4 1.1 9.7-.5 6.3-2.1 12.2-6.2 17.1-.1.2-.2.4-.3.7-.3 3.3-.6 6.6-.9 10zm1.2-14.2c.1-.1.2-.3.4-.5 3.2-5.8 4.4-12 3.9-18.6-.2-2.2-.9-4.3-2.2-6.2-1.3-1.8-3-3.1-5.1-3.6 1 9.6 2 19.2 3 28.9zM101 121.5c1.9 4.8 3.8 9.6 5.8 14.4.8-4.8 1.5-9.5 2.3-14.4H101z"/>
    <path d="M106.5 174.9c1.3.3 2.3.6 3.2.9 9.7 2.7 19.5 3.1 29.3.8 1.9-.4 3.7-1.1 5.6-1.7 1.2-.4 2-.2 2.2 1 .3 1.9.4 3.8.3 5.7 0 .5-1 1.2-1.6 1.4-1.7.5-3.5.8-5.3.9-10.6.7-21.1.2-31.6-2-2.3-.5-2.3-.5-2.3-2.8.2-1.3.2-2.6.2-4.2zm38.5 2c-12.5 3.9-24.7 3.8-37.1.1 0 .5 0 .8-.1 1-.3 1.4.4 2.1 1.7 2.3 2.6.5 5.2 1.3 7.9 1.6 8.5 1.1 17 .6 25.5-.3 2.5-.3 2 .2 2.1-2.3v-2.4z"/>
    <path d="M124.6 113.9c3.1.4 6.2.7 9.2 1.3 1.2.2 2.5 1 3.4 1.8 1.4 1.2 1.2 2.3-.6 2.7-2.3.6-4.7 1-7.1 1.2-4.2.3-8.4.1-12.5-1.1-.9-.3-1.8-.7-2.7-1.2-1.6-1-1.5-2.5.3-3.1 1.5-.5 3.2-.8 4.8-1 1.7-.2 3.4 0 5.1 0 0-.3.1-.5.1-.6zm-8.9 3.3c3.3 2.5 17.1 2.4 20 .8-2.7-2.4-17.1-3-20-.8z"/>
    <path d="M144.5 156.1c-1-9.6-2-19.2-3-28.9 2.1.5 3.8 1.7 5.1 3.6 1.3 1.8 2.1 4 2.2 6.2.5 6.6-.7 12.8-3.9 18.6-.2.1-.3.3-.4.5z"/>
    <path d="M101 121.5h8.1c-.8 4.9-1.5 9.6-2.3 14.4-1.9-4.8-3.8-9.6-5.8-14.4z"/>
    <path d="M118.3 149.9c.4-5.8.6-11.7 1.1-17.5.1-1.6.7-3.2 1.1-4.7.4-1.2 1.1-1.7 2.5-1.7 2.7.1 4.7 1.2 5.5 3.8.7 2.3 1.4 4.8 1.5 7.2.4 7.2.5 14.3.5 21.5 0 3-.5 5.9-1.7 8.7-1.3 3.1-3.7 4.5-7 4.6-1 0-1.6-.6-1.8-1.5-.5-2.6-1-5.3-1.2-7.9-.2-4.2-.1-8.4-.1-12.5h-.4zm1.9-11.5c.7 0 1.5-.1 2.2 0 .4.1.7.6 1 1-.3.2-.6.5-1 .6-.5.1-1.1 0-1.7.1-.2 0-.4.2-.6.3 0 .1 0 .3.1.4.5 0 1.1-.1 1.6 0 .5.2.8.6 1.2 1-.4.3-.8.6-1.2.7-.5.1-1.1 0-1.7 0v1.7h5.3c.7 0 1.5.1 1.5 1 0 .2-.9.7-1.4.7-1.8.1-3.6 0-5.4 0v1.4c.8 0 1.5-.2 2.1-.1.4.1.7.6 1 1-.4.2-.7.6-1.1.7-.4.1-1-.1-1.4.1-.3.1-.5.4-.8.7l.3.3c.4 0 .9-.1 1.3 0 .4.2.7.6 1 .9-.3.2-.6.6-1 .7-.4.1-.9.1-1.3.1-.3 1 .2 1.2 1 1.2 1.8 0 3.6 0 5.4.1.4 0 .8.7 1.3 1-.4.2-.8.6-1.2.7-.7.1-1.4 0-2.2 0h-4.1v3.1c.6 0 1.1-.1 1.6 0 .5.2 1 .6 1.5.9-.5.3-.9.6-1.5.8-.5.1-1 0-1.6 0 .1.6.1.9.2 1.3.5 0 1-.1 1.3 0 .4.2.8.7 1.1 1-.4.2-.8.6-1.2.7-.4.1-.8 0-1.2 0-.1.4-.1.5-.2.7.3.2.7.5 1 .5 1.1 0 2.2-.3 3.3-.3.5 0 1 .6 1.4.9-.4.2-.8.6-1.3.7-1.3.2-2.7.3-4.1.5.1.6.2 1 .2 1.4 1-.1 1.8-.2 2.6-.1.4 0 .7.6 1 .9-.4.2-.7.6-1.1.7-.7.1-1.4.1-2.2.2.4 1.7.9 1.9 2.3 1.5 1.5-.4 2.6-1.5 3-2.9.7-2.5 1.6-5 1.7-7.5.3-6.7.4-13.4.2-20.1-.1-2.9-.8-5.8-1.5-8.6-.3-1.3-1.2-2.3-2.5-2.9-1.8-.7-2.9-.1-3.1 2 .3 0 .7-.1 1 .1.5.3 1 .7 1.5 1-.5.2-1 .5-1.5.7-.6.1-1.2 0-1.8 0v.5c.4.1.8.2 1.2.2.7 0 1.5.2 1.5 1 0 .3-.9.6-1.4.8s-1.1.1-1.7.2v.4h4c.7 0 1.5.1 1.5.9 0 .3-.9.7-1.4.8-1.5.2-2.9.2-4.4.3.4.5.4.9.4 1.4z"/>
  </g>
  <path opacity=".6" fill="#FFF" d="M1218.4 119.6c3.1 0 6.2 3.1 6.9 6.7.5 2.4-.1 4.7-1.4 6.6-2.6 3.6-5.3 7.1-8.1 10.6-3.4 4.3-6.9 8.5-10.5 12.7-.9 1-1.9 1.9-2.9 2.9-4.7 4.2-9.2 8.5-14 12.5-2.2 1.8-4.9 3.1-7.6 4.2-2.6 1-4.7-.2-6.1-2.7-1.4-2.7-1.3-5.4-.4-8.2 2.5-8.3 6.6-15.6 12.4-22.1 6.7-7.5 13.6-14.7 22.5-19.7 2.9-1.5 5.9-3.1 9.2-3.5zm-35.8 31.8c.8.2 1.4.3 1.9.4 2.1.7 3.7 1.9 4.2 4.2.1.4-.2 1-.2 1.4-.5-.1-1.2-.1-1.4-.5-1.3-1.6-3.1-1.9-4.9-2.3-.9-.2-1.6 0-2 1-1.1 2.6-2.4 5.2-3.4 7.9-.7 1.8-1.2 3.7-1.3 5.5-.2 3.4 2.9 5.5 6 4.1 1.2-.6 2.5-1.3 3.5-2.2 6.3-5.5 12.5-11.1 18.7-16.7.5-.5 1-1.1 1.4-1.7 3.6-6 8.8-10.7 13.3-15.9 2-2.4 3.5-5.3 4.7-8.1 1.5-3.4-2.5-7.4-5.9-6.3-5.2 1.8-9.4 5.2-14 8.2 4.2 2.2 5.3 3.8 4.8 6.8-.6-.3-1.2-.5-1.6-.9-.7-.5-1.2-1.4-2-1.7-1.5-.6-3.6-1.9-4.6-1.3-2.6 1.6-4.7 4-7.2 6.2 5.1 1.5 7.7 5.5 5.5 8.3-.5-.8-1.1-1.4-1.6-2.2-1.3-1.9-3-3.1-5.3-3.3-.5 0-1.2.1-1.5.5-2.5 2.9-4.7 5.7-7.1 8.6z"/>
  <g opacity=".6" fill="#FFF">
    <path d="M596.8 48.3h-8.5c-2.9 0-4.2-1.2-4.2-4.1V16.6c0-3 1.2-4.1 4.1-4.1h2.5c1.7 0 3.3.5 4-2.1.6-2.2 3-2.1 4.9-1.8 2.1.3 3 1.8 3.3 3.8h6.6c1.3-3.5 1.8-3.9 5.6-3.9h3.8c3.7 0 4.3.5 5.5 3.9H647V9.5c.1-2.2 1.1-3.4 2.8-3.4 1.8 0 2.8 1.2 2.8 3.4v3c3.9 0 7.6-.1 11.3 0 1.9.1 3.7.5 5.6.7.4 0 .7-.2 1.1-.3 1.3-.2 2.6-.5 3.8-.4 1.6.2 2.5 1.3 2.6 3 .1 2 .1 3.9.1 5.9v18.1c0 4.3-1.2 5.3-5.4 4.8-.3 0-.6 0-1-.1v35.4h-91.5c0-3.2.1-6.4 0-9.6 0-.8-.7-1.6-.9-2.5-.2-1-.7-2.2-.3-3 .3-.7 1.5-1.2 2.3-1.6.4-.2 1.1 0 1.6 0h61.3V40.1h-31.8v4.2c-.1 2.6-1.3 3.8-3.9 3.9h-8.9v3.6c.5-.4.8-.6 1.3-1.1v2.5c-.5-.3-.8-.5-1.4-.8v7.3c-.6-2-1.1-3.9-1.7-5.7-.2-.1-.4-.1-.6-.2-.1.4-.3.8-.4 1.2-.1-.1-.3-.2-.4-.3v-2.3c.4.2.7.5 1.2.8.2-1.5.2-3.1.2-4.9zM669.1 63c0-.4.1-.6.1-.9V16.4c0-1.9-.6-2.4-2.7-2.4h-77.9c-2.5 0-2.9.4-2.9 2.9v27c0 2.4.4 2.8 2.8 2.8h15.9c5.8 0 5.3.4 5.3-5.3 0-2.4.4-2.8 2.8-2.8h29.6c2.5 0 2.9.4 2.9 2.9V61c0 .6.1 1.3.1 1.9 8.1.1 16 .1 24 .1zM581 78.1h88.1v-9.3H581v9.3zm88.1-13.4h-1.9c-8.4 0-16.8-.1-25.3-.1h-60c-.6 0-1.3-.1-1.8.2-.4.2-.8.8-.8 1.2 0 .3.6.8 1 1 .3.2.8 0 1.2 0H669c.1-.9.1-1.5.1-2.3zm1.8-36.3v12.4c0 1.5.5 2.2 2.1 2.2 1.5 0 2.6-.3 2.6-2.1V16.2c0-1.8-1.1-2.1-2.6-2.1s-2.1.6-2.1 2.2v12.1zm-59.4-16h11c-.1-1.5-.9-2.3-2.2-2.3-2.2-.1-4.4-.1-6.6 0-1.3 0-2.2.7-2.2 2.3zm-15.7 0h5.4c.1-1.8-1-2.3-2.3-2.3-1.7-.1-2.9.3-3.1 2.3zm55.3 0c0-1.3.1-2.4 0-3.5-.1-.4-.8-1.2-1-1.1-.5.1-1.2.6-1.2 1.1-.2 1.1-.1 2.3-.1 3.5h2.3z"/>
    <path d="M611.5 12.4c0-1.6.9-2.3 2.2-2.3 2.2-.1 4.4-.1 6.6 0 1.3 0 2.2.8 2.2 2.3h-11z"/>
    <path d="M595.8 12.4c.2-2 1.5-2.4 3-2.3 1.4.1 2.4.6 2.3 2.3h-5.3z"/>
    <path d="M651.1 12.4h-2.3c0-1.2-.1-2.4.1-3.5.1-.4.7-1 1.2-1.1.2-.1.9.7 1 1.1.1 1.1 0 2.2 0 3.5z"/>
    <path d="M647.6 26.1c0-4 3.1-7.2 7.1-7.2 3.9 0 7.2 3.2 7.2 7.1s-3.3 7.2-7.2 7.2c-3.9.1-7.1-3.1-7.1-7.1zm12.7-.1c0-3.1-2.5-5.6-5.6-5.6s-5.7 2.7-5.6 5.8c.1 3.1 2.6 5.5 5.7 5.5 3.1-.1 5.5-2.5 5.5-5.7z"/>
    <path d="M659.4 39c2.5 0 4.4 1.9 4.5 4.3 0 2.5-1.9 4.4-4.4 4.4-2.4 0-4.3-1.9-4.4-4.3 0-2.4 1.9-4.4 4.3-4.4zm.2 1.5c-1.5 0-2.9 1.4-2.8 2.9.1 1.5 1.5 2.8 3 2.7 1.4-.1 2.6-1.5 2.6-2.9-.1-1.4-1.4-2.7-2.8-2.7z"/>
  </g>
  <path opacity=".6" fill="#FFF" d="M173 33c-.5-7.5-.9-14.7-1.4-22.1-6.7-.3-13.4 1.2-20.1-1 .4 4.1.7 8.1 1.1 12.2.4 4.6.9 9.1 1.2 13.7.4 6.2-7.5 13.1-13.3 11.8-3.6-.9-5.4-3.8-4.3-7.5 1.2-4.1 5-6.7 10-6.9 1.5-.1 3 0 4.6 0-.3-4.4-.7-8.8-1-13.3-.4-4.8-.7-9.6-1.1-14.5-.1-1.8.5-2.2 2.4-1.9 4.1.7 8.2 1.5 12.3 2 2.9.3 5.7-.2 8.3-1.5 1.9-.9 2.4-.5 2.4 1.5 0 3.7-.2 7.4.1 11.1.4 5.6.9 11.2 1.7 16.7.9 6.7-3.8 13.5-10.1 14.5-4.7.7-7.4-2.4-6.1-6.9 1.5-5.4 5.9-8.5 11.5-8.2.6.2 1.1.3 1.8.3z"/>
  <circle fill="none" stroke="#FFF" stroke-width="2.5025" stroke-miterlimit="10" cx="650" cy="331.9" r="44.7"/>
  <g fill="none" stroke="#FFF" stroke-width="5.6693" stroke-miterlimit="10">
    <path d="M631 326.1l20.9 20.9"/>
    <path d="M669 326.1L648.1 347"/>
  </g>
</svg>